ParibartanColr0.ttx.ufo
<glyph name="numbersign" format="2">
  <advance width="644"/>
  <unicode hex="0023"/>
  <outline>
    <contour>
      <point x="149" y="692" type="line"/>
      <point x="301" y="692" type="line"/>
      <point x="288" y="618" type="line"/>
      <point x="436" y="618" type="line"/>
      <point x="449" y="692" type="line"/>
      <point x="601" y="692" type="line"/>
      <point x="588" y="618" type="line"/>
      <point x="599" y="618" type="line"/>
      <point x="599" y="466" type="line"/>
      <point x="561" y="466" type="line"/>
      <point x="544" y="368" type="line"/>
      <point x="599" y="368" type="line"/>
      <point x="599" y="216" type="line"/>
      <point x="517" y="216" type="line"/>
      <point x="505" y="149" type="line"/>
      <point x="353" y="149" type="line"/>
      <point x="365" y="216" type="line"/>
      <point x="217" y="216" type="line"/>
      <point x="205" y="149" type="line"/>
      <point x="53" y="149" type="line"/>
      <point x="65" y="216" type="line"/>
      <point x="55" y="216" type="line"/>
      <point x="55" y="368" type="line"/>
      <point x="92" y="368" type="line"/>
      <point x="109" y="466" type="line"/>
      <point x="55" y="466" type="line"/>
      <point x="55" y="618" type="line"/>
      <point x="136" y="618" type="line"/>
    </contour>
    <contour>
      <point x="409" y="466" type="line"/>
      <point x="261" y="466" type="line"/>
      <point x="244" y="368" type="line"/>
      <point x="392" y="368" type="line"/>
    </contour>
  </outline>
</glyph>
<glyph name="ampersand" format="2">
  <advance width="649"/>
  <unicode hex="0026"/>
  <outline>
    <contour>
      <point x="389" y="810" type="qcurve"/>
      <point x="386" y="691" type="line"/>
      <point x="368" y="690"/>
      <point x="239" y="620"/>
      <point x="224" y="605" type="qcurve"/>
      <point x="190" y="571"/>
      <point x="193" y="521" type="qcurve"/>
      <point x="216" y="498" type="line"/>
      <point x="263" y="518"/>
      <point x="315" y="518" type="qcurve"/>
      <point x="328" y="518"/>
      <point x="341" y="517" type="qcurve"/>
      <point x="341" y="373" type="line"/>
      <point x="452" y="262" type="line"/>
      <point x="565" y="354"/>
      <point x="569" y="355" type="qcurve"/>
      <point x="569" y="202" type="line"/>
      <point x="566" y="202"/>
      <point x="536" y="178" type="qcurve"/>
      <point x="600" y="114" type="line"/>
      <point x="482" y="-4" type="line"/>
      <point x="406" y="73" type="line"/>
      <point x="319" y="3"/>
      <point x="315" y="3" type="qcurve"/>
      <point x="208" y="3"/>
      <point x="57" y="153"/>
      <point x="57" y="260" type="qcurve"/>
      <point x="57" y="330"/>
      <point x="92" y="390" type="qcurve"/>
      <point x="76" y="406" type="line"/>
      <point x="56" y="442"/>
      <point x="46" y="518"/>
      <point x="66" y="599"/>
      <point x="93" y="667"/>
      <point x="117" y="712" type="qcurve"/>
      <point x="130" y="736"/>
      <point x="251" y="792"/>
      <point x="373" y="820"/>
    </contour>
    <contour>
      <point x="322" y="158" type="qcurve"/>
      <point x="209" y="272" type="line"/>
      <point x="208" y="266"/>
      <point x="208" y="260" type="qcurve"/>
      <point x="208" y="216"/>
      <point x="270" y="154"/>
      <point x="315" y="154" type="qcurve"/>
      <point x="316" y="154"/>
    </contour>
  </outline>
</glyph>
<glyph name="one" format="2">
  <advance width="436"/>
  <unicode hex="0031"/>
  <outline>
    <contour>
      <point x="158" y="487" type="line"/>
      <point x="50" y="594" type="line"/>
      <point x="232" y="776" type="line"/>
      <point x="340" y="669" type="line"/>
    </contour>
    <contour>
      <point x="234" y="774" type="line"/>
      <point x="386" y="774" type="line"/>
      <point x="386" y="-2" type="line"/>
      <point x="234" y="-2" type="line"/>
    </contour>
  </outline>
</glyph>
<glyph name="two" format="2">
  <advance width="555"/>
  <unicode hex="0032"/>
  <outline>
    <contour>
      <point x="130" y="586" type="qcurve"/>
      <point x="225" y="586"/>
      <point x="359" y="476"/>
      <point x="359" y="399" type="qcurve"/>
      <point x="359" y="322"/>
      <point x="227" y="226"/>
      <point x="130" y="226" type="qcurve"/>
      <point x="92" y="226"/>
      <point x="57" y="236" type="qcurve"/>
      <point x="54" y="0" type="line"/>
      <point x="557" y="5" type="line"/>
      <point x="557" y="126" type="line"/>
      <point x="282" y="124" type="line"/>
      <point x="386" y="158"/>
      <point x="512" y="305"/>
      <point x="512" y="400" type="qcurve"/>
      <point x="512" y="486"/>
      <point x="410" y="631"/>
      <point x="234" y="715"/>
      <point x="130" y="715" type="qcurve"/>
      <point x="93" y="715"/>
      <point x="57" y="709" type="qcurve"/>
      <point x="57" y="576" type="line"/>
      <point x="92" y="586"/>
    </contour>
  </outline>
</glyph>
<glyph name="four" format="2">
  <advance width="752"/>
  <unicode hex="0034"/>
  <outline>
    <contour>
      <point x="393" y="0" type="line"/>
      <point x="393" y="192" type="line"/>
      <point x="392" y="191" type="line"/>
      <point x="57" y="191" type="line"/>
      <point x="379" y="774" type="line"/>
      <point x="522" y="774" type="line"/>
      <point x="522" y="0" type="line"/>
    </contour>
    <contour>
      <point x="385" y="341" type="line"/>
      <point x="385" y="521" type="line"/>
      <point x="287" y="344" type="line"/>
    </contour>
  </outline>
</glyph>
<glyph name="six" format="2">
  <advance width="729"/>
  <unicode hex="0036"/>
  <outline>
    <contour>
      <point x="432" y="612" type="qcurve"/>
      <point x="347" y="612"/>
      <point x="219" y="500"/>
      <point x="206" y="416" type="qcurve"/>
      <point x="276" y="492"/>
      <point x="379" y="499" type="qcurve"/>
      <point x="387" y="500"/>
      <point x="393" y="500" type="qcurve"/>
      <point x="396" y="500"/>
      <point x="397" y="500" type="qcurve"/>
      <point x="397" y="500"/>
      <point x="398" y="500" type="qcurve"/>
      <point x="399" y="500"/>
      <point x="401" y="500" type="qcurve"/>
      <point x="492" y="500"/>
      <point x="633" y="387"/>
      <point x="653" y="300" type="qcurve"/>
      <point x="659" y="272"/>
      <point x="659" y="242" type="qcurve"/>
      <point x="659" y="202"/>
      <point x="647" y="164" type="qcurve"/>
      <point x="617" y="70"/>
      <point x="531" y="20" type="qcurve"/>
      <point x="482" y="-14"/>
      <point x="432" y="-14" type="qcurve"/>
      <point x="428" y="-14"/>
      <point x="425" y="-14" type="qcurve"/>
      <point x="413" y="-15"/>
      <point x="401" y="-15" type="qcurve"/>
      <point x="400" y="-15"/>
      <point x="398" y="-15"/>
      <point x="398" y="-15" type="qcurve"/>
      <point x="398" y="-15"/>
      <point x="397" y="-15" type="qcurve"/>
      <point x="395" y="-15"/>
      <point x="393" y="-15" type="qcurve"/>
      <point x="385" y="-15"/>
      <point x="379" y="-14" type="qcurve"/>
      <point x="299" y="-8"/>
      <point x="237" y="41" type="qcurve"/>
      <point x="152" y="93"/>
      <point x="50" y="273"/>
      <point x="50" y="380" type="qcurve"/>
      <point x="50" y="543"/>
      <point x="274" y="773"/>
      <point x="432" y="773" type="qcurve"/>
      <point x="515" y="773"/>
      <point x="551" y="766" type="qcurve"/>
      <point x="551" y="600" type="line"/>
      <point x="536" y="605"/>
      <point x="456" y="612"/>
    </contour>
    <contour>
      <point x="383" y="367" type="qcurve"/>
      <point x="372" y="367"/>
      <point x="359" y="364" type="qcurve"/>
      <point x="359" y="365" type="line"/>
      <point x="322" y="357"/>
      <point x="274" y="299"/>
      <point x="274" y="260" type="qcurve"/>
      <point x="274" y="206"/>
      <point x="318" y="174" type="qcurve"/>
      <point x="333" y="165"/>
      <point x="350" y="158" type="qcurve"/>
      <point x="355" y="157"/>
      <point x="359" y="156" type="qcurve"/>
      <point x="359" y="157" type="line"/>
      <point x="370" y="154"/>
      <point x="383" y="154" type="qcurve"/>
      <point x="395" y="154"/>
      <point x="407" y="157" type="qcurve"/>
      <point x="407" y="156" type="line"/>
      <point x="444" y="164"/>
      <point x="492" y="222"/>
      <point x="492" y="260" type="qcurve"/>
      <point x="492" y="299"/>
      <point x="444" y="357"/>
      <point x="407" y="365" type="qcurve"/>
      <point x="407" y="364" type="line"/>
      <point x="395" y="367"/>
    </contour>
  </outline>
</glyph>
<glyph name="eight" format="2">
  <advance width="616"/>
  <unicode hex="0038"/>
  <outline>
    <contour>
      <point x="310" y="324" type="qcurve"/>
      <point x="299" y="323"/>
      <point x="289" y="321" type="qcurve"/>
      <point x="289" y="322" type="line"/>
      <point x="256" y="315"/>
      <point x="214" y="264"/>
      <point x="214" y="229" type="qcurve"/>
      <point x="214" y="196"/>
      <point x="256" y="145"/>
      <point x="289" y="138" type="qcurve"/>
      <point x="289" y="139" type="line"/>
      <point x="299" y="136"/>
      <point x="310" y="136" type="qcurve"/>
      <point x="321" y="136"/>
      <point x="331" y="139" type="qcurve"/>
      <point x="331" y="138" type="line"/>
      <point x="364" y="145"/>
      <point x="406" y="196"/>
      <point x="406" y="229" type="qcurve"/>
      <point x="406" y="264"/>
      <point x="364" y="315"/>
      <point x="331" y="322" type="qcurve"/>
      <point x="331" y="321" type="line"/>
      <point x="321" y="323"/>
    </contour>
    <contour>
      <point x="310" y="592" type="qcurve"/>
      <point x="299" y="592"/>
      <point x="289" y="589" type="qcurve"/>
      <point x="289" y="590" type="line"/>
      <point x="256" y="583"/>
      <point x="214" y="532"/>
      <point x="214" y="498" type="qcurve"/>
      <point x="214" y="464"/>
      <point x="256" y="413"/>
      <point x="289" y="406" type="qcurve"/>
      <point x="289" y="407" type="line"/>
      <point x="299" y="405"/>
      <point x="310" y="404" type="qcurve"/>
      <point x="321" y="405"/>
      <point x="331" y="407" type="qcurve"/>
      <point x="331" y="406" type="line"/>
      <point x="364" y="413"/>
      <point x="406" y="464"/>
      <point x="406" y="498" type="qcurve"/>
      <point x="406" y="532"/>
      <point x="364" y="583"/>
      <point x="331" y="590" type="qcurve"/>
      <point x="331" y="589" type="line"/>
      <point x="321" y="592"/>
    </contour>
    <contour>
      <point x="309" y="3" type="qcurve"/>
      <point x="308" y="3"/>
      <point x="308" y="3" type="qcurve"/>
      <point x="307" y="3"/>
      <point x="305" y="3" type="qcurve"/>
      <point x="298" y="3"/>
      <point x="293" y="4" type="qcurve"/>
      <point x="203" y="10"/>
      <point x="81" y="140"/>
      <point x="81" y="229" type="qcurve"/>
      <point x="81" y="304"/>
      <point x="125" y="364" type="qcurve"/>
      <point x="81" y="423"/>
      <point x="81" y="498" type="qcurve"/>
      <point x="81" y="588"/>
      <point x="203" y="718"/>
      <point x="293" y="724" type="qcurve"/>
      <point x="298" y="725"/>
      <point x="305" y="725" type="qcurve"/>
      <point x="307" y="725"/>
      <point x="308" y="725" type="qcurve"/>
      <point x="309" y="725"/>
      <point x="309" y="725" type="qcurve"/>
      <point x="310" y="725"/>
      <point x="312" y="725" type="qcurve"/>
      <point x="406" y="725"/>
      <point x="539" y="592"/>
      <point x="539" y="498" type="qcurve"/>
      <point x="539" y="423"/>
      <point x="495" y="364" type="qcurve"/>
      <point x="539" y="304"/>
      <point x="539" y="229" type="qcurve"/>
      <point x="539" y="136"/>
      <point x="406" y="3"/>
      <point x="312" y="3" type="qcurve"/>
      <point x="311" y="3"/>
      <point x="309" y="3"/>
    </contour>
  </outline>
</glyph>
<glyph name="question" format="2">
  <advance width="384"/>
  <unicode hex="003F"/>
  <outline>
    <contour>
      <point x="50" y="828" type="line"/>
      <point x="59" y="829"/>
      <point x="76" y="829" type="qcurve"/>
      <point x="183" y="829"/>
      <point x="334" y="679"/>
      <point x="334" y="572" type="qcurve"/>
      <point x="334" y="500"/>
      <point x="262" y="380"/>
      <point x="202" y="347" type="qcurve"/>
      <point x="202" y="230" type="line"/>
      <point x="50" y="230" type="line"/>
      <point x="50" y="315" type="line"/>
      <point x="50" y="440" type="line"/>
      <point x="50" y="468" type="line"/>
      <point x="62" y="465"/>
      <point x="76" y="465" type="qcurve"/>
      <point x="121" y="465"/>
      <point x="183" y="527"/>
      <point x="183" y="572" type="qcurve"/>
      <point x="183" y="616"/>
      <point x="121" y="678"/>
      <point x="76" y="678" type="qcurve"/>
      <point x="62" y="678"/>
      <point x="50" y="675" type="qcurve"/>
    </contour>
    <contour>
      <point x="50" y="-2" type="line"/>
      <point x="50" y="140" type="line"/>
      <point x="202" y="140" type="line"/>
      <point x="202" y="-2" type="line"/>
    </contour>
  </outline>
</glyph>
<glyph name="at" format="2">
  <advance width="864"/>
  <unicode hex="0040"/>
  <outline>
    <contour>
      <point x="524" y="166" type="line"/>
    </contour>
    <contour>
      <point x="485" y="420" type="line"/>
      <point x="481" y="421"/>
      <point x="473" y="421" type="qcurve"/>
      <point x="450" y="421"/>
      <point x="419" y="390"/>
      <point x="419" y="346"/>
      <point x="450" y="314"/>
      <point x="473" y="314" type="qcurve"/>
      <point x="477" y="314"/>
      <point x="485" y="316" type="qcurve"/>
    </contour>
    <contour>
      <point x="561" y="236" type="line"/>
    </contour>
    <contour>
      <point x="487" y="228" type="qcurve"/>
      <point x="473" y="239" type="line"/>
      <point x="419" y="239"/>
      <point x="343" y="314"/>
      <point x="343" y="368" type="qcurve"/>
      <point x="343" y="421"/>
      <point x="419" y="492"/>
      <point x="473" y="492" type="qcurve"/>
      <point x="485" y="492" type="line"/>
      <point x="561" y="492" type="line"/>
      <point x="568" y="318" type="line"/>
      <point x="570" y="306"/>
      <point x="597" y="278"/>
      <point x="630" y="263"/>
      <point x="659" y="289"/>
      <point x="662" y="326" type="qcurve"/>
      <point x="662" y="327"/>
      <point x="658" y="341"/>
      <point x="658" y="342" type="qcurve"/>
      <point x="667" y="396"/>
      <point x="635" y="501"/>
      <point x="595" y="541" type="qcurve"/>
      <point x="527" y="608"/>
      <point x="336" y="605"/>
      <point x="268" y="537" type="qcurve"/>
      <point x="199" y="468"/>
      <point x="197" y="277"/>
      <point x="264" y="209" type="qcurve"/>
      <point x="316" y="157"/>
      <point x="460" y="135"/>
      <point x="524" y="166" type="qcurve"/>
      <point x="535" y="171"/>
      <point x="591" y="115"/>
      <point x="614" y="84" type="qcurve"/>
      <point x="637" y="54" type="line"/>
      <point x="524" y="-22"/>
      <point x="250" y="1"/>
      <point x="153" y="98" type="qcurve"/>
      <point x="41" y="210"/>
      <point x="46" y="532"/>
      <point x="276" y="762"/>
      <point x="597" y="767"/>
      <point x="709" y="655" type="qcurve"/>
      <point x="793" y="571"/>
      <point x="835" y="325"/>
      <point x="787" y="220" type="qcurve"/>
      <point x="765" y="207"/>
      <point x="721" y="191"/>
      <point x="672" y="188"/>
      <point x="638" y="187"/>
      <point x="584" y="200"/>
      <point x="559" y="206"/>
      <point x="496" y="225"/>
    </contour>
  </outline>
</glyph>
<glyph name="D" format="2">
  <advance width="630"/>
  <unicode hex="0044"/>
  <outline>
    <contour>
      <point x="202" y="143" type="line"/>
      <point x="296" y="145"/>
      <point x="427" y="282"/>
      <point x="427" y="378" type="qcurve"/>
      <point x="427" y="474"/>
      <point x="296" y="610"/>
      <point x="202" y="612" type="qcurve"/>
    </contour>
    <contour>
      <point x="50" y="768" type="line"/>
      <point x="65" y="763"/>
      <point x="183" y="773"/>
      <point x="198" y="773" type="qcurve"/>
      <point x="356" y="773"/>
      <point x="580" y="543"/>
      <point x="580" y="380" type="qcurve"/>
      <point x="580" y="273"/>
      <point x="479" y="93"/>
      <point x="305" y="-13"/>
      <point x="202" y="-14" type="qcurve"/>
      <point x="50" y="-14" type="line"/>
    </contour>
  </outline>
</glyph>
<glyph name="J" format="2">
  <advance width="419"/>
  <unicode hex="004A"/>
  <outline>
    <contour>
      <point x="50" y="6" type="qcurve"/>
      <point x="50" y="174" type="line"/>
      <point x="81" y="148"/>
      <point x="121" y="148" type="qcurve"/>
      <point x="170" y="148"/>
      <point x="202" y="185" type="qcurve"/>
      <point x="202" y="761" type="line"/>
      <point x="369" y="761" type="line"/>
      <point x="366" y="184" type="line"/>
      <point x="342" y="101"/>
      <point x="208" y="-3"/>
      <point x="121" y="-3" type="qcurve"/>
      <point x="84" y="-3"/>
    </contour>
  </outline>
</glyph>
<glyph name="P" format="2">
  <advance width="534"/>
  <unicode hex="0050"/>
  <outline>
    <contour>
      <point x="202" y="3" type="line"/>
      <point x="50" y="3" type="line"/>
      <point x="50" y="779" type="line"/>
      <point x="202" y="779" type="line"/>
      <point x="210" y="780"/>
      <point x="226" y="780" type="qcurve"/>
      <point x="333" y="780"/>
      <point x="484" y="630"/>
      <point x="484" y="416"/>
      <point x="333" y="265"/>
      <point x="226" y="265" type="qcurve"/>
      <point x="210" y="265"/>
      <point x="202" y="266" type="qcurve"/>
    </contour>
    <contour>
      <point x="202" y="626" type="qcurve"/>
      <point x="202" y="419" type="line"/>
      <point x="214" y="416"/>
      <point x="226" y="416" type="qcurve"/>
      <point x="271" y="416"/>
      <point x="333" y="478"/>
      <point x="333" y="523" type="qcurve"/>
      <point x="333" y="567"/>
      <point x="271" y="629"/>
      <point x="226" y="629" type="qcurve"/>
      <point x="214" y="629"/>
    </contour>
  </outline>
</glyph>
<glyph name="T" format="2">
  <advance width="676"/>
  <unicode hex="0054"/>
  <outline>
    <contour>
      <point x="53" y="614" type="line"/>
      <point x="53" y="766" type="line"/>
      <point x="629" y="766" type="line"/>
      <point x="629" y="614" type="line"/>
      <point x="417" y="614" type="line"/>
      <point x="417" y="-2" type="line"/>
      <point x="265" y="-2" type="line"/>
      <point x="265" y="614" type="line"/>
    </contour>
  </outline>
</glyph>
<glyph name="U" format="2">
  <advance width="669"/>
  <unicode hex="0055"/>
  <outline>
    <contour>
      <point x="616" y="184" type="line"/>
      <point x="600" y="126"/>
      <point x="511" y="43"/>
      <point x="399" y="4"/>
      <point x="271" y="3"/>
      <point x="158" y="41"/>
      <point x="70" y="125"/>
      <point x="53" y="184" type="qcurve"/>
      <point x="50" y="761" type="line"/>
      <point x="217" y="761" type="line"/>
      <point x="217" y="185" type="line"/>
      <point x="246" y="152"/>
      <point x="424" y="151"/>
      <point x="452" y="185" type="qcurve"/>
      <point x="452" y="761" type="line"/>
      <point x="619" y="761" type="line"/>
    </contour>
  </outline>
</glyph>
<glyph name="Y" format="2">
  <advance width="512"/>
  <unicode hex="0059"/>
  <outline>
    <contour>
      <point x="193" y="451" type="line"/>
      <point x="-6" y="765" type="line"/>
      <point x="146" y="765" type="line"/>
      <point x="270" y="594" type="line"/>
      <point x="394" y="765" type="line"/>
      <point x="546" y="765" type="line"/>
      <point x="346" y="450" type="line"/>
      <point x="345" y="450" type="line"/>
      <point x="345" y="1" type="line"/>
      <point x="193" y="1" type="line"/>
    </contour>
  </outline>
</glyph>
<glyph name="asciicircum" format="2">
  <advance width="644"/>
  <unicode hex="005E"/>
  <outline>
    <contour>
      <point x="121" y="283" type="line"/>
      <point x="264" y="617" type="line"/>
      <point x="265" y="617" type="line"/>
      <point x="416" y="617" type="line"/>
      <point x="417" y="617" type="line"/>
      <point x="523" y="283" type="line"/>
      <point x="371" y="283" type="line"/>
      <point x="329" y="497" type="line"/>
      <point x="273" y="283" type="line"/>
    </contour>
  </outline>
</glyph>
<glyph name="underscore" format="2">
  <advance width="544"/>
  <unicode hex="005F"/>
  <outline>
    <contour>
      <point x="544" y="196" type="line"/>
      <point x="544" y="44" type="line"/>
      <point x="0" y="44" type="line"/>
      <point x="0" y="196" type="line"/>
    </contour>
  </outline>
</glyph>
<glyph name="grave" format="2">
  <advance width="252"/>
  <unicode hex="0060"/>
  <outline>
    <contour>
      <point x="163" y="516" type="line"/>
      <point x="-19" y="698" type="line"/>
      <point x="89" y="805" type="line"/>
      <point x="271" y="623" type="line"/>
    </contour>
  </outline>
</glyph>
<glyph name="a" format="2">
  <advance width="512"/>
  <unicode hex="0061"/>
  <outline>
    <contour>
      <point x="332" y="1" type="line"/>
      <point x="332" y="9" type="line"/>
      <point x="324" y="8"/>
      <point x="308" y="8" type="qcurve"/>
      <point x="201" y="8"/>
      <point x="50" y="159"/>
      <point x="50" y="266" type="qcurve"/>
      <point x="50" y="372"/>
      <point x="200" y="515"/>
      <point x="308" y="515" type="qcurve"/>
      <point x="324" y="515"/>
      <point x="332" y="514" type="qcurve"/>
      <point x="484" y="514" type="line"/>
      <point x="484" y="1" type="line"/>
    </contour>
    <contour>
      <point x="332" y="369" type="line"/>
      <point x="320" y="372"/>
      <point x="308" y="372" type="qcurve"/>
      <point x="263" y="372"/>
      <point x="201" y="310"/>
      <point x="201" y="266" type="qcurve"/>
      <point x="201" y="221"/>
      <point x="263" y="159"/>
      <point x="308" y="159" type="qcurve"/>
      <point x="320" y="159"/>
      <point x="332" y="162" type="qcurve"/>
    </contour>
  </outline>
</glyph>
<glyph name="d" format="2">
  <advance width="534"/>
  <unicode hex="0064"/>
  <outline>
    <contour>
      <point x="332" y="157" type="qcurve"/>
      <point x="332" y="364" type="line"/>
      <point x="320" y="367"/>
      <point x="308" y="367" type="qcurve"/>
      <point x="263" y="367"/>
      <point x="201" y="305"/>
      <point x="201" y="260" type="qcurve"/>
      <point x="201" y="216"/>
      <point x="263" y="154"/>
      <point x="308" y="154" type="qcurve"/>
      <point x="320" y="154"/>
    </contour>
    <contour>
      <point x="332" y="780" type="line"/>
      <point x="484" y="780" type="line"/>
      <point x="484" y="4" type="line"/>
      <point x="332" y="4" type="line"/>
      <point x="320" y="3"/>
      <point x="308" y="3" type="qcurve"/>
      <point x="201" y="3"/>
      <point x="50" y="153"/>
      <point x="50" y="367"/>
      <point x="201" y="518"/>
      <point x="308" y="518" type="qcurve"/>
      <point x="320" y="518"/>
      <point x="332" y="517" type="qcurve"/>
    </contour>
  </outline>
</glyph>
<glyph name="f" format="2">
  <advance width="514"/>
  <unicode hex="0066"/>
  <outline>
    <contour>
      <point x="464" y="752" type="qcurve"/>
      <point x="464" y="584" type="line"/>
      <point x="433" y="610"/>
      <point x="393" y="610" type="qcurve"/>
      <point x="344" y="610"/>
      <point x="312" y="573" type="qcurve"/>
      <point x="312" y="511" type="line"/>
      <point x="409" y="511" type="line"/>
      <point x="409" y="359" type="line"/>
      <point x="312" y="359" type="line"/>
      <point x="312" y="-3" type="line"/>
      <point x="145" y="-3" type="line"/>
      <point x="147" y="359" type="line"/>
      <point x="50" y="359" type="line"/>
      <point x="50" y="511" type="line"/>
      <point x="148" y="511" type="line"/>
      <point x="148" y="574" type="line"/>
      <point x="172" y="657"/>
      <point x="306" y="761"/>
      <point x="393" y="761" type="qcurve"/>
      <point x="430" y="761"/>
    </contour>
  </outline>
</glyph>
<glyph name="g" format="2">
  <advance width="620"/>
  <unicode hex="0067"/>
  <outline>
    <contour>
      <point x="310" y="367" type="qcurve"/>
      <point x="297" y="367"/>
      <point x="286" y="364" type="qcurve"/>
      <point x="286" y="365" type="line"/>
      <point x="249" y="357"/>
      <point x="201" y="299"/>
      <point x="201" y="260" type="qcurve"/>
      <point x="201" y="222"/>
      <point x="249" y="164"/>
      <point x="286" y="156" type="qcurve"/>
      <point x="286" y="157" type="line"/>
      <point x="297" y="154"/>
      <point x="310" y="154" type="qcurve"/>
      <point x="322" y="154"/>
      <point x="334" y="157" type="qcurve"/>
      <point x="334" y="156" type="line"/>
      <point x="371" y="164"/>
      <point x="419" y="222"/>
      <point x="419" y="260" type="qcurve"/>
      <point x="419" y="299"/>
      <point x="371" y="357"/>
      <point x="334" y="365" type="qcurve"/>
      <point x="334" y="364" type="line"/>
      <point x="322" y="367"/>
    </contour>
    <contour>
      <point x="309" y="3" type="qcurve"/>
      <point x="308" y="3"/>
      <point x="308" y="3" type="qcurve"/>
      <point x="306" y="3"/>
      <point x="304" y="3" type="qcurve"/>
      <point x="304" y="3"/>
      <point x="300" y="3" type="qcurve"/>
      <point x="263" y="3"/>
      <point x="259" y="4" type="qcurve"/>
      <point x="161" y="11"/>
      <point x="50" y="154"/>
      <point x="50" y="260" type="qcurve"/>
      <point x="50" y="362"/>
      <point x="189" y="511"/>
      <point x="290" y="517" type="qcurve"/>
      <point x="296" y="518"/>
      <point x="304" y="518" type="qcurve"/>
      <point x="306" y="518"/>
      <point x="308" y="518" type="qcurve"/>
      <point x="308" y="518"/>
      <point x="309" y="518" type="qcurve"/>
      <point x="310" y="518"/>
      <point x="312" y="518" type="qcurve"/>
      <point x="419" y="518"/>
      <point x="570" y="368"/>
      <point x="570" y="261" type="qcurve"/>
      <point x="570" y="261" type="line"/>
      <point x="570" y="260"/>
      <point x="570" y="260" type="qcurve"/>
      <point x="570" y="257"/>
      <point x="570" y="253" type="qcurve"/>
      <point x="567" y="-18" type="line"/>
      <point x="543" y="-101"/>
      <point x="412" y="-205"/>
      <point x="325" y="-205" type="qcurve"/>
      <point x="154" y="-205"/>
      <point x="120" y="-196" type="qcurve"/>
      <point x="120" y="-28" type="line"/>
      <point x="132" y="-38"/>
      <point x="290" y="-54"/>
      <point x="325" y="-54" type="qcurve"/>
      <point x="351" y="-54"/>
      <point x="404" y="-34"/>
      <point x="419" y="-17" type="qcurve"/>
      <point x="419" y="26" type="line"/>
      <point x="368" y="3"/>
      <point x="312" y="3" type="qcurve"/>
      <point x="310" y="3"/>
    </contour>
  </outline>
</glyph>
<glyph name="h" format="2">
  <advance width="597"/>
  <unicode hex="0068"/>
  <outline>
    <contour>
      <point x="50" y="768" type="line"/>
      <point x="219" y="768" type="line"/>
      <point x="219" y="512" type="line"/>
      <point x="258" y="524"/>
      <point x="299" y="524" type="qcurve"/>
      <point x="386" y="524"/>
      <point x="520" y="420"/>
      <point x="544" y="337" type="qcurve"/>
      <point x="547" y="6" type="line"/>
      <point x="380" y="6" type="line"/>
      <point x="380" y="336" type="line"/>
      <point x="348" y="373"/>
      <point x="299" y="373" type="qcurve"/>
      <point x="251" y="373"/>
      <point x="219" y="338" type="qcurve"/>
      <point x="219" y="6" type="line"/>
      <point x="50" y="6" type="line"/>
    </contour>
  </outline>
</glyph>
<glyph name="k" format="2">
  <advance width="753"/>
  <unicode hex="006B"/>
  <outline>
    <contour>
      <point x="61" y="752" type="line"/>
      <point x="202" y="752" type="line"/>
      <point x="202" y="317" type="line"/>
      <point x="447" y="514" type="line"/>
      <point x="640" y="512" type="line"/>
      <point x="379" y="284" type="line"/>
      <point x="649" y="-3" type="line"/>
      <point x="463" y="-2" type="line"/>
      <point x="259" y="226" type="line"/>
      <point x="202" y="154" type="line"/>
      <point x="202" y="-2" type="line"/>
      <point x="61" y="-2" type="line"/>
    </contour>
  </outline>
</glyph>
<glyph name="m" format="2">
  <advance width="924"/>
  <unicode hex="006D"/>
  <outline>
    <contour>
      <point x="50" y="522" type="line"/>
      <point x="219" y="522" type="line"/>
      <point x="219" y="512" type="line"/>
      <point x="258" y="524"/>
      <point x="299" y="524" type="qcurve"/>
      <point x="389" y="524"/>
      <point x="458" y="468" type="qcurve"/>
      <point x="546" y="512" type="line"/>
      <point x="585" y="524"/>
      <point x="626" y="524" type="qcurve"/>
      <point x="713" y="524"/>
      <point x="847" y="420"/>
      <point x="871" y="337" type="qcurve"/>
      <point x="874" y="6" type="line"/>
      <point x="707" y="6" type="line"/>
      <point x="707" y="336" type="line"/>
      <point x="675" y="373"/>
      <point x="626" y="373" type="qcurve"/>
      <point x="578" y="373"/>
      <point x="546" y="338" type="qcurve"/>
      <point x="546" y="116" type="line"/>
      <point x="547" y="6" type="line"/>
      <point x="546" y="6" type="line"/>
      <point x="380" y="6" type="line"/>
      <point x="377" y="6" type="line"/>
      <point x="380" y="323" type="line"/>
      <point x="380" y="336" type="line"/>
      <point x="348" y="373"/>
      <point x="299" y="373" type="qcurve"/>
      <point x="251" y="373"/>
      <point x="219" y="338" type="qcurve"/>
      <point x="219" y="6" type="line"/>
      <point x="50" y="6" type="line"/>
    </contour>
  </outline>
</glyph>
<glyph name="p" format="2">
  <advance width="512"/>
  <unicode hex="0070"/>
  <outline>
    <contour>
      <point x="202" y="-202" type="line"/>
      <point x="50" y="-202" type="line"/>
      <point x="50" y="509" type="line"/>
      <point x="202" y="509" type="line"/>
      <point x="210" y="510"/>
      <point x="226" y="510" type="qcurve"/>
      <point x="333" y="510"/>
      <point x="484" y="360"/>
      <point x="484" y="146"/>
      <point x="333" y="-5"/>
      <point x="226" y="-5" type="qcurve"/>
      <point x="210" y="-5"/>
      <point x="202" y="-4" type="qcurve"/>
    </contour>
    <contour>
      <point x="202" y="356" type="qcurve"/>
      <point x="202" y="149" type="line"/>
      <point x="214" y="146"/>
      <point x="226" y="146" type="qcurve"/>
      <point x="271" y="146"/>
      <point x="333" y="208"/>
      <point x="333" y="253" type="qcurve"/>
      <point x="333" y="297"/>
      <point x="271" y="359"/>
      <point x="226" y="359" type="qcurve"/>
      <point x="214" y="359"/>
    </contour>
  </outline>
</glyph>
<glyph name="q" format="2">
  <advance width="534"/>
  <unicode hex="0071"/>
  <outline>
    <contour>
      <point x="332" y="356" type="line"/>
      <point x="320" y="359"/>
      <point x="308" y="359" type="qcurve"/>
      <point x="263" y="359"/>
      <point x="201" y="297"/>
      <point x="201" y="253" type="qcurve"/>
      <point x="201" y="208"/>
      <point x="263" y="146"/>
      <point x="308" y="146" type="qcurve"/>
      <point x="320" y="146"/>
      <point x="332" y="149" type="qcurve"/>
    </contour>
    <contour>
      <point x="332" y="-202" type="line"/>
      <point x="332" y="-4" type="line"/>
      <point x="324" y="-5"/>
      <point x="308" y="-5" type="qcurve"/>
      <point x="201" y="-5"/>
      <point x="50" y="146"/>
      <point x="50" y="360"/>
      <point x="201" y="510"/>
      <point x="308" y="510" type="qcurve"/>
      <point x="324" y="510"/>
      <point x="332" y="509" type="qcurve"/>
      <point x="484" y="509" type="line"/>
      <point x="484" y="-202" type="line"/>
    </contour>
  </outline>
</glyph>
<glyph name="r" format="2">
  <advance width="587"/>
  <unicode hex="0072"/>
  <outline>
    <contour>
      <point x="50" y="522" type="line"/>
      <point x="219" y="522" type="line"/>
      <point x="219" y="512" type="line"/>
      <point x="258" y="524"/>
      <point x="299" y="524" type="qcurve"/>
      <point x="379" y="524"/>
      <point x="508" y="422"/>
      <point x="537" y="345" type="qcurve"/>
      <point x="372" y="345" type="line"/>
      <point x="372" y="344" type="line"/>
      <point x="341" y="373"/>
      <point x="299" y="373" type="qcurve"/>
      <point x="251" y="373"/>
      <point x="219" y="338" type="qcurve"/>
      <point x="219" y="6" type="line"/>
      <point x="50" y="6" type="line"/>
    </contour>
  </outline>
</glyph>
<glyph name="s" format="2">
  <advance width="508"/>
  <unicode hex="0073"/>
  <outline>
    <contour>
      <point x="69.3916" y="47" type="qcurve"/>
      <point x="136.392" y="159" type="line"/>
      <point x="143.392" y="152"/>
      <point x="158.392" y="147" type="qcurve"/>
      <point x="198.392" y="130"/>
      <point x="261.392" y="138"/>
      <point x="281.392" y="162" type="qcurve"/>
      <point x="304.392" y="189"/>
      <point x="259.392" y="201" type="qcurve"/>
      <point x="247.392" y="204"/>
      <point x="205.392" y="211" type="qcurve"/>
      <point x="139.392" y="237"/>
      <point x="59.3916" y="306"/>
      <point x="43.3916" y="390"/>
      <point x="81.3916" y="434" type="qcurve"/>
      <point x="128.392" y="491"/>
      <point x="328.392" y="514"/>
      <point x="424.392" y="473" type="qcurve"/>
      <point x="442.392" y="465"/>
      <point x="446.392" y="462" type="qcurve"/>
      <point x="379.392" y="332" type="line"/>
      <point x="365.392" y="341"/>
      <point x="357.392" y="344" type="qcurve"/>
      <point x="316.392" y="360"/>
      <point x="276.392" y="352"/>
      <point x="256.392" y="328" type="qcurve"/>
      <point x="231.392" y="302"/>
      <point x="240.392" y="283"/>
      <point x="287.392" y="275" type="qcurve"/>
      <point x="326.392" y="258"/>
      <point x="384.392" y="229"/>
      <point x="437.392" y="189"/>
      <point x="460.392" y="150"/>
      <point x="455.392" y="101"/>
      <point x="433.392" y="75" type="qcurve"/>
      <point x="386.392" y="18"/>
      <point x="186.392" y="-7"/>
      <point x="91.3916" y="34" type="qcurve"/>
      <point x="83.3916" y="36"/>
    </contour>
  </outline>
</glyph>
<glyph name="v" format="2">
  <advance width="652"/>
  <unicode hex="0076"/>
  <outline>
    <contour>
      <point x="50" y="511" type="line"/>
      <point x="202" y="511" type="line"/>
      <point x="326" y="144" type="line"/>
      <point x="450" y="511" type="line"/>
      <point x="602" y="511" type="line"/>
      <point x="402" y="0" type="line"/>
      <point x="250" y="0" type="line"/>
    </contour>
  </outline>
</glyph>
<glyph name="x" format="2">
  <advance width="724"/>
  <unicode hex="0078"/>
  <outline>
    <contour>
      <point x="50" y="513" type="line"/>
      <point x="236" y="511" type="line"/>
      <point x="365" y="360" type="line"/>
      <point x="498" y="512" type="line"/>
      <point x="673" y="511" type="line"/>
      <point x="453" y="258" type="line"/>
      <point x="674" y="0" type="line"/>
      <point x="499" y="-2" type="line"/>
      <point x="362" y="155" type="line"/>
      <point x="229" y="2" type="line"/>
      <point x="51" y="-1" type="line"/>
      <point x="274" y="256" type="line"/>
    </contour>
  </outline>
</glyph>
<glyph name="y" format="2">
  <advance width="652"/>
  <unicode hex="0079"/>
  <outline>
    <contour>
      <point x="50" y="511" type="line"/>
      <point x="221" y="511" type="line"/>
      <point x="345" y="144" type="line"/>
      <point x="450" y="511" type="line"/>
      <point x="635" y="514" type="line"/>
      <point x="356" y="-200" type="line"/>
      <point x="208" y="-204" type="line"/>
      <point x="277" y="0" type="line"/>
    </contour>
  </outline>
</glyph>
<glyph name="braceleft" format="2">
  <advance width="419"/>
  <unicode hex="007B"/>
  <outline>
    <contour>
      <point x="451" y="-85" type="line"/>
      <point x="436" y="-92"/>
      <point x="414" y="-92" type="qcurve"/>
      <point x="370" y="-92"/>
      <point x="301" y="-8"/>
      <point x="289" y="58" type="qcurve"/>
      <point x="288" y="228" type="line"/>
      <point x="179" y="358" type="line"/>
      <point x="288" y="485" type="line"/>
      <point x="289" y="655" type="line"/>
      <point x="301" y="721"/>
      <point x="370" y="805"/>
      <point x="414" y="805" type="qcurve"/>
      <point x="436" y="805"/>
      <point x="451" y="798" type="qcurve"/>
      <point x="451" y="663" type="line"/>
      <point x="435" y="684"/>
      <point x="414" y="684" type="qcurve"/>
      <point x="390" y="684"/>
      <point x="373" y="654" type="qcurve"/>
      <point x="374" y="470" type="line"/>
      <point x="292" y="369" type="line"/>
      <point x="373" y="228" type="line"/>
      <point x="373" y="58" type="line"/>
      <point x="389" y="29"/>
      <point x="414" y="29" type="qcurve"/>
      <point x="435" y="29"/>
      <point x="451" y="50" type="qcurve"/>
    </contour>
  </outline>
</glyph>
<glyph name="braceright" format="2">
  <advance width="372"/>
  <unicode hex="007D"/>
  <outline>
    <contour>
      <point x="50" y="-85" type="qcurve"/>
      <point x="50" y="50" type="line"/>
      <point x="66" y="29"/>
      <point x="87" y="29" type="qcurve"/>
      <point x="112" y="29"/>
      <point x="128" y="58" type="qcurve"/>
      <point x="128" y="228" type="line"/>
      <point x="209" y="369" type="line"/>
      <point x="127" y="470" type="line"/>
      <point x="128" y="654" type="line"/>
      <point x="111" y="684"/>
      <point x="87" y="684" type="qcurve"/>
      <point x="66" y="684"/>
      <point x="50" y="663" type="qcurve"/>
      <point x="50" y="798" type="line"/>
      <point x="65" y="805"/>
      <point x="87" y="805" type="qcurve"/>
      <point x="131" y="805"/>
      <point x="200" y="721"/>
      <point x="212" y="655" type="qcurve"/>
      <point x="213" y="485" type="line"/>
      <point x="322" y="358" type="line"/>
      <point x="213" y="228" type="line"/>
      <point x="212" y="58" type="line"/>
      <point x="200" y="-8"/>
      <point x="131" y="-92"/>
      <point x="87" y="-92" type="qcurve"/>
      <point x="65" y="-92"/>
    </contour>
  </outline>
</glyph>
<glyph name="asciitilde" format="2">
  <advance width="644"/>
  <unicode hex="007E"/>
  <outline>
    <contour>
      <point x="549" y="577" type="line"/>
      <point x="549" y="425" type="line"/>
      <point x="548" y="421"/>
      <point x="517" y="385"/>
      <point x="453" y="344"/>
      <point x="421" y="344" type="qcurve"/>
      <point x="321" y="344" type="line"/>
      <point x="289" y="344"/>
      <point x="200" y="400"/>
      <point x="168" y="400" type="qcurve"/>
      <point x="145" y="400"/>
      <point x="86" y="372"/>
      <point x="68" y="358" type="qcurve"/>
      <point x="50" y="344" type="line"/>
      <point x="50" y="496" type="line"/>
      <point x="114" y="552"/>
      <point x="164" y="552" type="qcurve"/>
      <point x="197" y="552"/>
      <point x="291" y="497"/>
      <point x="324" y="497" type="qcurve"/>
      <point x="369" y="497"/>
      <point x="413" y="497" type="qcurve"/>
      <point x="444" y="497"/>
      <point x="512" y="537"/>
      <point x="530" y="557" type="qcurve"/>
    </contour>
  </outline>
</glyph>
<glyph name="cent" format="2">
  <advance width="384"/>
  <unicode hex="00A2"/>
  <outline>
    <contour>
      <point x="334" y="4" type="line"/>
      <point x="321" y="3"/>
      <point x="308" y="3" type="qcurve"/>
      <point x="296" y="3"/>
      <point x="285" y="4" type="qcurve"/>
      <point x="285" y="-99" type="line"/>
      <point x="238" y="-99" type="line"/>
      <point x="238" y="13" type="line"/>
      <point x="156" y="35"/>
      <point x="50" y="172"/>
      <point x="50" y="260" type="qcurve"/>
      <point x="50" y="348"/>
      <point x="156" y="485"/>
      <point x="238" y="508" type="qcurve"/>
      <point x="238" y="700" type="line"/>
      <point x="285" y="700" type="line"/>
      <point x="285" y="517" type="line"/>
      <point x="296" y="518"/>
      <point x="308" y="518" type="qcurve"/>
      <point x="321" y="518"/>
      <point x="334" y="517" type="qcurve"/>
      <point x="334" y="364" type="line"/>
      <point x="321" y="367"/>
      <point x="308" y="367" type="qcurve"/>
      <point x="296" y="367"/>
      <point x="285" y="365" type="qcurve"/>
      <point x="285" y="156" type="line"/>
      <point x="296" y="154"/>
      <point x="308" y="154" type="qcurve"/>
      <point x="321" y="154"/>
      <point x="334" y="157" type="qcurve"/>
    </contour>
    <contour>
      <point x="238" y="342" type="line"/>
      <point x="201" y="310"/>
      <point x="201" y="260" type="qcurve"/>
      <point x="201" y="211"/>
      <point x="238" y="179" type="qcurve"/>
    </contour>
  </outline>
</glyph>
<glyph name="sterling" format="2">
  <advance width="772"/>
  <unicode hex="00A3"/>
  <outline>
    <contour>
      <point x="758" y="318" type="line"/>
      <point x="766" y="284"/>
      <point x="766" y="248" type="qcurve"/>
      <point x="766" y="160"/>
      <point x="662" y="26"/>
      <point x="580" y="2" type="qcurve"/>
      <point x="2" y="0" type="line"/>
      <point x="2" y="166" type="line"/>
      <point x="578" y="166" type="line"/>
      <point x="616" y="198"/>
      <point x="616" y="248" type="qcurve"/>
      <point x="616" y="288"/>
      <point x="590" y="318" type="qcurve"/>
    </contour>
    <contour>
      <point x="464" y="752" type="qcurve"/>
      <point x="464" y="584" type="line"/>
      <point x="433" y="610"/>
      <point x="393" y="610" type="qcurve"/>
      <point x="344" y="610"/>
      <point x="312" y="573" type="qcurve"/>
      <point x="312" y="511" type="line"/>
      <point x="409" y="511" type="line"/>
      <point x="409" y="359" type="line"/>
      <point x="312" y="359" type="line"/>
      <point x="312" y="-3" type="line"/>
      <point x="145" y="-3" type="line"/>
      <point x="147" y="359" type="line"/>
      <point x="50" y="359" type="line"/>
      <point x="50" y="511" type="line"/>
      <point x="148" y="511" type="line"/>
      <point x="148" y="574" type="line"/>
      <point x="172" y="657"/>
      <point x="306" y="761"/>
      <point x="393" y="761" type="qcurve"/>
      <point x="430" y="761"/>
    </contour>
  </outline>
</glyph>
<glyph name="section" format="2">
  <advance width="512"/>
  <unicode hex="00A7"/>
  <outline>
    <contour>
      <point x="-25" y="108" type="qcurve"/>
      <point x="50" y="233" type="line"/>
      <point x="62" y="223"/>
      <point x="72" y="218" type="qcurve"/>
      <point x="110" y="196"/>
      <point x="194" y="217"/>
      <point x="217" y="253" type="qcurve"/>
      <point x="239" y="292"/>
      <point x="190" y="359"/>
      <point x="147" y="366" type="qcurve"/>
      <point x="80" y="402"/>
      <point x="-1" y="496"/>
      <point x="-22" y="621"/>
      <point x="21" y="690" type="qcurve"/>
      <point x="73" y="777"/>
      <point x="279" y="828"/>
      <point x="373" y="778" type="qcurve"/>
      <point x="376" y="775"/>
      <point x="391" y="766"/>
      <point x="394" y="763" type="qcurve"/>
      <point x="319" y="638" type="line"/>
      <point x="307" y="648"/>
      <point x="297" y="653" type="qcurve"/>
      <point x="259" y="674"/>
      <point x="174" y="653"/>
      <point x="152" y="616" type="qcurve"/>
      <point x="127" y="575"/>
      <point x="168" y="477"/>
      <point x="216" y="469" type="qcurve"/>
      <point x="265" y="443"/>
      <point x="332" y="390"/>
      <point x="381" y="319"/>
      <point x="378" y="231"/>
      <point x="347" y="181" type="qcurve"/>
      <point x="295" y="93"/>
      <point x="90" y="42"/>
      <point x="-4" y="93" type="qcurve"/>
      <point x="-7" y="96"/>
      <point x="-22" y="105"/>
    </contour>
    <contour>
      <point x="55" y="457" type="qcurve"/>
      <point x="130" y="582" type="line"/>
      <point x="142" y="572"/>
      <point x="152" y="567" type="qcurve"/>
      <point x="190" y="545"/>
      <point x="274" y="566"/>
      <point x="297" y="602" type="qcurve"/>
      <point x="319" y="641"/>
      <point x="270" y="708"/>
      <point x="227" y="715" type="qcurve"/>
      <point x="160" y="751"/>
      <point x="79" y="845"/>
      <point x="58" y="970"/>
      <point x="101" y="1039" type="qcurve"/>
      <point x="153" y="1126"/>
      <point x="359" y="1177"/>
      <point x="453" y="1127" type="qcurve"/>
      <point x="456" y="1124"/>
      <point x="471" y="1115"/>
      <point x="474" y="1112" type="qcurve"/>
      <point x="399" y="987" type="line"/>
      <point x="387" y="997"/>
      <point x="377" y="1002" type="qcurve"/>
      <point x="339" y="1023"/>
      <point x="254" y="1002"/>
      <point x="232" y="965" type="qcurve"/>
      <point x="207" y="924"/>
      <point x="248" y="826"/>
      <point x="296" y="818" type="qcurve"/>
      <point x="345" y="792"/>
      <point x="412" y="739"/>
      <point x="461" y="668"/>
      <point x="458" y="580"/>
      <point x="427" y="530" type="qcurve"/>
      <point x="375" y="442"/>
      <point x="170" y="391"/>
      <point x="76" y="442" type="qcurve"/>
      <point x="73" y="445"/>
      <point x="58" y="454"/>
    </contour>
  </outline>
</glyph>
<glyph name="registered" format="2">
  <advance width="656"/>
  <unicode hex="00AE"/>
  <outline>
    <contour>
      <point x="563" y="379" type="qcurve"/>
      <point x="563" y="478"/>
      <point x="426" y="618"/>
      <point x="230" y="618"/>
      <point x="93" y="478"/>
      <point x="93" y="379" type="qcurve"/>
      <point x="93" y="279"/>
      <point x="230" y="138"/>
      <point x="426" y="138"/>
      <point x="563" y="279"/>
    </contour>
    <contour>
      <point x="606" y="380" type="qcurve"/>
      <point x="606" y="261"/>
      <point x="443" y="93"/>
      <point x="213" y="93"/>
      <point x="50" y="261"/>
      <point x="50" y="380" type="qcurve"/>
      <point x="50" y="499"/>
      <point x="213" y="666"/>
      <point x="443" y="666"/>
      <point x="606" y="499"/>
    </contour>
    <contour>
      <point x="291" y="246" type="line"/>
      <point x="236" y="246" type="line"/>
      <point x="236" y="528" type="line"/>
      <point x="291" y="528" type="line"/>
      <point x="294" y="529"/>
      <point x="300" y="529" type="qcurve"/>
      <point x="339" y="529"/>
      <point x="394" y="474"/>
      <point x="394" y="435" type="qcurve"/>
      <point x="394" y="405"/>
      <point x="359" y="356"/>
      <point x="332" y="347" type="qcurve"/>
      <point x="404" y="243" type="line"/>
      <point x="353" y="243" type="line"/>
      <point x="293" y="341" type="line"/>
      <point x="292" y="341"/>
      <point x="291" y="341" type="qcurve"/>
    </contour>
    <contour>
      <point x="291" y="473" type="qcurve"/>
      <point x="291" y="397" type="line"/>
      <point x="296" y="396"/>
      <point x="300" y="396" type="qcurve"/>
      <point x="316" y="396"/>
      <point x="339" y="419"/>
      <point x="339" y="435" type="qcurve"/>
      <point x="339" y="451"/>
      <point x="316" y="474"/>
      <point x="300" y="474" type="qcurve"/>
      <point x="296" y="474"/>
    </contour>
  </outline>
</glyph>
<glyph name="mu" format="2">
  <advance width="597"/>
  <unicode hex="00B5"/>
  <outline>
    <contour>
      <point x="50" y="-189" type="line"/>
      <point x="50" y="524" type="line"/>
      <point x="219" y="524" type="line"/>
      <point x="219" y="192" type="line"/>
      <point x="251" y="157"/>
      <point x="299" y="157" type="qcurve"/>
      <point x="348" y="157"/>
      <point x="380" y="194" type="qcurve"/>
      <point x="380" y="524" type="line"/>
      <point x="547" y="524" type="line"/>
      <point x="544" y="193" type="line"/>
      <point x="520" y="110"/>
      <point x="386" y="6"/>
      <point x="299" y="6" type="qcurve"/>
      <point x="258" y="6"/>
      <point x="219" y="18" type="qcurve"/>
      <point x="219" y="-189" type="line"/>
    </contour>
  </outline>
</glyph>
<glyph name="Eth" format="2">
  <advance width="690"/>
  <unicode hex="00D0"/>
  <outline>
    <contour>
      <point x="262" y="143" type="line"/>
      <point x="356" y="145"/>
      <point x="487" y="282"/>
      <point x="487" y="378" type="qcurve"/>
      <point x="487" y="474"/>
      <point x="356" y="610"/>
      <point x="262" y="612" type="qcurve"/>
      <point x="262" y="496" type="line"/>
      <point x="321" y="496" type="line"/>
      <point x="321" y="344" type="line"/>
      <point x="262" y="344" type="line"/>
    </contour>
    <contour>
      <point x="110" y="768" type="line"/>
      <point x="125" y="763"/>
      <point x="243" y="773"/>
      <point x="258" y="773" type="qcurve"/>
      <point x="416" y="773"/>
      <point x="640" y="543"/>
      <point x="640" y="380" type="qcurve"/>
      <point x="640" y="273"/>
      <point x="539" y="93"/>
      <point x="365" y="-13"/>
      <point x="262" y="-14" type="qcurve"/>
      <point x="110" y="-14" type="line"/>
      <point x="110" y="344" type="line"/>
      <point x="50" y="344" type="line"/>
      <point x="50" y="496" type="line"/>
      <point x="110" y="496" type="line"/>
    </contour>
  </outline>
</glyph>
<glyph name="Oslash" format="2">
  <advance width="864"/>
  <unicode hex="00D8"/>
  <outline>
    <contour>
      <point x="599" y="538" type="qcurve"/>
      <point x="375" y="150" type="line"/>
      <point x="403" y="143"/>
      <point x="432" y="143" type="qcurve"/>
      <point x="527" y="143"/>
      <point x="661" y="280"/>
      <point x="661" y="378" type="qcurve"/>
      <point x="661" y="471"/>
    </contour>
    <contour>
      <point x="495" y="603" type="line"/>
      <point x="464" y="612"/>
      <point x="432" y="612" type="qcurve"/>
      <point x="337" y="612"/>
      <point x="203" y="475"/>
      <point x="203" y="281"/>
      <point x="269" y="212" type="qcurve"/>
    </contour>
    <contour>
      <point x="814" y="380" type="qcurve"/>
      <point x="814" y="217"/>
      <point x="590" y="-14"/>
      <point x="432" y="-14" type="qcurve"/>
      <point x="361" y="-14"/>
      <point x="295" y="12" type="qcurve"/>
      <point x="240" y="-83" type="line"/>
      <point x="134" y="-22" type="line"/>
      <point x="190" y="75" type="line"/>
      <point x="125" y="130"/>
      <point x="50" y="289"/>
      <point x="50" y="380" type="qcurve"/>
      <point x="50" y="543"/>
      <point x="274" y="773"/>
      <point x="432" y="773" type="qcurve"/>
      <point x="507" y="773"/>
      <point x="576" y="744" type="qcurve"/>
      <point x="619" y="818" type="line"/>
      <point x="725" y="757" type="line"/>
      <point x="680" y="679" type="line"/>
      <point x="743" y="624"/>
      <point x="814" y="468"/>
    </contour>
  </outline>
</glyph>
<glyph name="germandbls" format="2">
  <advance width="771"/>
  <unicode hex="00DF"/>
  <outline>
    <contour>
      <point x="239" y="47" type="qcurve"/>
      <point x="306" y="159" type="line"/>
      <point x="313" y="152"/>
      <point x="328" y="147" type="qcurve"/>
      <point x="368" y="130"/>
      <point x="431" y="138"/>
      <point x="451" y="162" type="qcurve"/>
      <point x="474" y="189"/>
      <point x="429" y="201" type="qcurve"/>
      <point x="417" y="204"/>
      <point x="375" y="211" type="qcurve"/>
      <point x="309" y="237"/>
      <point x="229" y="306"/>
      <point x="213" y="390"/>
      <point x="251" y="434" type="qcurve"/>
      <point x="259" y="444"/>
      <point x="293" y="488"/>
      <point x="311" y="509"/>
      <point x="344" y="542"/>
      <point x="372" y="555"/>
      <point x="411" y="566"/>
      <point x="456" y="559"/>
      <point x="482" y="549" type="qcurve"/>
      <point x="483" y="549"/>
      <point x="484" y="549" type="qcurve"/>
      <point x="529" y="549"/>
      <point x="591" y="611"/>
      <point x="591" y="656" type="qcurve"/>
      <point x="591" y="686"/>
      <point x="400" y="718"/>
      <point x="194" y="707"/>
      <point x="173" y="683" type="qcurve"/>
      <point x="173" y="2" type="line"/>
      <point x="6" y="2" type="line"/>
      <point x="9" y="684" type="line"/>
      <point x="33" y="767"/>
      <point x="100" y="819" type="qcurve"/>
      <point x="141" y="851"/>
      <point x="299" y="876"/>
      <point x="475" y="856"/>
      <point x="636" y="807"/>
      <point x="742" y="713"/>
      <point x="742" y="656" type="qcurve"/>
      <point x="742" y="579"/>
      <point x="719" y="485"/>
      <point x="679" y="447"/>
      <point x="629" y="437"/>
      <point x="568" y="444"/>
      <point x="510" y="448"/>
      <point x="448" y="427"/>
      <point x="426" y="400" type="qcurve"/>
      <point x="410" y="382"/>
      <point x="401" y="328"/>
      <point x="427" y="280"/>
      <point x="457" y="275" type="qcurve"/>
      <point x="496" y="258"/>
      <point x="554" y="229"/>
      <point x="607" y="189"/>
      <point x="630" y="150"/>
      <point x="625" y="101"/>
      <point x="603" y="75" type="qcurve"/>
      <point x="556" y="18"/>
      <point x="356" y="-7"/>
      <point x="261" y="34" type="qcurve"/>
      <point x="253" y="36"/>
    </contour>
  </outline>
</glyph>
<glyph name="oslash" format="2">
  <advance width="616"/>
  <unicode hex="00F8"/>
  <outline>
    <contour>
      <point x="50" y="260" type="qcurve"/>
      <point x="50" y="367"/>
      <point x="199" y="518"/>
      <point x="308" y="518" type="qcurve"/>
      <point x="308" y="518"/>
      <point x="309" y="518" type="qcurve"/>
      <point x="310" y="518"/>
      <point x="312" y="518" type="qcurve"/>
      <point x="351" y="518"/>
      <point x="388" y="507" type="qcurve"/>
      <point x="458" y="625" type="line"/>
      <point x="564" y="564" type="line"/>
      <point x="493" y="444" type="line"/>
      <point x="570" y="368"/>
      <point x="570" y="260" type="qcurve"/>
      <point x="570" y="153"/>
      <point x="419" y="3"/>
      <point x="312" y="3" type="qcurve"/>
      <point x="311" y="3"/>
      <point x="309" y="3"/>
      <point x="309" y="3" type="qcurve"/>
      <point x="309" y="3"/>
      <point x="308" y="3" type="qcurve"/>
      <point x="273" y="3"/>
      <point x="240" y="12" type="qcurve"/>
      <point x="184" y="-83" type="line"/>
      <point x="78" y="-22" type="line"/>
      <point x="133" y="71" type="line"/>
      <point x="94" y="107"/>
      <point x="50" y="205"/>
    </contour>
    <contour>
      <point x="306" y="367" type="line"/>
      <point x="295" y="366"/>
      <point x="286" y="364" type="qcurve"/>
      <point x="286" y="365" type="line"/>
      <point x="249" y="357"/>
      <point x="201" y="299"/>
      <point x="201" y="260" type="qcurve"/>
      <point x="201" y="233"/>
      <point x="214" y="209" type="qcurve"/>
    </contour>
    <contour>
      <point x="324" y="155" type="line"/>
      <point x="329" y="156"/>
      <point x="334" y="157" type="qcurve"/>
      <point x="334" y="156" type="line"/>
      <point x="371" y="164"/>
      <point x="419" y="222"/>
      <point x="419" y="260" type="qcurve"/>
      <point x="419" y="282"/>
      <point x="410" y="303" type="qcurve"/>
    </contour>
  </outline>
</glyph>
<glyph name="thorn" format="2">
  <advance width="512"/>
  <unicode hex="00FE"/>
  <outline>
    <contour>
      <point x="202" y="-199" type="line"/>
      <point x="50" y="-199" type="line"/>
      <point x="50" y="701" type="line"/>
      <point x="197" y="701" type="line"/>
      <point x="202" y="512" type="line"/>
      <point x="210" y="513"/>
      <point x="226" y="513" type="qcurve"/>
      <point x="333" y="513"/>
      <point x="484" y="363"/>
      <point x="484" y="149"/>
      <point x="333" y="-2"/>
      <point x="226" y="-2" type="qcurve"/>
      <point x="210" y="-2"/>
      <point x="202" y="-1" type="qcurve"/>
    </contour>
    <contour>
      <point x="202" y="359" type="qcurve"/>
      <point x="202" y="152" type="line"/>
      <point x="214" y="149"/>
      <point x="226" y="149" type="qcurve"/>
      <point x="271" y="149"/>
      <point x="333" y="211"/>
      <point x="333" y="256" type="qcurve"/>
      <point x="333" y="300"/>
      <point x="271" y="362"/>
      <point x="226" y="362" type="qcurve"/>
      <point x="214" y="362"/>
    </contour>
  </outline>
</glyph>
<glyph name="dcaron" format="2">
  <advance width="718"/>
  <unicode hex="010F"/>
  <outline>
    <contour>
      <point x="332" y="157" type="qcurve"/>
      <point x="332" y="364" type="line"/>
      <point x="320" y="367"/>
      <point x="308" y="367" type="qcurve"/>
      <point x="263" y="367"/>
      <point x="201" y="305"/>
      <point x="201" y="260" type="qcurve"/>
      <point x="201" y="216"/>
      <point x="263" y="154"/>
      <point x="308" y="154" type="qcurve"/>
      <point x="320" y="154"/>
    </contour>
    <contour>
      <point x="332" y="780" type="line"/>
      <point x="484" y="780" type="line"/>
      <point x="484" y="4" type="line"/>
      <point x="332" y="4" type="line"/>
      <point x="320" y="3"/>
      <point x="308" y="3" type="qcurve"/>
      <point x="201" y="3"/>
      <point x="50" y="153"/>
      <point x="50" y="367"/>
      <point x="201" y="518"/>
      <point x="308" y="518" type="qcurve"/>
      <point x="320" y="518"/>
      <point x="332" y="517" type="qcurve"/>
    </contour>
    <contour>
      <point x="516" y="532" type="line"/>
      <point x="516" y="789" type="line"/>
      <point x="668" y="789" type="line"/>
      <point x="623" y="532" type="line"/>
    </contour>
  </outline>
</glyph>
<glyph name="Hbar" format="2">
  <advance width="652"/>
  <unicode hex="0126"/>
  <outline>
    <contour>
      <point x="450" y="774" type="line"/>
      <point x="602" y="774" type="line"/>
      <point x="602" y="713" type="line"/>
      <point x="647" y="713" type="line"/>
      <point x="647" y="561" type="line"/>
      <point x="602" y="561" type="line"/>
      <point x="602" y="-2" type="line"/>
      <point x="450" y="-2" type="line"/>
      <point x="450" y="333" type="line"/>
      <point x="202" y="333" type="line"/>
      <point x="202" y="-2" type="line"/>
      <point x="50" y="-2" type="line"/>
      <point x="50" y="561" type="line"/>
      <point x="0" y="561" type="line"/>
      <point x="0" y="713" type="line"/>
      <point x="50" y="713" type="line"/>
      <point x="50" y="774" type="line"/>
      <point x="202" y="774" type="line"/>
      <point x="202" y="713" type="line"/>
      <point x="450" y="713" type="line"/>
    </contour>
    <contour>
      <point x="202" y="561" type="line"/>
      <point x="202" y="485" type="line"/>
      <point x="450" y="485" type="line"/>
      <point x="450" y="561" type="line"/>
    </contour>
  </outline>
</glyph>
<glyph name="hbar" format="2">
  <advance width="658"/>
  <unicode hex="0127"/>
  <outline>
    <contour>
      <point x="111" y="768" type="line"/>
      <point x="280" y="768" type="line"/>
      <point x="280" y="512" type="line"/>
      <point x="319" y="524"/>
      <point x="360" y="524" type="qcurve"/>
      <point x="447" y="524"/>
      <point x="581" y="420"/>
      <point x="605" y="337" type="qcurve"/>
      <point x="608" y="6" type="line"/>
      <point x="441" y="6" type="line"/>
      <point x="441" y="336" type="line"/>
      <point x="409" y="373"/>
      <point x="360" y="373" type="qcurve"/>
      <point x="312" y="373"/>
      <point x="280" y="338" type="qcurve"/>
      <point x="280" y="6" type="line"/>
      <point x="111" y="6" type="line"/>
    </contour>
    <contour>
      <point x="338" y="731" type="line"/>
      <point x="338" y="579" type="line"/>
      <point x="50" y="579" type="line"/>
      <point x="50" y="731" type="line"/>
    </contour>
  </outline>
</glyph>
<glyph name="lcaron" format="2">
  <advance width="419"/>
  <unicode hex="013E"/>
  <outline>
    <contour>
      <point x="260" y="504" type="line"/>
      <point x="260" y="761" type="line"/>
      <point x="412" y="761" type="line"/>
      <point x="367" y="504" type="line"/>
    </contour>
    <contour>
      <point x="369" y="6" type="line"/>
      <point x="335" y="-3"/>
      <point x="298" y="-3" type="qcurve"/>
      <point x="211" y="-3"/>
      <point x="77" y="101"/>
      <point x="53" y="184" type="qcurve"/>
      <point x="50" y="761" type="line"/>
      <point x="217" y="761" type="line"/>
      <point x="217" y="185" type="line"/>
      <point x="249" y="148"/>
      <point x="298" y="148" type="qcurve"/>
      <point x="338" y="148"/>
      <point x="369" y="174" type="qcurve"/>
    </contour>
  </outline>
</glyph>
<glyph name="lslash" format="2">
  <advance width="563"/>
  <unicode hex="0142"/>
  <outline>
    <contour>
      <point x="78" y="308" type="line"/>
      <point x="78" y="428" type="line"/>
      <point x="497" y="616" type="line"/>
      <point x="497" y="500" type="line"/>
    </contour>
    <contour>
      <point x="513" y="6" type="line"/>
      <point x="479" y="-3"/>
      <point x="442" y="-3" type="qcurve"/>
      <point x="355" y="-3"/>
      <point x="221" y="101"/>
      <point x="197" y="184" type="qcurve"/>
      <point x="194" y="761" type="line"/>
      <point x="361" y="761" type="line"/>
      <point x="361" y="185" type="line"/>
      <point x="393" y="148"/>
      <point x="442" y="148" type="qcurve"/>
      <point x="482" y="148"/>
      <point x="513" y="174" type="qcurve"/>
    </contour>
  </outline>
</glyph>
<glyph name="OE" format="2">
  <advance width="1068"/>
  <unicode hex="0152"/>
  <outline>
    <contour>
      <point x="909" y="485" type="line"/>
      <point x="910" y="333" type="line"/>
      <point x="602" y="333" type="line"/>
      <point x="602" y="149" type="line"/>
      <point x="1017" y="149" type="line"/>
      <point x="1018" y="-3" type="line"/>
      <point x="505" y="-3" type="line"/>
      <point x="505" y="-7" type="line"/>
      <point x="469" y="-14"/>
      <point x="432" y="-14" type="qcurve"/>
      <point x="274" y="-14"/>
      <point x="50" y="217"/>
      <point x="50" y="543"/>
      <point x="274" y="773"/>
      <point x="432" y="773" type="qcurve"/>
      <point x="441" y="773"/>
      <point x="450" y="773" type="qcurve"/>
      <point x="450" y="774" type="line"/>
      <point x="450" y="778" type="line"/>
      <point x="1017" y="778" type="line"/>
      <point x="1018" y="626" type="line"/>
      <point x="602" y="626" type="line"/>
      <point x="602" y="485" type="line"/>
    </contour>
    <contour>
      <point x="432" y="612" type="qcurve"/>
      <point x="337" y="612"/>
      <point x="203" y="475"/>
      <point x="203" y="378" type="qcurve"/>
      <point x="203" y="280"/>
      <point x="337" y="143"/>
      <point x="432" y="143" type="qcurve"/>
      <point x="441" y="143"/>
      <point x="450" y="144" type="qcurve"/>
      <point x="450" y="611" type="line"/>
      <point x="441" y="612"/>
    </contour>
  </outline>
</glyph>
<glyph name="tcaron" format="2">
  <advance width="630"/>
  <unicode hex="0165"/>
  <outline>
    <contour>
      <point x="441" y="504" type="line"/>
      <point x="441" y="761" type="line"/>
      <point x="593" y="761" type="line"/>
      <point x="548" y="504" type="line"/>
    </contour>
    <contour>
      <point x="464" y="6" type="line"/>
      <point x="430" y="-3"/>
      <point x="393" y="-3" type="qcurve"/>
      <point x="306" y="-3"/>
      <point x="172" y="101"/>
      <point x="148" y="184" type="qcurve"/>
      <point x="147" y="364" type="line"/>
      <point x="50" y="364" type="line"/>
      <point x="50" y="516" type="line"/>
      <point x="146" y="516" type="line"/>
      <point x="145" y="761" type="line"/>
      <point x="312" y="761" type="line"/>
      <point x="312" y="516" type="line"/>
      <point x="409" y="516" type="line"/>
      <point x="409" y="364" type="line"/>
      <point x="312" y="364" type="line"/>
      <point x="312" y="185" type="line"/>
      <point x="344" y="148"/>
      <point x="393" y="148" type="qcurve"/>
      <point x="433" y="148"/>
      <point x="464" y="174" type="qcurve"/>
    </contour>
  </outline>
</glyph>
<glyph name="uni0306" format="2">
  <unicode hex="0306"/>
  <outline>
    <contour>
      <point x="128" y="932" type="line"/>
      <point x="128" y="932"/>
      <point x="128" y="918" type="qcurve"/>
      <point x="128" y="865"/>
      <point x="54" y="790"/>
      <point x="0" y="790" type="qcurve"/>
      <point x="-54" y="790"/>
      <point x="-128" y="864"/>
      <point x="-128" y="918" type="qcurve"/>
      <point x="-128" y="932" type="line"/>
      <point x="-52" y="932" type="line"/>
      <point x="-54" y="924"/>
      <point x="-54" y="918" type="qcurve"/>
      <point x="-54" y="896"/>
      <point x="-22" y="864"/>
      <point x="23" y="864"/>
      <point x="54" y="896"/>
      <point x="54" y="918" type="qcurve"/>
      <point x="54" y="924"/>
      <point x="52" y="932" type="qcurve"/>
    </contour>
  </outline>
</glyph>
<glyph name="hookabovecomb" format="2">
  <unicode hex="0309"/>
  <outline>
    <contour>
      <point x="-71" y="432" type="line"/>
      <point x="-71" y="509" type="line"/>
      <point x="-63" y="507"/>
      <point x="-58" y="507" type="qcurve"/>
      <point x="-35" y="507"/>
      <point x="-4" y="538"/>
      <point x="-4" y="582"/>
      <point x="-36" y="614"/>
      <point x="-58" y="614" type="qcurve"/>
      <point x="-63" y="614"/>
      <point x="-71" y="612" type="qcurve"/>
      <point x="-71" y="689" type="line"/>
      <point x="-58" y="689" type="line"/>
      <point x="-4" y="689"/>
      <point x="71" y="614"/>
      <point x="71" y="560" type="qcurve"/>
      <point x="71" y="507"/>
      <point x="-4" y="432"/>
      <point x="-58" y="432" type="qcurve"/>
    </contour>
  </outline>
</glyph>
<glyph name="uni030A" format="2">
  <advance width="0"/>
  <unicode hex="030A"/>
  <outline>
    <contour>
      <point x="-4" y="614"/>
      <point x="-12" y="612" type="qcurve"/>
      <point x="-12" y="613" type="line" smooth="yes"/>
      <point x="-12" y="613" type="line"/>
      <point x="-31" y="609"/>
      <point x="-54" y="580"/>
      <point x="-54" y="560" type="qcurve"/>
      <point x="-54" y="541"/>
      <point x="-31" y="512"/>
      <point x="-12" y="508" type="qcurve"/>
      <point x="-12" y="509" type="line"/>
      <point x="-4" y="507"/>
      <point x="4" y="507"/>
      <point x="12" y="509" type="qcurve"/>
      <point x="12" y="508" type="line"/>
      <point x="31" y="512"/>
      <point x="54" y="541"/>
      <point x="54" y="560" type="qcurve"/>
      <point x="54" y="580"/>
      <point x="31" y="609"/>
      <point x="12" y="613" type="qcurve"/>
      <point x="12" y="612" type="line"/>
      <point x="4" y="614"/>
    </contour>
    <contour>
      <point x="-1" y="432" type="line"/>
      <point x="-3" y="432" type="line"/>
      <point x="-10" y="432" type="line"/>
      <point x="-61" y="436"/>
      <point x="-130" y="509"/>
      <point x="-130" y="611"/>
      <point x="-60" y="685"/>
      <point x="-10" y="689" type="qcurve"/>
      <point x="-3" y="689" type="line"/>
      <point x="-1" y="689" type="line"/>
      <point x="1" y="689" type="line"/>
      <point x="55" y="689"/>
      <point x="130" y="614"/>
      <point x="130" y="560" type="qcurve"/>
      <point x="130" y="507"/>
      <point x="55" y="432"/>
      <point x="1" y="432" type="qcurve"/>
    </contour>
  </outline>
</glyph>
<glyph name="uni0327" format="2">
  <unicode hex="0327"/>
  <outline>
    <contour>
      <point x="-71" y="-68" type="line"/>
      <point x="-71" y="9" type="line"/>
      <point x="-63" y="7"/>
      <point x="-58" y="7" type="qcurve"/>
      <point x="-35" y="7"/>
      <point x="-4" y="38"/>
      <point x="-4" y="82"/>
      <point x="-36" y="114"/>
      <point x="-58" y="114" type="qcurve"/>
      <point x="-63" y="114"/>
      <point x="-71" y="112" type="qcurve"/>
      <point x="-71" y="189" type="line"/>
      <point x="-58" y="189" type="line"/>
      <point x="-4" y="189"/>
      <point x="71" y="114"/>
      <point x="71" y="60" type="qcurve"/>
      <point x="71" y="7"/>
      <point x="-4" y="-68"/>
      <point x="-58" y="-68" type="qcurve"/>
    </contour>
  </outline>
</glyph>
<glyph name="uni0328" format="2">
  <advance width="0"/>
  <unicode hex="0328"/>
  <outline>
    <contour>
      <point x="21" y="-68" type="line"/>
      <point x="8" y="-68" type="line"/>
      <point x="-46" y="-68"/>
      <point x="-121" y="7"/>
      <point x="-121" y="60" type="qcurve"/>
      <point x="-121" y="114"/>
      <point x="-46" y="189"/>
      <point x="8" y="189" type="qcurve"/>
      <point x="21" y="189" type="line"/>
      <point x="21" y="112" type="line"/>
      <point x="13" y="114"/>
      <point x="8" y="114" type="qcurve"/>
      <point x="-14" y="114"/>
      <point x="-46" y="82"/>
      <point x="-46" y="38"/>
      <point x="-15" y="7"/>
      <point x="8" y="7" type="qcurve"/>
      <point x="13" y="7"/>
      <point x="21" y="9" type="qcurve"/>
    </contour>
  </outline>
</glyph>
<glyph name="uni0981" format="2">
  <unicode hex="0981"/>
  <outline>
    <contour>
      <point x="193" y="619" type="line"/>
      <point x="193" y="619"/>
      <point x="193" y="600" type="qcurve"/>
      <point x="193" y="519"/>
      <point x="81" y="406"/>
      <point x="1" y="406" type="qcurve"/>
      <point x="-80" y="406"/>
      <point x="-193" y="519"/>
      <point x="-193" y="600" type="qcurve"/>
      <point x="-193" y="619" type="line"/>
      <point x="-77" y="619" type="line"/>
      <point x="-80" y="610"/>
      <point x="-80" y="600" type="qcurve"/>
      <point x="-80" y="566"/>
      <point x="-33" y="519"/>
      <point x="35" y="519"/>
      <point x="80" y="566"/>
      <point x="80" y="600" type="qcurve"/>
      <point x="80" y="610"/>
      <point x="77" y="619" type="qcurve"/>
    </contour>
    <contour>
      <point x="-61" y="658" type="line"/>
      <point x="-61" y="772" type="line"/>
      <point x="61" y="772" type="line"/>
      <point x="61" y="658" type="line"/>
    </contour>
  </outline>
</glyph>
<glyph name="u0982" format="2">
  <advance width="445"/>
  <unicode hex="0982"/>
  <outline>
    <contour>
      <point x="159" y="427" type="line"/>
      <point x="392" y="69" type="line"/>
      <point x="286" y="8" type="line"/>
      <point x="53" y="366" type="line"/>
    </contour>
    <contour>
      <point x="202" y="665"/>
      <point x="194" y="663" type="qcurve"/>
      <point x="194" y="664" type="line" smooth="yes"/>
      <point x="194" y="664" type="line"/>
      <point x="175" y="660"/>
      <point x="152" y="631"/>
      <point x="152" y="611" type="qcurve"/>
      <point x="152" y="592"/>
      <point x="175" y="563"/>
      <point x="194" y="559" type="qcurve"/>
      <point x="194" y="560" type="line"/>
      <point x="202" y="558"/>
      <point x="210" y="558"/>
      <point x="218" y="560" type="qcurve"/>
      <point x="218" y="559" type="line"/>
      <point x="237" y="563"/>
      <point x="260" y="592"/>
      <point x="260" y="611" type="qcurve"/>
      <point x="260" y="631"/>
      <point x="237" y="660"/>
      <point x="218" y="664" type="qcurve"/>
      <point x="218" y="663" type="line"/>
      <point x="210" y="665"/>
    </contour>
    <contour>
      <point x="205" y="483" type="line"/>
      <point x="203" y="483" type="line"/>
      <point x="196" y="483" type="line"/>
      <point x="145" y="487"/>
      <point x="76" y="560"/>
      <point x="76" y="662"/>
      <point x="146" y="736"/>
      <point x="196" y="740" type="qcurve"/>
      <point x="203" y="740" type="line"/>
      <point x="205" y="740" type="line"/>
      <point x="207" y="740" type="line"/>
      <point x="261" y="740"/>
      <point x="336" y="665"/>
      <point x="336" y="611" type="qcurve"/>
      <point x="336" y="558"/>
      <point x="261" y="483"/>
      <point x="207" y="483" type="qcurve"/>
    </contour>
  </outline>
</glyph>
<glyph name="uni0982" format="2">
  <advance width="445"/>
  <unicode hex="0982"/>
  <outline>
    <contour>
      <point x="204" y="483" type="line"/>
      <point x="204" y="483"/>
      <point x="202" y="483" type="qcurve"/>
      <point x="202" y="483"/>
      <point x="195" y="483" type="qcurve"/>
      <point x="144" y="487"/>
      <point x="75" y="560"/>
      <point x="75" y="662"/>
      <point x="145" y="736"/>
      <point x="195" y="740" type="qcurve"/>
      <point x="202" y="740" type="line"/>
      <point x="202" y="740"/>
      <point x="204" y="740" type="qcurve"/>
      <point x="204" y="740"/>
      <point x="206" y="740" type="qcurve"/>
      <point x="260" y="740"/>
      <point x="335" y="665"/>
      <point x="335" y="611" type="qcurve"/>
      <point x="335" y="558"/>
      <point x="260" y="483"/>
      <point x="206" y="483" type="qcurve"/>
    </contour>
    <contour>
      <point x="205" y="665" type="qcurve"/>
      <point x="201" y="665"/>
      <point x="193" y="663" type="qcurve"/>
      <point x="193" y="664" type="line"/>
      <point x="174" y="660"/>
      <point x="151" y="631"/>
      <point x="151" y="611" type="qcurve"/>
      <point x="151" y="592"/>
      <point x="174" y="563"/>
      <point x="193" y="559" type="qcurve"/>
      <point x="193" y="560" type="line"/>
      <point x="201" y="558"/>
      <point x="209" y="558"/>
      <point x="217" y="560" type="qcurve"/>
      <point x="217" y="559" type="line"/>
      <point x="236" y="563"/>
      <point x="259" y="592"/>
      <point x="259" y="611" type="qcurve"/>
      <point x="259" y="631"/>
      <point x="236" y="660"/>
      <point x="217" y="664" type="qcurve"/>
      <point x="217" y="663" type="line"/>
      <point x="209" y="665"/>
    </contour>
    <contour>
      <point x="158" y="427" type="line"/>
      <point x="391" y="69" type="line"/>
      <point x="285" y="8" type="line"/>
      <point x="52" y="366" type="line"/>
    </contour>
  </outline>
</glyph>
<glyph name="u0983" format="2">
  <advance width="445"/>
  <unicode hex="0983"/>
  <outline>
    <contour>
      <point x="218.5" y="665"/>
      <point x="210.5" y="663" type="qcurve"/>
      <point x="210.5" y="664" type="line" smooth="yes"/>
      <point x="210.5" y="664" type="line"/>
      <point x="191.5" y="660"/>
      <point x="168.5" y="631"/>
      <point x="168.5" y="611" type="qcurve"/>
      <point x="168.5" y="592"/>
      <point x="191.5" y="563"/>
      <point x="210.5" y="559" type="qcurve"/>
      <point x="210.5" y="560" type="line"/>
      <point x="218.5" y="558"/>
      <point x="226.5" y="558"/>
      <point x="234.5" y="560" type="qcurve"/>
      <point x="234.5" y="559" type="line"/>
      <point x="253.5" y="563"/>
      <point x="276.5" y="592"/>
      <point x="276.5" y="611" type="qcurve"/>
      <point x="276.5" y="631"/>
      <point x="253.5" y="660"/>
      <point x="234.5" y="664" type="qcurve"/>
      <point x="234.5" y="663" type="line"/>
      <point x="226.5" y="665"/>
    </contour>
    <contour>
      <point x="221.5" y="483" type="line"/>
      <point x="219.5" y="483" type="line"/>
      <point x="212.5" y="483" type="line"/>
      <point x="161.5" y="487"/>
      <point x="92.5" y="560"/>
      <point x="92.5" y="662"/>
      <point x="162.5" y="736"/>
      <point x="212.5" y="740" type="qcurve"/>
      <point x="219.5" y="740" type="line"/>
      <point x="221.5" y="740" type="line"/>
      <point x="223.5" y="740" type="line"/>
      <point x="277.5" y="740"/>
      <point x="352.5" y="665"/>
      <point x="352.5" y="611" type="qcurve"/>
      <point x="352.5" y="558"/>
      <point x="277.5" y="483"/>
      <point x="223.5" y="483" type="qcurve"/>
    </contour>
    <contour>
      <point x="218.5" y="265"/>
      <point x="210.5" y="263" type="qcurve"/>
      <point x="210.5" y="264" type="line" smooth="yes"/>
      <point x="210.5" y="264" type="line"/>
      <point x="191.5" y="260"/>
      <point x="168.5" y="231"/>
      <point x="168.5" y="211" type="qcurve"/>
      <point x="168.5" y="192"/>
      <point x="191.5" y="163"/>
      <point x="210.5" y="159" type="qcurve"/>
      <point x="210.5" y="160" type="line"/>
      <point x="218.5" y="158"/>
      <point x="226.5" y="158"/>
      <point x="234.5" y="160" type="qcurve"/>
      <point x="234.5" y="159" type="line"/>
      <point x="253.5" y="163"/>
      <point x="276.5" y="192"/>
      <point x="276.5" y="211" type="qcurve"/>
      <point x="276.5" y="231"/>
      <point x="253.5" y="260"/>
      <point x="234.5" y="264" type="qcurve"/>
      <point x="234.5" y="263" type="line"/>
      <point x="226.5" y="265"/>
    </contour>
    <contour>
      <point x="221.5" y="83" type="line"/>
      <point x="219.5" y="83" type="line"/>
      <point x="212.5" y="83" type="line"/>
      <point x="161.5" y="87"/>
      <point x="92.5" y="160"/>
      <point x="92.5" y="262"/>
      <point x="162.5" y="336"/>
      <point x="212.5" y="340" type="qcurve"/>
      <point x="219.5" y="340" type="line"/>
      <point x="221.5" y="340" type="line"/>
      <point x="223.5" y="340" type="line"/>
      <point x="277.5" y="340"/>
      <point x="352.5" y="265"/>
      <point x="352.5" y="211" type="qcurve"/>
      <point x="352.5" y="158"/>
      <point x="277.5" y="83"/>
      <point x="223.5" y="83" type="qcurve"/>
    </contour>
  </outline>
</glyph>
<glyph name="uni0983" format="2">
  <advance width="445"/>
  <unicode hex="0983"/>
  <outline>
    <contour>
      <point x="204" y="83" type="line"/>
      <point x="204" y="83"/>
      <point x="202" y="83" type="qcurve"/>
      <point x="202" y="83"/>
      <point x="195" y="83" type="qcurve"/>
      <point x="144" y="87"/>
      <point x="75" y="160"/>
      <point x="75" y="262"/>
      <point x="145" y="336"/>
      <point x="195" y="340" type="qcurve"/>
      <point x="202" y="340" type="line"/>
      <point x="202" y="340"/>
      <point x="204" y="340" type="qcurve"/>
      <point x="204" y="340"/>
      <point x="206" y="340" type="qcurve"/>
      <point x="260" y="340"/>
      <point x="335" y="265"/>
      <point x="335" y="211" type="qcurve"/>
      <point x="335" y="158"/>
      <point x="260" y="83"/>
      <point x="206" y="83" type="qcurve"/>
    </contour>
    <contour>
      <point x="205" y="265" type="qcurve"/>
      <point x="201" y="265"/>
      <point x="193" y="263" type="qcurve"/>
      <point x="193" y="264" type="line"/>
      <point x="174" y="260"/>
      <point x="151" y="231"/>
      <point x="151" y="211" type="qcurve"/>
      <point x="151" y="192"/>
      <point x="174" y="163"/>
      <point x="193" y="159" type="qcurve"/>
      <point x="193" y="160" type="line"/>
      <point x="201" y="158"/>
      <point x="209" y="158"/>
      <point x="217" y="160" type="qcurve"/>
      <point x="217" y="159" type="line"/>
      <point x="236" y="163"/>
      <point x="259" y="192"/>
      <point x="259" y="211" type="qcurve"/>
      <point x="259" y="231"/>
      <point x="236" y="260"/>
      <point x="217" y="264" type="qcurve"/>
      <point x="217" y="263" type="line"/>
      <point x="209" y="265"/>
    </contour>
    <contour>
      <point x="204" y="483" type="line"/>
      <point x="202" y="483" type="line"/>
      <point x="195" y="483" type="line"/>
      <point x="144" y="487"/>
      <point x="75" y="560"/>
      <point x="75" y="662"/>
      <point x="145" y="736"/>
      <point x="195" y="740" type="qcurve"/>
      <point x="202" y="740" type="line"/>
      <point x="204" y="740" type="line"/>
      <point x="206" y="740" type="line"/>
      <point x="260" y="740"/>
      <point x="335" y="665"/>
      <point x="335" y="611" type="qcurve"/>
      <point x="335" y="558"/>
      <point x="260" y="483"/>
      <point x="206" y="483" type="qcurve"/>
    </contour>
    <contour>
      <point x="205" y="665" type="qcurve"/>
      <point x="201" y="665"/>
      <point x="193" y="663" type="qcurve"/>
      <point x="193" y="664" type="line"/>
      <point x="174" y="660"/>
      <point x="151" y="631"/>
      <point x="151" y="611" type="qcurve"/>
      <point x="151" y="592"/>
      <point x="174" y="563"/>
      <point x="193" y="559" type="qcurve"/>
      <point x="193" y="560" type="line"/>
      <point x="201" y="558"/>
      <point x="209" y="558"/>
      <point x="217" y="560" type="qcurve"/>
      <point x="217" y="559" type="line"/>
      <point x="236" y="563"/>
      <point x="259" y="592"/>
      <point x="259" y="611" type="qcurve"/>
      <point x="259" y="631"/>
      <point x="236" y="660"/>
      <point x="217" y="664" type="qcurve"/>
      <point x="217" y="663" type="line"/>
      <point x="209" y="665"/>
    </contour>
  </outline>
</glyph>
<glyph name="uni0985" format="2">
  <advance width="946"/>
  <unicode hex="0985"/>
  <outline>
    <contour>
      <point x="946" y="803" type="line"/>
      <point x="946" y="671" type="line"/>
      <point x="0" y="671" type="line"/>
      <point x="0" y="803" type="line"/>
    </contour>
    <contour>
      <point x="401" y="505" type="qcurve"/>
      <point x="401" y="504"/>
      <point x="398" y="569"/>
      <point x="397" y="602" type="qcurve"/>
      <point x="396" y="634" type="line"/>
      <point x="397" y="634"/>
      <point x="398" y="634" type="qcurve"/>
      <point x="525" y="634"/>
      <point x="704" y="450"/>
      <point x="704" y="320" type="qcurve"/>
      <point x="704" y="189"/>
      <point x="525" y="5"/>
      <point x="271" y="5"/>
      <point x="92" y="189"/>
      <point x="92" y="320" type="qcurve"/>
      <point x="92" y="320"/>
      <point x="215" y="323"/>
      <point x="215" y="324" type="qcurve"/>
      <point x="215" y="321"/>
      <point x="215" y="318" type="qcurve"/>
      <point x="215" y="240"/>
      <point x="322" y="130"/>
      <point x="474" y="130"/>
      <point x="581" y="240"/>
      <point x="581" y="318" type="qcurve"/>
      <point x="581" y="395"/>
      <point x="476" y="504"/>
    </contour>
    <contour>
      <point x="697" y="287" type="line"/>
      <point x="879" y="105" type="line"/>
      <point x="771" y="-2" type="line"/>
      <point x="589" y="180" type="line"/>
    </contour>
    <contour>
      <point x="773" y="0" type="line"/>
      <point x="773" y="776" type="line"/>
      <point x="925" y="776" type="line"/>
      <point x="925" y="0" type="line"/>
    </contour>
  </outline>
</glyph>
<glyph name="u0987" format="2">
  <advance width="689"/>
  <unicode hex="0987"/>
  <outline>
    <contour>
      <point x="689" y="803" type="line"/>
      <point x="689" y="671" type="line"/>
      <point x="0" y="671" type="line"/>
      <point x="0" y="803" type="line"/>
      <point x="333" y="803" type="line"/>
      <point x="324" y="849"/>
      <point x="300" y="873" type="qcurve"/>
      <point x="268" y="904"/>
      <point x="237" y="935" type="qcurve"/>
      <point x="213" y="959"/>
      <point x="108" y="986"/>
      <point x="85" y="1010" type="qcurve"/>
      <point x="69" y="1025"/>
      <point x="48" y="1085"/>
      <point x="46" y="1108" type="qcurve"/>
      <point x="44" y="1130" type="line"/>
      <point x="132" y="1218" type="line"/>
      <point x="133" y="1209"/>
      <point x="137" y="1178"/>
      <point x="160" y="1111"/>
      <point x="176" y="1095" type="qcurve"/>
      <point x="198" y="1073"/>
      <point x="301" y="1049"/>
      <point x="324" y="1027" type="qcurve"/>
      <point x="394" y="956" type="line"/>
      <point x="408" y="942"/>
      <point x="425" y="901"/>
      <point x="429" y="863"/>
      <point x="429" y="829"/>
      <point x="428" y="818.5" type="qcurve" smooth="yes"/>
      <point x="427" y="808" type="line"/>
      <point x="422" y="803" type="line"/>
    </contour>
    <contour>
      <point x="236" y="472" type="qcurve"/>
      <point x="128" y="578" type="line"/>
      <point x="205" y="655"/>
      <point x="418" y="657"/>
      <point x="495" y="580" type="qcurve"/>
      <point x="571" y="503"/>
      <point x="569" y="291"/>
      <point x="492" y="214" type="qcurve"/>
      <point x="455" y="176"/>
      <point x="412" y="156" type="qcurve"/>
      <point x="593" y="-1" type="line"/>
      <point x="434" y="-1" type="line"/>
      <point x="226" y="153" type="line"/>
      <point x="173" y="175"/>
      <point x="131" y="217" type="qcurve"/>
      <point x="233" y="320" type="line"/>
      <point x="234" y="319" type="line"/>
      <point x="266" y="287"/>
      <point x="352" y="288"/>
      <point x="386" y="321" type="qcurve"/>
      <point x="419" y="355"/>
      <point x="420" y="441"/>
      <point x="388" y="473" type="qcurve"/>
      <point x="356" y="505"/>
      <point x="270" y="505"/>
    </contour>
  </outline>
</glyph>
<glyph name="uni0987" format="2">
  <advance width="689"/>
  <unicode hex="0987"/>
  <outline>
    <contour>
      <point x="339" y="720" type="line"/>
      <point x="339" y="724"/>
      <point x="340" y="739"/>
      <point x="338" y="780"/>
      <point x="331" y="816"/>
      <point x="313" y="859"/>
      <point x="300" y="873" type="qcurve"/>
      <point x="268" y="904"/>
      <point x="237" y="935" type="qcurve"/>
      <point x="213" y="959"/>
      <point x="108" y="986"/>
      <point x="85" y="1010" type="qcurve"/>
      <point x="69" y="1025"/>
      <point x="48" y="1085"/>
      <point x="46" y="1108" type="qcurve"/>
      <point x="44" y="1130" type="line"/>
      <point x="132" y="1218" type="line"/>
      <point x="133" y="1209"/>
      <point x="137" y="1178"/>
      <point x="160" y="1111"/>
      <point x="176" y="1095" type="qcurve"/>
      <point x="198" y="1073"/>
      <point x="301" y="1049"/>
      <point x="324" y="1027" type="qcurve"/>
      <point x="394" y="956" type="line"/>
      <point x="408" y="942"/>
      <point x="425" y="901"/>
      <point x="429" y="863"/>
      <point x="429" y="829"/>
      <point x="427" y="808"/>
      <point x="427" y="808" type="qcurve"/>
    </contour>
    <contour>
      <point x="236" y="472" type="qcurve"/>
      <point x="128" y="578" type="line"/>
      <point x="205" y="655"/>
      <point x="418" y="657"/>
      <point x="495" y="580" type="qcurve"/>
      <point x="571" y="503"/>
      <point x="569" y="291"/>
      <point x="492" y="214" type="qcurve"/>
      <point x="435" y="156"/>
      <point x="297" y="126"/>
      <point x="178" y="169"/>
      <point x="131" y="217" type="qcurve"/>
      <point x="233" y="320" type="line"/>
      <point x="234" y="319"/>
      <point x="234" y="319" type="qcurve"/>
      <point x="266" y="287"/>
      <point x="352" y="288"/>
      <point x="386" y="321" type="qcurve"/>
      <point x="419" y="355"/>
      <point x="420" y="441"/>
      <point x="388" y="473" type="qcurve"/>
      <point x="356" y="505"/>
      <point x="270" y="505"/>
    </contour>
    <contour>
      <point x="689" y="803" type="line"/>
      <point x="689" y="671" type="line"/>
      <point x="0" y="671" type="line"/>
      <point x="0" y="803" type="line"/>
    </contour>
    <contour>
      <point x="434" y="-1" type="line"/>
      <point x="137" y="219" type="line"/>
      <point x="338" y="221" type="line"/>
      <point x="593" y="-1" type="line"/>
    </contour>
  </outline>
</glyph>
<glyph name="uni0988" format="2">
  <advance width="1077"/>
  <unicode hex="0988"/>
  <outline>
    <contour>
      <point x="1077" y="803" type="line"/>
      <point x="1077" y="671" type="line"/>
      <point x="0" y="671" type="line"/>
      <point x="0" y="803" type="line"/>
      <point x="538" y="803" type="line"/>
      <point x="529" y="849"/>
      <point x="505" y="873" type="qcurve"/>
      <point x="473" y="904"/>
      <point x="442" y="935" type="qcurve"/>
      <point x="418" y="959"/>
      <point x="313" y="986"/>
      <point x="290" y="1010" type="qcurve"/>
      <point x="274" y="1025"/>
      <point x="253" y="1085"/>
      <point x="251" y="1108" type="qcurve"/>
      <point x="249" y="1130" type="line"/>
      <point x="337" y="1218" type="line"/>
      <point x="338" y="1209"/>
      <point x="342" y="1178"/>
      <point x="365" y="1111"/>
      <point x="381" y="1095" type="qcurve"/>
      <point x="403" y="1073"/>
      <point x="506" y="1049"/>
      <point x="529" y="1027" type="qcurve"/>
      <point x="599" y="956" type="line"/>
      <point x="613" y="942"/>
      <point x="630" y="901"/>
      <point x="634" y="863"/>
      <point x="634" y="829"/>
      <point x="632" y="808"/>
      <point x="632" y="808" type="qcurve"/>
      <point x="627" y="803" type="line"/>
    </contour>
    <contour>
      <point x="236" y="472" type="qcurve"/>
      <point x="128" y="578" type="line"/>
      <point x="205" y="655"/>
      <point x="418" y="657"/>
      <point x="495" y="580" type="qcurve"/>
      <point x="542" y="533"/>
      <point x="560" y="470" type="qcurve"/>
      <point x="639" y="535" type="line"/>
      <point x="654" y="559"/>
      <point x="675" y="580" type="qcurve"/>
      <point x="715" y="620"/>
      <point x="768" y="640" type="qcurve"/>
      <point x="778" y="648" type="line"/>
      <point x="777" y="643" type="line"/>
      <point x="843" y="666"/>
      <point x="988" y="632"/>
      <point x="1042" y="578" type="qcurve"/>
      <point x="934" y="472" type="line"/>
      <point x="900" y="505"/>
      <point x="814" y="505"/>
      <point x="782" y="473" type="qcurve"/>
      <point x="750" y="441"/>
      <point x="751" y="355"/>
      <point x="784" y="321" type="qcurve"/>
      <point x="818" y="288"/>
      <point x="904" y="287"/>
      <point x="936" y="319" type="qcurve"/>
      <point x="936" y="319"/>
      <point x="937" y="320" type="qcurve"/>
      <point x="1039" y="217" type="line"/>
      <point x="992" y="169"/>
      <point x="873" y="126"/>
      <point x="735" y="156"/>
      <point x="678" y="214" type="qcurve"/>
      <point x="624" y="268"/>
      <point x="607" y="341" type="qcurve"/>
      <point x="534" y="265" type="line"/>
      <point x="533" y="266" type="line"/>
      <point x="516" y="237"/>
      <point x="492" y="214" type="qcurve"/>
      <point x="435" y="156"/>
      <point x="297" y="126"/>
      <point x="178" y="169"/>
      <point x="131" y="217" type="qcurve"/>
      <point x="233" y="320" type="line"/>
      <point x="234" y="319"/>
      <point x="234" y="319" type="qcurve"/>
      <point x="266" y="287"/>
      <point x="352" y="288"/>
      <point x="386" y="321" type="qcurve"/>
      <point x="390" y="325"/>
      <point x="393" y="329" type="qcurve"/>
      <point x="389" y="331" type="line"/>
      <point x="403" y="342" type="line"/>
      <point x="423" y="374"/>
      <point x="415" y="446"/>
      <point x="388" y="473" type="qcurve"/>
      <point x="356" y="505"/>
      <point x="270" y="505"/>
    </contour>
  </outline>
</glyph>
<glyph name="u0989" format="2">
  <advance width="616"/>
  <unicode hex="0989"/>
  <outline>
    <contour>
      <point x="616" y="803" type="line"/>
      <point x="616" y="671" type="line"/>
      <point x="441" y="671" type="line"/>
      <point x="441" y="484" type="line"/>
      <point x="501" y="450"/>
      <point x="572" y="331"/>
      <point x="570" y="260" type="qcurve"/>
      <point x="567" y="151"/>
      <point x="417" y="3"/>
      <point x="309" y="3" type="qcurve"/>
      <point x="247" y="3"/>
      <point x="149" y="47"/>
      <point x="88" y="121"/>
      <point x="56" y="212"/>
      <point x="56" y="261" type="qcurve"/>
      <point x="201" y="261" type="line"/>
      <point x="201" y="260" type="line"/>
      <point x="201" y="215"/>
      <point x="263" y="155"/>
      <point x="310" y="154" type="qcurve"/>
      <point x="357" y="155"/>
      <point x="419" y="215"/>
      <point x="419" y="260" type="qcurve"/>
      <point x="419" y="302"/>
      <point x="366" y="361"/>
      <point x="324" y="366" type="qcurve"/>
      <point x="309" y="366" type="line"/>
      <point x="309" y="518" type="line"/>
      <point x="309" y="518" type="line"/>
      <point x="309" y="671" type="line"/>
      <point x="0" y="671" type="line"/>
      <point x="0" y="803" type="line"/>
      <point x="299" y="803" type="line"/>
      <point x="289" y="850"/>
      <point x="265" y="875" type="qcurve"/>
      <point x="234" y="906"/>
      <point x="202" y="938" type="qcurve"/>
      <point x="178" y="961"/>
      <point x="73" y="989"/>
      <point x="50" y="1012" type="qcurve"/>
      <point x="34" y="1028"/>
      <point x="14" y="1088"/>
      <point x="11" y="1110" type="qcurve"/>
      <point x="9" y="1132" type="line"/>
      <point x="97" y="1220" type="line"/>
      <point x="98" y="1211"/>
      <point x="103" y="1180"/>
      <point x="125" y="1113"/>
      <point x="141" y="1097" type="qcurve"/>
      <point x="164" y="1075"/>
      <point x="266" y="1051"/>
      <point x="289" y="1029" type="qcurve" smooth="yes"/>
      <point x="359" y="958" type="line" smooth="yes"/>
      <point x="373" y="944"/>
      <point x="390" y="903"/>
      <point x="392" y="884" type="qcurve" smooth="yes"/>
      <point x="394.358" y="861.6"/>
      <point x="394" y="848" type="qcurve" smooth="yes"/>
      <point x="393" y="810" type="line" smooth="yes"/>
      <point x="385" y="803" type="line"/>
    </contour>
  </outline>
</glyph>
<glyph name="u098A" format="2">
  <advance width="616"/>
  <unicode hex="098A"/>
  <outline>
    <contour>
      <point x="616" y="803" type="line"/>
      <point x="616" y="671" type="line"/>
      <point x="441" y="671" type="line"/>
      <point x="441" y="484" type="line"/>
      <point x="501" y="450"/>
      <point x="572" y="331"/>
      <point x="570" y="260" type="qcurve" smooth="yes"/>
      <point x="567" y="151"/>
      <point x="492" y="77" type="qcurve" smooth="yes"/>
      <point x="418" y="4"/>
      <point x="311.395" y="3.00913" type="qcurve"/>
      <point x="172" y="-50" type="line" smooth="yes"/>
      <point x="8" y="-1" type="line"/>
      <point x="20" y="120" type="line"/>
      <point x="131.375" y="69.8647" type="line"/>
      <point x="125" y="77"/>
      <point x="118.5" y="84" type="qcurve" smooth="yes"/>
      <point x="88" y="121"/>
      <point x="56" y="212"/>
      <point x="56" y="261" type="qcurve"/>
      <point x="201" y="261" type="line"/>
      <point x="201" y="260" type="line" smooth="yes"/>
      <point x="201" y="215"/>
      <point x="232" y="185" type="qcurve" smooth="yes"/>
      <point x="265" y="153"/>
      <point x="310" y="154" type="qcurve" smooth="yes"/>
      <point x="357" y="155"/>
      <point x="419" y="215"/>
      <point x="419" y="260" type="qcurve" smooth="yes"/>
      <point x="419" y="302"/>
      <point x="366" y="361"/>
      <point x="324" y="366" type="qcurve"/>
      <point x="309" y="366" type="line"/>
      <point x="309" y="518" type="line"/>
      <point x="309" y="671" type="line"/>
      <point x="0" y="671" type="line"/>
      <point x="0" y="803" type="line"/>
      <point x="299" y="803" type="line"/>
      <point x="289" y="850"/>
      <point x="265" y="875" type="qcurve" smooth="yes"/>
      <point x="234" y="906"/>
      <point x="202" y="938" type="qcurve" smooth="yes"/>
      <point x="178" y="961"/>
      <point x="73" y="989"/>
      <point x="50" y="1012" type="qcurve" smooth="yes"/>
      <point x="34" y="1028"/>
      <point x="24" y="1058" type="qcurve" smooth="yes"/>
      <point x="12.4943" y="1093.56"/>
      <point x="11" y="1110" type="qcurve" smooth="yes"/>
      <point x="9" y="1132" type="line"/>
      <point x="97" y="1220" type="line"/>
      <point x="98" y="1211"/>
      <point x="103" y="1180"/>
      <point x="125" y="1113"/>
      <point x="141" y="1097" type="qcurve" smooth="yes"/>
      <point x="164" y="1075"/>
      <point x="215" y="1063" type="qcurve" smooth="yes"/>
      <point x="267.401" y="1050.91"/>
      <point x="289" y="1029" type="qcurve" smooth="yes"/>
      <point x="359" y="958" type="line" smooth="yes"/>
      <point x="373" y="944"/>
      <point x="390" y="903"/>
      <point x="394" y="865"/>
      <point x="394" y="831"/>
      <point x="392" y="810"/>
      <point x="393" y="810" type="qcurve"/>
      <point x="385" y="803" type="line"/>
    </contour>
  </outline>
</glyph>
<glyph name="uni098A" format="2">
  <advance width="612"/>
  <unicode hex="098A"/>
  <outline>
    <contour>
      <point x="299" y="722" type="line"/>
      <point x="300" y="726"/>
      <point x="300" y="741"/>
      <point x="298" y="782"/>
      <point x="292" y="819"/>
      <point x="274" y="861"/>
      <point x="260" y="875" type="qcurve"/>
      <point x="229" y="906"/>
      <point x="197" y="938" type="qcurve"/>
      <point x="173" y="961"/>
      <point x="68" y="989"/>
      <point x="45" y="1012" type="qcurve"/>
      <point x="29" y="1028"/>
      <point x="9" y="1088"/>
      <point x="6" y="1110" type="qcurve"/>
      <point x="4" y="1132" type="line"/>
      <point x="92" y="1220" type="line"/>
      <point x="93" y="1211"/>
      <point x="98" y="1180"/>
      <point x="120" y="1113"/>
      <point x="136" y="1097" type="qcurve"/>
      <point x="159" y="1075"/>
      <point x="261" y="1051"/>
      <point x="284" y="1029" type="qcurve"/>
      <point x="285" y="1027" type="line"/>
      <point x="287" y="1026" type="line"/>
      <point x="288" y="1024" type="line"/>
      <point x="290" y="1023" type="line"/>
      <point x="291" y="1022" type="line"/>
      <point x="292" y="1020" type="line"/>
      <point x="294" y="1019" type="line"/>
      <point x="295" y="1018" type="line"/>
      <point x="296" y="1016" type="line"/>
      <point x="298" y="1015" type="line"/>
      <point x="299" y="1014" type="line"/>
      <point x="300" y="1012" type="line"/>
      <point x="301" y="1011" type="line"/>
      <point x="303" y="1010" type="line"/>
      <point x="304" y="1009" type="line"/>
      <point x="305" y="1008" type="line"/>
      <point x="306" y="1007" type="line"/>
      <point x="307" y="1006" type="line"/>
      <point x="308" y="1004" type="line"/>
      <point x="309" y="1003" type="line"/>
      <point x="310" y="1002" type="line"/>
      <point x="311" y="1001" type="line"/>
      <point x="312" y="1000" type="line"/>
      <point x="313" y="999" type="line"/>
      <point x="314" y="998" type="line"/>
      <point x="315" y="997" type="line"/>
      <point x="316" y="996" type="line"/>
      <point x="317" y="995" type="line"/>
      <point x="318" y="994" type="line"/>
      <point x="319" y="993" type="line"/>
      <point x="320" y="992" type="line"/>
      <point x="321" y="992" type="line"/>
      <point x="322" y="991" type="line"/>
      <point x="323" y="990" type="line"/>
      <point x="324" y="989" type="line"/>
      <point x="325" y="988" type="line"/>
      <point x="326" y="987" type="line"/>
      <point x="327" y="986" type="line"/>
      <point x="328" y="985" type="line"/>
      <point x="329" y="984" type="line"/>
      <point x="331" y="982" type="line"/>
      <point x="331" y="981" type="line"/>
      <point x="332" y="980" type="line"/>
      <point x="333" y="980" type="line"/>
      <point x="334" y="979" type="line"/>
      <point x="335" y="978" type="line"/>
      <point x="336" y="977" type="line"/>
      <point x="336" y="976" type="line"/>
      <point x="337" y="975" type="line"/>
      <point x="338" y="975" type="line"/>
      <point x="339" y="974" type="line"/>
      <point x="340" y="973" type="line"/>
      <point x="341" y="972" type="line"/>
      <point x="342" y="971" type="line"/>
      <point x="342" y="970" type="line"/>
      <point x="343" y="969" type="line"/>
      <point x="344" y="968" type="line"/>
      <point x="345" y="967" type="line"/>
      <point x="346" y="967" type="line"/>
      <point x="347" y="966" type="line"/>
      <point x="348" y="965" type="line"/>
      <point x="349" y="964" type="line"/>
      <point x="350" y="963" type="line"/>
      <point x="351" y="962" type="line"/>
      <point x="352" y="961" type="line"/>
      <point x="353" y="960" type="line"/>
      <point x="354" y="958" type="line"/>
      <point x="368" y="944"/>
      <point x="385" y="903"/>
      <point x="389" y="865"/>
      <point x="389" y="831"/>
      <point x="387" y="810"/>
      <point x="388" y="810" type="qcurve"/>
    </contour>
    <contour>
      <point x="304" y="751" type="line"/>
      <point x="436" y="751" type="line"/>
      <point x="436" y="366" type="line"/>
      <point x="304" y="366" type="line"/>
    </contour>
    <contour>
      <point x="611" y="803" type="line"/>
      <point x="611" y="671" type="line"/>
      <point x="-5" y="671" type="line"/>
      <point x="-5" y="803" type="line"/>
    </contour>
    <contour>
      <point x="306" y="367" type="qcurve"/>
      <point x="305" y="518"/>
      <point x="304" y="518" type="qcurve"/>
      <point x="414" y="518"/>
      <point x="568" y="368"/>
      <point x="565" y="260" type="qcurve"/>
      <point x="562" y="151"/>
      <point x="412" y="3"/>
      <point x="304" y="3" type="qcurve"/>
      <point x="242" y="3"/>
      <point x="144" y="47"/>
      <point x="83" y="121"/>
      <point x="51" y="212"/>
      <point x="51" y="261" type="qcurve"/>
      <point x="196" y="261" type="line"/>
      <point x="196" y="261"/>
      <point x="196" y="260" type="qcurve"/>
      <point x="196" y="215"/>
      <point x="258" y="155"/>
      <point x="305" y="154" type="qcurve"/>
      <point x="352" y="155"/>
      <point x="414" y="215"/>
      <point x="414" y="260" type="qcurve"/>
      <point x="414" y="306"/>
      <point x="353" y="366"/>
    </contour>
  </outline>
</glyph>
<glyph name="uni098B" format="2">
  <advance width="1344"/>
  <unicode hex="098B"/>
  <outline>
    <contour>
      <point x="1344" y="795" type="line"/>
      <point x="1344" y="663" type="line"/>
      <point x="1144" y="663" type="line"/>
      <point x="1144" y="795" type="line"/>
    </contour>
    <contour>
      <point x="1066" y="287" type="line"/>
      <point x="1248" y="105" type="line"/>
      <point x="1140" y="-2" type="line"/>
      <point x="958" y="180" type="line"/>
    </contour>
    <contour>
      <point x="1142" y="0" type="line"/>
      <point x="1142" y="776" type="line"/>
      <point x="1294" y="776" type="line"/>
      <point x="1294" y="0" type="line"/>
    </contour>
    <contour>
      <point x="436" y="713" type="line"/>
      <point x="436" y="713"/>
      <point x="436" y="694" type="qcurve"/>
      <point x="436" y="613"/>
      <point x="324" y="500"/>
      <point x="244" y="500" type="qcurve"/>
      <point x="163" y="500"/>
      <point x="50" y="613"/>
      <point x="50" y="694" type="qcurve"/>
      <point x="50" y="713" type="line"/>
      <point x="166" y="713" type="line"/>
      <point x="163" y="704"/>
      <point x="163" y="694" type="qcurve"/>
      <point x="163" y="660"/>
      <point x="210" y="613"/>
      <point x="278" y="613"/>
      <point x="323" y="660"/>
      <point x="323" y="694" type="qcurve"/>
      <point x="323" y="704"/>
      <point x="320" y="713" type="qcurve"/>
    </contour>
    <contour>
      <point x="738" y="714" type="line"/>
      <point x="925" y="714" type="line"/>
      <point x="754" y="444" type="line"/>
      <point x="707" y="509" type="line"/>
    </contour>
    <contour>
      <point x="754" y="598" type="line"/>
      <point x="754" y="446" type="line"/>
      <point x="612" y="274" type="line"/>
      <point x="922" y="160" type="line"/>
      <point x="922" y="2" type="line"/>
      <point x="468" y="180" type="line"/>
      <point x="468" y="332" type="line"/>
    </contour>
    <contour>
      <point x="922" y="777" type="line"/>
      <point x="1068" y="777" type="line"/>
      <point x="1068" y="1" type="line"/>
      <point x="922" y="1" type="line"/>
    </contour>
    <contour>
      <point x="736" y="713" type="line"/>
      <point x="736" y="694" type="line"/>
      <point x="736" y="613"/>
      <point x="624" y="500"/>
      <point x="544" y="500" type="qcurve"/>
      <point x="463" y="500"/>
      <point x="350" y="613"/>
      <point x="350" y="694" type="qcurve"/>
      <point x="350" y="713" type="line"/>
      <point x="466" y="713" type="line"/>
      <point x="463" y="704"/>
      <point x="463" y="694" type="qcurve"/>
      <point x="463" y="660"/>
      <point x="510" y="613"/>
      <point x="578" y="613"/>
      <point x="623" y="660"/>
      <point x="623" y="694" type="qcurve"/>
      <point x="623" y="704"/>
      <point x="620" y="713" type="qcurve"/>
    </contour>
  </outline>
</glyph>
<glyph name="uni098C" format="2">
  <advance width="779"/>
  <unicode hex="098C"/>
  <outline>
    <contour>
      <point x="98" y="104" type="line"/>
      <point x="97" y="117"/>
      <point x="97" y="130" type="qcurve"/>
      <point x="97" y="237"/>
      <point x="247" y="388"/>
      <point x="354" y="388" type="qcurve"/>
      <point x="424" y="388"/>
      <point x="542" y="319"/>
      <point x="576" y="261" type="qcurve"/>
      <point x="590" y="320"/>
      <point x="558" y="438"/>
      <point x="513" y="483" type="qcurve"/>
      <point x="444" y="552"/>
      <point x="252" y="555"/>
      <point x="185" y="487" type="qcurve"/>
      <point x="158" y="461"/>
      <point x="142" y="427" type="qcurve"/>
      <point x="27" y="542" type="line"/>
      <point x="48" y="572"/>
      <point x="74" y="598" type="qcurve"/>
      <point x="147" y="672"/>
      <point x="346" y="722"/>
      <point x="547" y="666"/>
      <point x="623" y="590" type="qcurve"/>
      <point x="698" y="514"/>
      <point x="754" y="314"/>
      <point x="704" y="115"/>
      <point x="630" y="42" type="qcurve"/>
      <point x="604" y="16"/>
      <point x="574" y="-5" type="qcurve"/>
      <point x="465" y="104" type="line"/>
      <point x="458" y="104" type="line"/>
      <point x="458" y="107"/>
      <point x="459" y="110" type="qcurve"/>
      <point x="456" y="113" type="line"/>
      <point x="458" y="113"/>
      <point x="460" y="114" type="qcurve"/>
      <point x="461" y="122"/>
      <point x="461" y="130" type="qcurve"/>
      <point x="461" y="175"/>
      <point x="399" y="237"/>
      <point x="354" y="237" type="qcurve"/>
      <point x="310" y="237"/>
      <point x="248" y="175"/>
      <point x="248" y="130" type="qcurve"/>
      <point x="248" y="117"/>
      <point x="251" y="104" type="qcurve"/>
    </contour>
  </outline>
</glyph>
<glyph name="uni0990" format="2">
  <advance width="956"/>
  <unicode hex="0990"/>
  <outline>
    <contour>
      <point x="592" y="450" type="line"/>
      <point x="602" y="446"/>
      <point x="633" y="434"/>
      <point x="710" y="414"/>
      <point x="736" y="414" type="qcurve"/>
      <point x="766" y="414"/>
      <point x="775" y="453" type="qcurve"/>
      <point x="793" y="530"/>
      <point x="725" y="697"/>
      <point x="663" y="759" type="qcurve"/>
      <point x="639" y="783"/>
      <point x="534" y="810"/>
      <point x="511" y="834" type="qcurve"/>
      <point x="495" y="849"/>
      <point x="474" y="909"/>
      <point x="472" y="932" type="qcurve"/>
      <point x="470" y="954" type="line"/>
      <point x="558" y="1042" type="line"/>
      <point x="559" y="1033"/>
      <point x="563" y="1002"/>
      <point x="586" y="935"/>
      <point x="602" y="919" type="qcurve"/>
      <point x="624" y="897"/>
      <point x="727" y="873"/>
      <point x="750" y="851" type="qcurve"/>
      <point x="820" y="780" type="line"/>
      <point x="836" y="764"/>
      <point x="875" y="679"/>
      <point x="905" y="566"/>
      <point x="917" y="455"/>
      <point x="886" y="361"/>
      <point x="847" y="342" type="qcurve"/>
      <point x="783" y="312"/>
      <point x="724" y="312" type="qcurve"/>
      <point x="700" y="312"/>
      <point x="632" y="327"/>
      <point x="610" y="334" type="qcurve"/>
      <point x="589" y="342" type="line"/>
    </contour>
    <contour>
      <point x="12" y="318" type="qcurve"/>
      <point x="180" y="318" type="line"/>
      <point x="154" y="287"/>
      <point x="154" y="248" type="qcurve"/>
      <point x="154" y="198"/>
      <point x="190" y="166" type="qcurve"/>
      <point x="554" y="166" type="line"/>
      <point x="554" y="0" type="line"/>
      <point x="190" y="2" type="line"/>
      <point x="107" y="26"/>
      <point x="2" y="161"/>
      <point x="2" y="248" type="qcurve"/>
      <point x="2" y="285"/>
    </contour>
    <contour>
      <point x="305" y="752" type="line"/>
      <point x="340" y="761"/>
      <point x="376" y="761" type="qcurve"/>
      <point x="463" y="761"/>
      <point x="597" y="657"/>
      <point x="621" y="574" type="qcurve"/>
      <point x="624" y="-3" type="line"/>
      <point x="457" y="-3" type="line"/>
      <point x="457" y="573" type="line"/>
      <point x="425" y="610"/>
      <point x="376" y="610" type="qcurve"/>
      <point x="336" y="610"/>
      <point x="305" y="584" type="qcurve"/>
    </contour>
  </outline>
</glyph>
<glyph name="uni0993" format="2">
  <advance width="616"/>
  <unicode hex="0993"/>
  <outline>
    <contour>
      <point x="287" y="682" type="qcurve"/>
      <point x="347" y="685"/>
      <point x="419" y="623"/>
      <point x="419" y="565" type="qcurve"/>
      <point x="419" y="527"/>
      <point x="371" y="469"/>
      <point x="334" y="461" type="qcurve"/>
      <point x="334" y="462" type="line"/>
      <point x="322" y="459"/>
      <point x="310" y="459" type="qcurve"/>
      <point x="334" y="364" type="line"/>
      <point x="334" y="365" type="line"/>
      <point x="371" y="357"/>
      <point x="419" y="299"/>
      <point x="419" y="260" type="qcurve"/>
      <point x="419" y="215"/>
      <point x="357" y="155"/>
      <point x="310" y="154" type="qcurve"/>
      <point x="263" y="155"/>
      <point x="201" y="215"/>
      <point x="201" y="260" type="qcurve"/>
      <point x="201" y="309"/>
      <point x="217" y="354" type="qcurve"/>
      <point x="225" y="373"/>
      <point x="210" y="386"/>
      <point x="162" y="398" type="qcurve"/>
      <point x="130" y="406"/>
      <point x="108" y="412" type="qcurve"/>
      <point x="107" y="412"/>
      <point x="105" y="411" type="qcurve"/>
      <point x="96" y="408" type="line"/>
      <point x="50" y="342"/>
      <point x="50" y="260" type="qcurve"/>
      <point x="50" y="158"/>
      <point x="189" y="10"/>
      <point x="290" y="4" type="qcurve"/>
      <point x="296" y="3"/>
      <point x="304" y="3" type="qcurve"/>
      <point x="306" y="3"/>
      <point x="308" y="3" type="qcurve"/>
      <point x="309" y="3"/>
      <point x="309" y="3" type="qcurve"/>
      <point x="309" y="3"/>
      <point x="311" y="3"/>
      <point x="312" y="3" type="qcurve"/>
      <point x="419" y="3"/>
      <point x="570" y="153"/>
      <point x="570" y="260" type="qcurve"/>
      <point x="570" y="345"/>
      <point x="520" y="413" type="qcurve"/>
      <point x="568" y="478"/>
      <point x="570" y="565" type="qcurve"/>
      <point x="572" y="681"/>
      <point x="437" y="823"/>
      <point x="331" y="808" type="qcurve"/>
      <point x="308" y="805"/>
      <point x="251" y="780"/>
      <point x="211" y="760"/>
      <point x="207" y="760" type="qcurve"/>
      <point x="206" y="760"/>
      <point x="216" y="718"/>
      <point x="226" y="676"/>
      <point x="225" y="676" type="qcurve"/>
      <point x="239" y="679"/>
    </contour>
  </outline>
</glyph>
<glyph name="uni0994" format="2">
  <advance width="616"/>
  <unicode hex="0994"/>
  <outline>
    <contour>
      <point x="518" y="450" type="line"/>
      <point x="528" y="446"/>
      <point x="559" y="434"/>
      <point x="636" y="414"/>
      <point x="662" y="414" type="qcurve"/>
      <point x="692" y="414"/>
      <point x="701" y="453" type="qcurve"/>
      <point x="719" y="530"/>
      <point x="651" y="697"/>
      <point x="589" y="759" type="qcurve"/>
      <point x="565" y="783"/>
      <point x="460" y="810"/>
      <point x="437" y="834" type="qcurve"/>
      <point x="421" y="849"/>
      <point x="400" y="909"/>
      <point x="398" y="932" type="qcurve"/>
      <point x="396" y="954" type="line"/>
      <point x="484" y="1042" type="line"/>
      <point x="485" y="1033"/>
      <point x="489" y="1002"/>
      <point x="512" y="935"/>
      <point x="528" y="919" type="qcurve"/>
      <point x="550" y="897"/>
      <point x="653" y="873"/>
      <point x="676" y="851" type="qcurve"/>
      <point x="746" y="780" type="line"/>
      <point x="762" y="764"/>
      <point x="801" y="679"/>
      <point x="831" y="566"/>
      <point x="843" y="455"/>
      <point x="812" y="361"/>
      <point x="773" y="342" type="qcurve"/>
      <point x="709" y="312"/>
      <point x="650" y="312" type="qcurve"/>
      <point x="626" y="312"/>
      <point x="558" y="327"/>
      <point x="536" y="334" type="qcurve"/>
      <point x="515" y="342" type="line"/>
    </contour>
    <contour>
      <point x="287" y="682" type="qcurve"/>
      <point x="239" y="679"/>
      <point x="225" y="676" type="qcurve"/>
      <point x="226" y="676"/>
      <point x="216" y="718"/>
      <point x="206" y="760"/>
      <point x="207" y="760" type="qcurve"/>
      <point x="211" y="760"/>
      <point x="251" y="780"/>
      <point x="308" y="805"/>
      <point x="331" y="808" type="qcurve"/>
      <point x="437" y="823"/>
      <point x="572" y="681"/>
      <point x="570" y="565" type="qcurve"/>
      <point x="568" y="478"/>
      <point x="520" y="413" type="qcurve"/>
      <point x="570" y="345"/>
      <point x="570" y="260" type="qcurve"/>
      <point x="570" y="153"/>
      <point x="419" y="3"/>
      <point x="312" y="3" type="qcurve"/>
      <point x="311" y="3"/>
      <point x="309" y="3"/>
      <point x="309" y="3" type="qcurve"/>
      <point x="309" y="3"/>
      <point x="308" y="3" type="qcurve"/>
      <point x="306" y="3"/>
      <point x="304" y="3" type="qcurve"/>
      <point x="296" y="3"/>
      <point x="290" y="4" type="qcurve"/>
      <point x="189" y="10"/>
      <point x="50" y="158"/>
      <point x="50" y="260" type="qcurve"/>
      <point x="50" y="342"/>
      <point x="96" y="408" type="qcurve"/>
      <point x="105" y="411" type="line"/>
      <point x="108" y="412"/>
      <point x="108" y="412" type="qcurve"/>
      <point x="209" y="384"/>
      <point x="212" y="383" type="qcurve"/>
      <point x="225" y="377"/>
      <point x="220" y="361" type="qcurve"/>
      <point x="204" y="313"/>
      <point x="202" y="285" type="qcurve"/>
      <point x="201" y="273"/>
      <point x="201" y="260" type="qcurve"/>
      <point x="201" y="215"/>
      <point x="263" y="155"/>
      <point x="310" y="154" type="qcurve"/>
      <point x="357" y="155"/>
      <point x="419" y="215"/>
      <point x="419" y="260" type="qcurve"/>
      <point x="419" y="299"/>
      <point x="371" y="357"/>
      <point x="334" y="365" type="qcurve"/>
      <point x="334" y="364" type="line"/>
      <point x="310" y="459" type="line"/>
      <point x="322" y="459"/>
      <point x="334" y="462" type="qcurve"/>
      <point x="334" y="461" type="line"/>
      <point x="371" y="469"/>
      <point x="419" y="527"/>
      <point x="419" y="565" type="qcurve"/>
      <point x="419" y="623"/>
      <point x="347" y="685"/>
    </contour>
  </outline>
</glyph>
<glyph name="uni0996" format="2">
  <advance width="752"/>
  <unicode hex="0996"/>
  <outline>
    <contour>
      <point x="320" y="714" type="line"/>
      <point x="452" y="714" type="line"/>
      <point x="336" y="444" type="line"/>
      <point x="288" y="509" type="line"/>
    </contour>
    <contour>
      <point x="335" y="598" type="line"/>
      <point x="335" y="446" type="line"/>
      <point x="194" y="274" type="line"/>
      <point x="503" y="160" type="line"/>
      <point x="503" y="2" type="line"/>
      <point x="50" y="180" type="line"/>
      <point x="50" y="332" type="line"/>
    </contour>
    <contour>
      <point x="724" y="803" type="line"/>
      <point x="724" y="671" type="line"/>
      <point x="526" y="671" type="line"/>
      <point x="526" y="803" type="line"/>
    </contour>
    <contour>
      <point x="504" y="777" type="line"/>
      <point x="650" y="777" type="line"/>
      <point x="650" y="1" type="line"/>
      <point x="504" y="1" type="line"/>
    </contour>
    <contour>
      <point x="318" y="713" type="line"/>
      <point x="318" y="713"/>
      <point x="318" y="694" type="qcurve"/>
      <point x="318" y="613"/>
      <point x="205" y="500"/>
      <point x="126" y="500" type="qcurve"/>
      <point x="44" y="500"/>
      <point x="-68" y="613"/>
      <point x="-68" y="694" type="qcurve"/>
      <point x="-68" y="713" type="line"/>
      <point x="48" y="713" type="line"/>
      <point x="44" y="704"/>
      <point x="44" y="694" type="qcurve"/>
      <point x="44" y="660"/>
      <point x="92" y="613"/>
      <point x="159" y="613"/>
      <point x="204" y="660"/>
      <point x="204" y="694" type="qcurve"/>
      <point x="204" y="704"/>
      <point x="202" y="713" type="qcurve"/>
    </contour>
  </outline>
</glyph>
<glyph name="u0997" format="2">
  <advance width="638"/>
  <unicode hex="0997"/>
  <outline>
    <contour>
      <point x="19" y="383" type="qcurve"/>
      <point x="86" y="495" type="line"/>
      <point x="93" y="488"/>
      <point x="108" y="483" type="qcurve"/>
      <point x="148" y="466"/>
      <point x="211" y="474"/>
      <point x="231" y="498" type="qcurve"/>
      <point x="254" y="525"/>
      <point x="209" y="537" type="qcurve"/>
      <point x="197" y="540"/>
      <point x="155" y="547" type="qcurve"/>
      <point x="89" y="573"/>
      <point x="9" y="642"/>
      <point x="-7" y="726"/>
      <point x="31" y="770" type="qcurve"/>
      <point x="78" y="827"/>
      <point x="278" y="850"/>
      <point x="374" y="809" type="qcurve"/>
      <point x="382" y="805"/>
      <point x="438" y="778" type="qcurve"/>
      <point x="438" y="850" type="line"/>
      <point x="590" y="850" type="line"/>
      <point x="590" y="803" type="line"/>
      <point x="638" y="803" type="line"/>
      <point x="638" y="671" type="line"/>
      <point x="590" y="671" type="line"/>
      <point x="590" y="-2" type="line"/>
      <point x="438" y="-2" type="line"/>
      <point x="438" y="613" type="line"/>
      <point x="423" y="621"/>
      <point x="312" y="678"/>
      <point x="307" y="680" type="qcurve"/>
      <point x="266" y="696"/>
      <point x="226" y="688"/>
      <point x="206" y="664" type="qcurve"/>
      <point x="181" y="638"/>
      <point x="190" y="619"/>
      <point x="237" y="611" type="qcurve"/>
      <point x="276" y="594"/>
      <point x="334" y="565"/>
      <point x="387" y="525"/>
      <point x="410" y="486"/>
      <point x="405" y="437"/>
      <point x="383" y="411" type="qcurve"/>
      <point x="336" y="354"/>
      <point x="136" y="329"/>
      <point x="41" y="370" type="qcurve"/>
      <point x="33" y="372"/>
    </contour>
  </outline>
</glyph>
<glyph name="uni0997" format="2">
  <advance width="690"/>
  <unicode hex="0997"/>
  <outline>
    <contour>
      <point x="687" y="803" type="line"/>
      <point x="687" y="671" type="line"/>
      <point x="525" y="671" type="line"/>
      <point x="525" y="803" type="line"/>
    </contour>
    <contour>
      <point x="487" y="850" type="line"/>
      <point x="639" y="850" type="line"/>
      <point x="639" y="-2" type="line"/>
      <point x="487" y="-2" type="line"/>
    </contour>
    <contour>
      <point x="68" y="383" type="qcurve"/>
      <point x="135" y="495" type="line"/>
      <point x="142" y="488"/>
      <point x="157" y="483" type="qcurve"/>
      <point x="197" y="466"/>
      <point x="260" y="474"/>
      <point x="280" y="498" type="qcurve"/>
      <point x="303" y="525"/>
      <point x="258" y="537" type="qcurve"/>
      <point x="246" y="540"/>
      <point x="204" y="547" type="qcurve"/>
      <point x="138" y="573"/>
      <point x="58" y="642"/>
      <point x="42" y="726"/>
      <point x="80" y="770" type="qcurve"/>
      <point x="127" y="827"/>
      <point x="327" y="850"/>
      <point x="423" y="809" type="qcurve"/>
      <point x="432" y="805"/>
      <point x="551" y="746"/>
      <point x="556" y="742" type="qcurve"/>
      <point x="489" y="612" type="line"/>
      <point x="484" y="615"/>
      <point x="362" y="678"/>
      <point x="356" y="680" type="qcurve"/>
      <point x="315" y="696"/>
      <point x="275" y="688"/>
      <point x="255" y="664" type="qcurve"/>
      <point x="230" y="638"/>
      <point x="239" y="619"/>
      <point x="286" y="611" type="qcurve"/>
      <point x="325" y="594"/>
      <point x="383" y="565"/>
      <point x="436" y="525"/>
      <point x="459" y="486"/>
      <point x="454" y="437"/>
      <point x="432" y="411" type="qcurve"/>
      <point x="385" y="354"/>
      <point x="185" y="329"/>
      <point x="90" y="370" type="qcurve"/>
      <point x="82" y="372"/>
    </contour>
  </outline>
</glyph>
<glyph name="uni099D" format="2">
  <advance width="944"/>
  <unicode hex="099D"/>
  <outline>
    <contour>
      <point x="673" y="287" type="line"/>
      <point x="855" y="105" type="line"/>
      <point x="747" y="-2" type="line"/>
      <point x="565" y="180" type="line"/>
    </contour>
    <contour>
      <point x="749" y="0" type="line"/>
      <point x="749" y="776" type="line"/>
      <point x="901" y="776" type="line"/>
      <point x="901" y="0" type="line"/>
    </contour>
    <contour>
      <point x="582" y="626" type="line"/>
      <point x="582" y="474" type="line"/>
      <point x="214" y="350" type="line"/>
      <point x="524" y="154" type="line"/>
      <point x="524" y="2" type="line"/>
      <point x="70" y="274" type="line"/>
      <point x="70" y="426" type="line"/>
    </contour>
    <contour>
      <point x="944" y="803" type="line"/>
      <point x="944" y="671" type="line"/>
      <point x="0" y="671" type="line"/>
      <point x="0" y="803" type="line"/>
    </contour>
    <contour>
      <point x="524" y="777" type="line"/>
      <point x="670" y="777" type="line"/>
      <point x="670" y="1" type="line"/>
      <point x="524" y="1" type="line"/>
    </contour>
  </outline>
</glyph>
<glyph name="uni099E" format="2">
  <advance width="821"/>
  <unicode hex="099E"/>
  <outline>
    <contour>
      <point x="638" y="544" type="qcurve"/>
      <point x="613" y="542"/>
      <point x="606" y="541" type="qcurve"/>
      <point x="607" y="541"/>
      <point x="602" y="562"/>
      <point x="597" y="583"/>
      <point x="598" y="583" type="qcurve"/>
      <point x="600" y="583"/>
      <point x="620" y="593"/>
      <point x="648" y="605"/>
      <point x="660" y="607" type="qcurve"/>
      <point x="713" y="614"/>
      <point x="780" y="543"/>
      <point x="779" y="485" type="qcurve"/>
      <point x="778" y="442"/>
      <point x="754" y="409" type="qcurve"/>
      <point x="779" y="375"/>
      <point x="779" y="333" type="qcurve"/>
      <point x="779" y="279"/>
      <point x="704" y="204"/>
      <point x="650" y="204" type="qcurve"/>
      <point x="650" y="204"/>
      <point x="649" y="204"/>
      <point x="648" y="204" type="qcurve"/>
      <point x="647" y="204"/>
      <point x="646" y="204" type="qcurve"/>
      <point x="642" y="204"/>
      <point x="639" y="205" type="qcurve"/>
      <point x="588" y="208"/>
      <point x="519" y="282"/>
      <point x="519" y="333" type="qcurve"/>
      <point x="519" y="374"/>
      <point x="542" y="407" type="qcurve"/>
      <point x="547" y="408" type="line"/>
      <point x="548" y="409" type="line"/>
      <point x="559" y="406"/>
      <point x="575" y="402" type="qcurve"/>
      <point x="599" y="395"/>
      <point x="606" y="390"/>
      <point x="602" y="380" type="qcurve"/>
      <point x="594" y="357"/>
      <point x="594" y="333" type="qcurve"/>
      <point x="594" y="310"/>
      <point x="625" y="280"/>
      <point x="649" y="280" type="qcurve"/>
      <point x="673" y="280"/>
      <point x="704" y="310"/>
      <point x="704" y="333" type="qcurve"/>
      <point x="704" y="352"/>
      <point x="680" y="381"/>
      <point x="661" y="385" type="qcurve"/>
      <point x="649" y="432" type="line"/>
      <point x="655" y="432"/>
      <point x="661" y="434" type="qcurve"/>
      <point x="661" y="433" type="line"/>
      <point x="680" y="437"/>
      <point x="704" y="466"/>
      <point x="704" y="485" type="qcurve"/>
      <point x="704" y="514"/>
      <point x="667" y="545"/>
    </contour>
    <contour>
      <point x="305" y="752" type="line"/>
      <point x="340" y="761"/>
      <point x="376" y="761" type="qcurve"/>
      <point x="463" y="761"/>
      <point x="597" y="657"/>
      <point x="621" y="574" type="qcurve"/>
      <point x="624" y="-3" type="line"/>
      <point x="457" y="-3" type="line"/>
      <point x="457" y="573" type="line"/>
      <point x="425" y="610"/>
      <point x="376" y="610" type="qcurve"/>
      <point x="336" y="610"/>
      <point x="305" y="584" type="qcurve"/>
    </contour>
    <contour>
      <point x="12" y="318" type="qcurve"/>
      <point x="180" y="318" type="line"/>
      <point x="154" y="287"/>
      <point x="154" y="248" type="qcurve"/>
      <point x="154" y="198"/>
      <point x="190" y="166" type="qcurve"/>
      <point x="554" y="166" type="line"/>
      <point x="554" y="0" type="line"/>
      <point x="190" y="2" type="line"/>
      <point x="107" y="26"/>
      <point x="2" y="161"/>
      <point x="2" y="248" type="qcurve"/>
      <point x="2" y="285"/>
    </contour>
  </outline>
</glyph>
<glyph name="uni09A1" format="2">
  <advance width="616"/>
  <unicode hex="09A1"/>
  <outline>
    <contour>
      <point x="309" y="751" type="line"/>
      <point x="441" y="751" type="line"/>
      <point x="441" y="366" type="line"/>
      <point x="309" y="366" type="line"/>
    </contour>
    <contour>
      <point x="616" y="803" type="line"/>
      <point x="616" y="671" type="line"/>
      <point x="0" y="671" type="line"/>
      <point x="0" y="803" type="line"/>
    </contour>
    <contour>
      <point x="311" y="367" type="qcurve"/>
      <point x="310" y="518"/>
      <point x="309" y="518" type="qcurve"/>
      <point x="419" y="518"/>
      <point x="573" y="368"/>
      <point x="570" y="260" type="qcurve"/>
      <point x="567" y="151"/>
      <point x="417" y="3"/>
      <point x="309" y="3" type="qcurve"/>
      <point x="247" y="3"/>
      <point x="149" y="47"/>
      <point x="88" y="121"/>
      <point x="56" y="212"/>
      <point x="56" y="261" type="qcurve"/>
      <point x="201" y="261" type="line"/>
      <point x="201" y="261"/>
      <point x="201" y="260" type="qcurve"/>
      <point x="201" y="215"/>
      <point x="263" y="155"/>
      <point x="310" y="154" type="qcurve"/>
      <point x="357" y="155"/>
      <point x="419" y="215"/>
      <point x="419" y="260" type="qcurve"/>
      <point x="419" y="306"/>
      <point x="358" y="366"/>
    </contour>
  </outline>
</glyph>
<glyph name="uni09A3" format="2">
  <advance width="613"/>
  <unicode hex="09A3"/>
  <outline>
    <contour>
      <point x="51" y="468" type="line"/>
      <point x="50" y="481"/>
      <point x="50" y="494" type="qcurve"/>
      <point x="50" y="602"/>
      <point x="200" y="752"/>
      <point x="307" y="752" type="qcurve"/>
      <point x="414" y="752"/>
      <point x="565" y="602"/>
      <point x="565" y="494" type="qcurve"/>
      <point x="565" y="481"/>
      <point x="564" y="468" type="qcurve"/>
      <point x="411" y="468" type="line"/>
      <point x="414" y="481"/>
      <point x="414" y="494" type="qcurve"/>
      <point x="414" y="540"/>
      <point x="352" y="602"/>
      <point x="307" y="602" type="qcurve"/>
      <point x="263" y="602"/>
      <point x="201" y="539"/>
      <point x="201" y="494" type="qcurve"/>
      <point x="201" y="481"/>
      <point x="204" y="468" type="qcurve"/>
    </contour>
    <contour>
      <point x="612" y="803" type="line"/>
      <point x="612" y="671" type="line"/>
      <point x="450" y="671" type="line"/>
      <point x="450" y="803" type="line"/>
    </contour>
    <contour>
      <point x="412" y="850" type="line"/>
      <point x="564" y="850" type="line"/>
      <point x="564" y="-2" type="line"/>
      <point x="412" y="-2" type="line"/>
    </contour>
  </outline>
</glyph>
<glyph name="u09a4" format="2">
  <advance width="726"/>
  <unicode hex="09A4"/>
  <outline>
    <contour>
      <point x="726" y="803" type="line"/>
      <point x="726" y="671" type="line"/>
      <point x="0" y="671" type="line"/>
      <point x="0" y="803" type="line"/>
    </contour>
    <contour>
      <point x="390" y="513" type="qcurve"/>
      <point x="390" y="512"/>
      <point x="393" y="573"/>
      <point x="394" y="604" type="qcurve"/>
      <point x="396" y="634" type="line"/>
      <point x="397" y="634"/>
      <point x="398" y="634" type="qcurve"/>
      <point x="525" y="634"/>
      <point x="704" y="450"/>
      <point x="704" y="320" type="qcurve"/>
      <point x="704" y="189"/>
      <point x="525" y="5"/>
      <point x="271" y="5"/>
      <point x="92" y="189"/>
      <point x="92" y="320" type="qcurve"/>
      <point x="92" y="320"/>
      <point x="204" y="331"/>
      <point x="204" y="332" type="qcurve"/>
      <point x="204" y="329"/>
      <point x="204" y="326" type="qcurve"/>
      <point x="204" y="248"/>
      <point x="311" y="138"/>
      <point x="463" y="138"/>
      <point x="570" y="248"/>
      <point x="570" y="326" type="qcurve"/>
      <point x="570" y="403"/>
      <point x="465" y="512"/>
    </contour>
  </outline>
</glyph>
<glyph name="uni09A5" format="2">
  <advance width="723"/>
  <unicode hex="09A5"/>
  <outline>
    <contour>
      <point x="242" y="783" type="line"/>
      <point x="253" y="785"/>
      <point x="261" y="784" type="qcurve"/>
      <point x="347" y="784"/>
      <point x="462" y="669"/>
      <point x="468" y="579" type="qcurve"/>
      <point x="470" y="541"/>
      <point x="442" y="472"/>
      <point x="399" y="422"/>
      <point x="330" y="369"/>
      <point x="275" y="338"/>
      <point x="198" y="294"/>
      <point x="180" y="283" type="qcurve"/>
      <point x="524" y="167" type="line"/>
      <point x="524" y="671" type="line"/>
      <point x="524" y="777" type="line"/>
      <point x="524" y="803" type="line"/>
      <point x="723" y="803" type="line"/>
      <point x="723" y="671" type="line"/>
      <point x="670" y="671" type="line"/>
      <point x="670" y="1" type="line"/>
      <point x="524" y="1" type="line"/>
      <point x="524" y="16" type="line"/>
      <point x="88" y="197" type="line"/>
      <point x="88" y="349" type="line"/>
      <point x="311" y="518" type="line"/>
      <point x="311" y="513"/>
      <point x="312" y="508" type="qcurve"/>
      <point x="349" y="533"/>
      <point x="349" y="579" type="qcurve"/>
      <point x="349" y="614"/>
      <point x="299" y="664"/>
      <point x="263" y="664" type="qcurve"/>
      <point x="253" y="664"/>
      <point x="242" y="661" type="qcurve"/>
    </contour>
  </outline>
</glyph>
<glyph name="uni09A7" format="2">
  <advance width="752"/>
  <unicode hex="09A7"/>
  <outline>
    <contour>
      <point x="561" y="626" type="line"/>
      <point x="561" y="474" type="line"/>
      <point x="194" y="350" type="line"/>
      <point x="503" y="154" type="line"/>
      <point x="503" y="2" type="line"/>
      <point x="50" y="274" type="line"/>
      <point x="50" y="426" type="line"/>
    </contour>
    <contour>
      <point x="702" y="803" type="line"/>
      <point x="702" y="671" type="line"/>
      <point x="504" y="671" type="line"/>
      <point x="504" y="803" type="line"/>
    </contour>
    <contour>
      <point x="504" y="777" type="line"/>
      <point x="650" y="777" type="line"/>
      <point x="650" y="1" type="line"/>
      <point x="504" y="1" type="line"/>
    </contour>
    <contour>
      <point x="355" y="414" type="line"/>
      <point x="355" y="414"/>
      <point x="336" y="414" type="qcurve"/>
      <point x="255" y="414"/>
      <point x="142" y="526"/>
      <point x="142" y="606" type="qcurve"/>
      <point x="142" y="686"/>
      <point x="255" y="800"/>
      <point x="336" y="800" type="qcurve"/>
      <point x="355" y="800" type="line"/>
      <point x="355" y="684" type="line"/>
      <point x="346" y="686"/>
      <point x="336" y="686" type="qcurve"/>
      <point x="302" y="686"/>
      <point x="255" y="639"/>
      <point x="255" y="572"/>
      <point x="302" y="526"/>
      <point x="336" y="526" type="qcurve"/>
      <point x="346" y="526"/>
      <point x="355" y="530" type="qcurve"/>
    </contour>
  </outline>
</glyph>
<glyph name="uni09AB" format="2">
  <advance width="1167"/>
  <unicode hex="09AB"/>
  <outline>
    <contour>
      <point x="646" y="294" type="line"/>
      <point x="644" y="307"/>
      <point x="644" y="320" type="qcurve"/>
      <point x="644" y="428"/>
      <point x="795" y="578"/>
      <point x="902" y="578" type="qcurve"/>
      <point x="1009" y="578"/>
      <point x="1160" y="428"/>
      <point x="1160" y="320" type="qcurve"/>
      <point x="1160" y="307"/>
      <point x="1158" y="294" type="qcurve"/>
      <point x="1005" y="294" type="line"/>
      <point x="1008" y="307"/>
      <point x="1008" y="320" type="qcurve"/>
      <point x="1008" y="366"/>
      <point x="946" y="428"/>
      <point x="902" y="428" type="qcurve"/>
      <point x="857" y="428"/>
      <point x="796" y="365"/>
      <point x="796" y="320" type="qcurve"/>
      <point x="796" y="307"/>
      <point x="799" y="294" type="qcurve"/>
    </contour>
    <contour>
      <point x="1167" y="803" type="line"/>
      <point x="1167" y="671" type="line"/>
      <point x="0" y="671" type="line"/>
      <point x="0" y="803" type="line"/>
    </contour>
    <contour>
      <point x="644" y="323" type="line"/>
      <point x="796" y="323" type="line"/>
      <point x="796" y="-2" type="line"/>
      <point x="644" y="-2" type="line"/>
    </contour>
    <contour>
      <point x="77" y="180" type="line"/>
      <point x="108" y="327" type="line"/>
      <point x="379" y="487" type="line"/>
      <point x="90" y="691" type="line"/>
      <point x="121" y="803" type="line"/>
      <point x="540" y="569" type="line"/>
      <point x="509" y="422" type="line"/>
      <point x="302" y="262" type="line"/>
      <point x="681" y="145" type="line"/>
      <point x="650" y="-2" type="line"/>
    </contour>
  </outline>
</glyph>
<glyph name="uni09AC" format="2">
  <advance width="723"/>
  <unicode hex="09AC"/>
  <outline>
    <contour>
      <point x="582" y="626" type="line"/>
      <point x="582" y="474" type="line"/>
      <point x="214" y="350" type="line"/>
      <point x="524" y="154" type="line"/>
      <point x="524" y="2" type="line"/>
      <point x="70" y="274" type="line"/>
      <point x="70" y="426" type="line"/>
    </contour>
    <contour>
      <point x="723" y="803" type="line"/>
      <point x="723" y="671" type="line"/>
      <point x="0" y="671" type="line"/>
      <point x="0" y="803" type="line"/>
    </contour>
    <contour>
      <point x="524" y="777" type="line"/>
      <point x="670" y="777" type="line"/>
      <point x="670" y="1" type="line"/>
      <point x="524" y="1" type="line"/>
    </contour>
  </outline>
</glyph>
<glyph name="u09AE" format="2">
  <advance width="776"/>
  <unicode hex="09AE"/>
  <outline>
    <contour>
      <point x="313" y="446" type="line"/>
    </contour>
    <contour>
      <point x="776" y="803" type="line"/>
      <point x="776" y="671" type="line"/>
      <point x="755" y="671" type="line"/>
      <point x="755" y="0" type="line"/>
      <point x="603" y="0" type="line"/>
      <point x="601" y="-2" type="line"/>
      <point x="485" y="114" type="line"/>
      <point x="450" y="63"/>
      <point x="338" y="3"/>
      <point x="273" y="3" type="qcurve"/>
      <point x="272" y="3"/>
      <point x="271" y="3" type="qcurve" smooth="yes"/>
      <point x="270" y="3" type="line"/>
      <point x="269" y="3" type="line"/>
      <point x="267" y="3"/>
      <point x="265" y="3" type="qcurve"/>
      <point x="257" y="3"/>
      <point x="251" y="4" type="qcurve"/>
      <point x="150" y="10"/>
      <point x="11" y="158"/>
      <point x="11" y="260" type="qcurve"/>
      <point x="11" y="319"/>
      <point x="60" y="421"/>
      <point x="103" y="458" type="qcurve"/>
      <point x="33" y="558"/>
      <point x="97" y="671" type="qcurve"/>
      <point x="0" y="671" type="line"/>
      <point x="0" y="803" type="line"/>
    </contour>
    <contour>
      <point x="271" y="367" type="qcurve"/>
      <point x="258" y="367"/>
      <point x="247" y="364" type="qcurve"/>
      <point x="247" y="365" type="line"/>
      <point x="210" y="357"/>
      <point x="162" y="299"/>
      <point x="162" y="260" type="qcurve"/>
      <point x="162" y="222"/>
      <point x="210" y="164"/>
      <point x="247" y="156" type="qcurve"/>
      <point x="247" y="157" type="line"/>
      <point x="258" y="154"/>
      <point x="271" y="154" type="qcurve"/>
      <point x="283" y="154"/>
      <point x="295" y="157" type="qcurve"/>
      <point x="295" y="156" type="line"/>
      <point x="332" y="164"/>
      <point x="380" y="222"/>
      <point x="380" y="260" type="qcurve"/>
      <point x="380" y="299"/>
      <point x="332" y="357"/>
      <point x="295" y="365" type="qcurve"/>
      <point x="295" y="364" type="line"/>
      <point x="283" y="367"/>
    </contour>
    <contour>
      <point x="603" y="195" type="line"/>
      <point x="603" y="671" type="line"/>
      <point x="356" y="671" type="line"/>
      <point x="346" y="664"/>
      <point x="342" y="666" type="qcurve"/>
      <point x="337" y="669"/>
      <point x="331" y="671" type="qcurve"/>
      <point x="292" y="671" type="line"/>
      <point x="266" y="660"/>
      <point x="232" y="603" type="qcurve"/>
      <point x="208" y="562"/>
      <point x="227" y="515" type="qcurve"/>
      <point x="239" y="517"/>
      <point x="251" y="517" type="qcurve"/>
      <point x="257" y="518"/>
      <point x="265" y="518" type="qcurve"/>
      <point x="267" y="518"/>
      <point x="269" y="518" type="qcurve"/>
      <point x="270" y="518" type="line"/>
      <point x="271" y="518"/>
      <point x="273" y="518" type="qcurve"/>
      <point x="380" y="518"/>
      <point x="531" y="367"/>
      <point x="531" y="260" type="qcurve"/>
      <point x="531" y="258"/>
      <point x="531" y="256" type="qcurve"/>
    </contour>
  </outline>
</glyph>
<glyph name="uni09B6" format="2">
  <advance width="642"/>
  <unicode hex="09B6"/>
  <outline>
    <contour>
      <point x="642" y="803" type="line"/>
      <point x="642" y="671" type="line"/>
      <point x="482" y="671" type="line"/>
      <point x="482" y="803" type="line"/>
    </contour>
    <contour>
      <point x="530" y="487" type="line"/>
      <point x="396" y="622" type="line"/>
      <point x="420" y="703" type="line"/>
      <point x="548" y="594" type="line"/>
    </contour>
    <contour>
      <point x="442" y="847" type="line"/>
      <point x="594" y="847" type="line"/>
      <point x="594" y="-2" type="line"/>
      <point x="442" y="-2" type="line"/>
    </contour>
    <contour>
      <point x="423" y="706" type="line"/>
      <point x="423" y="590" type="line"/>
      <point x="414" y="592"/>
      <point x="404" y="592" type="qcurve"/>
      <point x="370" y="592"/>
      <point x="323" y="547"/>
      <point x="323" y="480"/>
      <point x="370" y="432"/>
      <point x="404" y="432" type="qcurve"/>
      <point x="414" y="432"/>
      <point x="423" y="436" type="qcurve"/>
      <point x="423" y="320" type="line"/>
      <point x="404" y="320" type="line"/>
      <point x="323" y="320"/>
      <point x="210" y="432"/>
      <point x="210" y="514" type="qcurve"/>
      <point x="210" y="593"/>
      <point x="323" y="706"/>
      <point x="404" y="706" type="qcurve"/>
    </contour>
    <contour>
      <point x="0" y="706" type="line"/>
      <point x="19" y="706" type="line"/>
      <point x="100" y="706"/>
      <point x="213" y="593"/>
      <point x="213" y="514" type="qcurve"/>
      <point x="213" y="432"/>
      <point x="100" y="320"/>
      <point x="19" y="320" type="qcurve"/>
      <point x="0" y="320" type="line"/>
      <point x="0" y="436" type="line"/>
      <point x="9" y="432"/>
      <point x="19" y="432" type="qcurve"/>
      <point x="53" y="432"/>
      <point x="100" y="480"/>
      <point x="100" y="547"/>
      <point x="53" y="592"/>
      <point x="19" y="592" type="qcurve"/>
      <point x="9" y="592"/>
      <point x="0" y="590" type="qcurve"/>
    </contour>
  </outline>
</glyph>
<glyph name="u09BE" format="2">
  <advance width="507"/>
  <unicode hex="09BE"/>
  <outline>
    <contour>
      <point x="307" y="847" type="line"/>
      <point x="459" y="847" type="line"/>
      <point x="459" y="803" type="line"/>
      <point x="507" y="803" type="line"/>
      <point x="507" y="671" type="line"/>
      <point x="459" y="671" type="line"/>
      <point x="459" y="-2" type="line"/>
      <point x="307" y="-2" type="line"/>
      <point x="307" y="489" type="line"/>
      <point x="305" y="487" type="line"/>
      <point x="0" y="785" type="line"/>
      <point x="201" y="782" type="line"/>
      <point x="307" y="688" type="line"/>
    </contour>
  </outline>
</glyph>
<glyph name="u09C0" format="2">
  <advance width="196"/>
  <unicode hex="09C0"/>
  <outline>
    <contour>
      <point x="196" y="803" type="line"/>
      <point x="196" y="671" type="line"/>
      <point x="151" y="671" type="line"/>
      <point x="151" y="-2" type="line"/>
      <point x="-1" y="-2" type="line"/>
      <point x="-1" y="671" type="line"/>
      <point x="-51" y="671" type="line"/>
      <point x="-51" y="803" type="line"/>
      <point x="-1" y="803" type="line"/>
      <point x="0" y="803" type="line"/>
      <point x="2" y="816"/>
      <point x="2" y="832" type="qcurve"/>
      <point x="2" y="877"/>
      <point x="-60" y="939"/>
      <point x="-105" y="939" type="qcurve"/>
      <point x="-149" y="939"/>
      <point x="-211" y="877"/>
      <point x="-211" y="832" type="qcurve"/>
      <point x="-211" y="819"/>
      <point x="-208" y="806" type="qcurve"/>
      <point x="-361" y="806" type="line"/>
      <point x="-362" y="819"/>
      <point x="-362" y="832" type="qcurve"/>
      <point x="-362" y="939"/>
      <point x="-212" y="1090"/>
      <point x="2" y="1090"/>
      <point x="153" y="939"/>
      <point x="153" y="832" type="qcurve"/>
      <point x="153" y="816"/>
      <point x="152" y="803" type="qcurve"/>
    </contour>
  </outline>
</glyph>
<glyph name="u09C8" format="2">
  <advance width="621"/>
  <unicode hex="09C8"/>
  <outline>
    <contour>
      <point x="621" y="803" type="line"/>
      <point x="621" y="671" type="line"/>
      <point x="454" y="671" type="line"/>
      <point x="389" y="661" type="line"/>
      <point x="335" y="661"/>
      <point x="236" y="556"/>
      <point x="183" y="416"/>
      <point x="183" y="356" type="qcurve"/>
      <point x="183" y="269"/>
      <point x="303" y="145"/>
      <point x="389" y="145" type="qcurve"/>
      <point x="423" y="145"/>
      <point x="454" y="156" type="qcurve"/>
      <point x="454" y="10" type="line"/>
      <point x="422" y="4"/>
      <point x="389" y="4" type="qcurve"/>
      <point x="295" y="4"/>
      <point x="137" y="98"/>
      <point x="45" y="262"/>
      <point x="45" y="358" type="qcurve"/>
      <point x="45" y="436"/>
      <point x="105" y="604"/>
      <point x="157" y="671" type="qcurve"/>
      <point x="0" y="671" type="line"/>
      <point x="0" y="803" type="line"/>
      <point x="333" y="803" type="line"/>
      <point x="324" y="849"/>
      <point x="300" y="873" type="qcurve"/>
      <point x="268" y="904"/>
      <point x="237" y="935" type="qcurve"/>
      <point x="213" y="959"/>
      <point x="108" y="986"/>
      <point x="85" y="1010" type="qcurve"/>
      <point x="69" y="1025"/>
      <point x="48" y="1085"/>
      <point x="46" y="1108" type="qcurve"/>
      <point x="44" y="1130" type="line"/>
      <point x="132" y="1218" type="line"/>
      <point x="133" y="1209"/>
      <point x="137" y="1178"/>
      <point x="160" y="1111"/>
      <point x="176" y="1095" type="qcurve"/>
      <point x="198" y="1073"/>
      <point x="301" y="1049"/>
      <point x="324" y="1027" type="qcurve"/>
      <point x="394" y="956" type="line"/>
      <point x="408" y="942"/>
      <point x="425" y="901"/>
      <point x="429" y="863"/>
      <point x="429" y="829"/>
      <point x="428" y="818.5" type="qcurve" smooth="yes"/>
      <point x="427" y="808" type="line"/>
      <point x="422" y="803" type="line"/>
    </contour>
  </outline>
</glyph>
<glyph name="u09D7" format="2">
  <advance width="254"/>
  <unicode hex="09D7"/>
  <outline>
    <contour>
      <point x="205" y="803" type="line"/>
      <point x="205" y="671" type="line"/>
      <point x="160" y="671" type="line"/>
      <point x="160" y="-2" type="line"/>
      <point x="8" y="-2" type="line"/>
      <point x="8" y="671" type="line"/>
      <point x="-50" y="671" type="line"/>
      <point x="-50" y="803" type="line"/>
      <point x="8" y="803" type="line"/>
      <point x="18" y="803" type="line"/>
      <point x="9" y="827"/>
      <point x="-6" y="842" type="qcurve"/>
      <point x="-38" y="873"/>
      <point x="-69" y="904" type="qcurve"/>
      <point x="-93" y="928"/>
      <point x="-198" y="955"/>
      <point x="-221" y="979" type="qcurve"/>
      <point x="-237" y="994"/>
      <point x="-258" y="1054"/>
      <point x="-260" y="1077" type="qcurve"/>
      <point x="-262" y="1099" type="line"/>
      <point x="-174" y="1187" type="line"/>
      <point x="-173" y="1178"/>
      <point x="-169" y="1147"/>
      <point x="-146" y="1080"/>
      <point x="-130" y="1064" type="qcurve"/>
      <point x="-108" y="1042"/>
      <point x="-5" y="1018"/>
      <point x="18" y="996" type="qcurve"/>
      <point x="19" y="994" type="line"/>
      <point x="20" y="993" type="line"/>
      <point x="22" y="991" type="line"/>
      <point x="23" y="990" type="line"/>
      <point x="24" y="989" type="line"/>
      <point x="26" y="987" type="line"/>
      <point x="27" y="986" type="line"/>
      <point x="28" y="985" type="line"/>
      <point x="30" y="984" type="line"/>
      <point x="31" y="982" type="line"/>
      <point x="32" y="981" type="line"/>
      <point x="33" y="980" type="line"/>
      <point x="34" y="979" type="line"/>
      <point x="36" y="977" type="line"/>
      <point x="37" y="976" type="line"/>
      <point x="38" y="975" type="line"/>
      <point x="39" y="974" type="line"/>
      <point x="40" y="973" type="line"/>
      <point x="41" y="972" type="line"/>
      <point x="42" y="971" type="line"/>
      <point x="43" y="970" type="line"/>
      <point x="44" y="969" type="line"/>
      <point x="46" y="968" type="line"/>
      <point x="47" y="967" type="line"/>
      <point x="48" y="966" type="line"/>
      <point x="49" y="965" type="line"/>
      <point x="50" y="964" type="line"/>
      <point x="51" y="963" type="line"/>
      <point x="52" y="962" type="line"/>
      <point x="53" y="960" type="line"/>
      <point x="54" y="959" type="line"/>
      <point x="55" y="958" type="line"/>
      <point x="56" y="957" type="line"/>
      <point x="57" y="956" type="line"/>
      <point x="58" y="956" type="line"/>
      <point x="58" y="955" type="line"/>
      <point x="59" y="954" type="line"/>
      <point x="60" y="953" type="line"/>
      <point x="61" y="953" type="line"/>
      <point x="61" y="952" type="line"/>
      <point x="62" y="951" type="line"/>
      <point x="63" y="950" type="line"/>
      <point x="64" y="949" type="line"/>
      <point x="65" y="949" type="line"/>
      <point x="65" y="948" type="line"/>
      <point x="66" y="947" type="line"/>
      <point x="67" y="946" type="line"/>
      <point x="68" y="945" type="line"/>
      <point x="69" y="945" type="line"/>
      <point x="69" y="944" type="line"/>
      <point x="70" y="943" type="line"/>
      <point x="71" y="942" type="line"/>
      <point x="72" y="941" type="line"/>
      <point x="73" y="940" type="line"/>
      <point x="74" y="940" type="line"/>
      <point x="74" y="939" type="line"/>
      <point x="75" y="938" type="line"/>
      <point x="76" y="937" type="line"/>
      <point x="77" y="936" type="line"/>
      <point x="78" y="935" type="line"/>
      <point x="79" y="934" type="line"/>
      <point x="80" y="933" type="line"/>
      <point x="81" y="932" type="line"/>
      <point x="82" y="931" type="line"/>
      <point x="83" y="930" type="line"/>
      <point x="84" y="929" type="line"/>
      <point x="85" y="929" type="line"/>
      <point x="86" y="928" type="line"/>
      <point x="87" y="927" type="line"/>
      <point x="88" y="925" type="line"/>
      <point x="126" y="887"/>
      <point x="123" y="803" type="qcurve"/>
      <point x="160" y="803" type="line"/>
    </contour>
  </outline>
</glyph>
<glyph name="u09E9" format="2">
  <advance width="726"/>
  <unicode hex="09E9"/>
  <outline>
    <contour>
      <point x="355" y="513" type="qcurve"/>
      <point x="361" y="634" type="line"/>
      <point x="362" y="634"/>
      <point x="363" y="634" type="qcurve"/>
      <point x="490" y="634"/>
      <point x="669" y="450"/>
      <point x="669" y="320" type="qcurve"/>
      <point x="669" y="189"/>
      <point x="490" y="5"/>
      <point x="236" y="5"/>
      <point x="57" y="189"/>
      <point x="57" y="320" type="qcurve"/>
      <point x="113" y="325.5" type="line" smooth="yes"/>
      <point x="169" y="331"/>
      <point x="169" y="332" type="qcurve"/>
      <point x="169" y="329"/>
      <point x="169" y="326" type="qcurve"/>
      <point x="169" y="248"/>
      <point x="276" y="138"/>
      <point x="428" y="138"/>
      <point x="535" y="248"/>
      <point x="535" y="326" type="qcurve"/>
      <point x="535" y="403"/>
      <point x="430" y="512"/>
    </contour>
  </outline>
</glyph>
<glyph name="u09EA" format="2">
  <advance width="616"/>
  <unicode hex="09EA"/>
  <outline>
    <contour>
      <point x="307" y="3" type="line"/>
      <point x="306" y="3" type="line"/>
      <point x="305" y="3"/>
      <point x="303" y="3" type="qcurve"/>
      <point x="296" y="3"/>
      <point x="291" y="4" type="qcurve"/>
      <point x="201" y="10"/>
      <point x="79" y="140"/>
      <point x="79" y="229" type="qcurve"/>
      <point x="79" y="262"/>
      <point x="134" y="364"/>
      <point x="160" y="400" type="qcurve"/>
      <point x="125" y="448"/>
      <point x="125" y="507" type="qcurve"/>
      <point x="125" y="579"/>
      <point x="223" y="683"/>
      <point x="294" y="688" type="qcurve"/>
      <point x="298" y="689"/>
      <point x="304" y="689" type="qcurve"/>
      <point x="305" y="689"/>
      <point x="308" y="689"/>
      <point x="309" y="689" type="qcurve"/>
      <point x="385" y="689"/>
      <point x="491" y="583"/>
      <point x="491" y="507" type="qcurve"/>
      <point x="491" y="448"/>
      <point x="456" y="400" type="qcurve"/>
      <point x="482" y="364"/>
      <point x="537" y="262"/>
      <point x="537" y="229" type="qcurve"/>
      <point x="537" y="136"/>
      <point x="404" y="3"/>
      <point x="310" y="3" type="qcurve"/>
      <point x="309" y="3"/>
      <point x="308" y="3" type="qcurve" smooth="yes"/>
    </contour>
    <contour>
      <point x="308" y="582" type="qcurve"/>
      <point x="299" y="582"/>
      <point x="291" y="580" type="qcurve"/>
      <point x="291" y="581" type="line"/>
      <point x="265" y="576"/>
      <point x="231" y="535"/>
      <point x="231" y="507" type="qcurve"/>
      <point x="231" y="480"/>
      <point x="265" y="439"/>
      <point x="291" y="434" type="qcurve"/>
      <point x="291" y="435" type="line"/>
      <point x="299" y="433"/>
      <point x="308" y="432" type="qcurve"/>
      <point x="317" y="433"/>
      <point x="325" y="435" type="qcurve"/>
      <point x="325" y="434" type="line"/>
      <point x="351" y="439"/>
      <point x="385" y="480"/>
      <point x="385" y="507" type="qcurve"/>
      <point x="385" y="535"/>
      <point x="351" y="576"/>
      <point x="325" y="581" type="qcurve"/>
      <point x="325" y="580" type="line"/>
      <point x="317" y="582"/>
    </contour>
    <contour>
      <point x="308" y="324" type="qcurve"/>
      <point x="297" y="323"/>
      <point x="287" y="321" type="qcurve"/>
      <point x="287" y="322" type="line"/>
      <point x="254" y="315"/>
      <point x="212" y="264"/>
      <point x="212" y="229" type="qcurve"/>
      <point x="212" y="196"/>
      <point x="254" y="145"/>
      <point x="287" y="138" type="qcurve"/>
      <point x="287" y="139" type="line"/>
      <point x="297" y="136"/>
      <point x="308" y="136" type="qcurve"/>
      <point x="319" y="136"/>
      <point x="329" y="139" type="qcurve"/>
      <point x="329" y="138" type="line"/>
      <point x="362" y="145"/>
      <point x="404" y="196"/>
      <point x="404" y="229" type="qcurve"/>
      <point x="404" y="264"/>
      <point x="362" y="315"/>
      <point x="329" y="322" type="qcurve"/>
      <point x="329" y="321" type="line"/>
      <point x="319" y="323"/>
    </contour>
  </outline>
</glyph>
<glyph name="uni09EB" format="2">
  <advance width="779"/>
  <unicode hex="09EB"/>
  <outline>
    <contour>
      <point x="736" y="479" type="line"/>
      <point x="725" y="487"/>
      <point x="714" y="493" type="qcurve"/>
      <point x="703" y="499"/>
      <point x="680" y="507"/>
      <point x="653" y="509"/>
      <point x="631" y="511"/>
      <point x="599" y="506"/>
      <point x="580" y="503"/>
      <point x="544" y="494"/>
      <point x="531" y="490"/>
      <point x="493" y="479"/>
      <point x="490" y="478" type="qcurve"/>
      <point x="384" y="601" type="line"/>
      <point x="409" y="605"/>
      <point x="434" y="603" type="qcurve"/>
      <point x="392" y="759" type="line"/>
      <point x="355" y="757"/>
      <point x="319" y="747" type="qcurve"/>
      <point x="244" y="727"/>
      <point x="123" y="631"/>
      <point x="53" y="501"/>
      <point x="30" y="347"/>
      <point x="52" y="268" type="qcurve"/>
      <point x="80" y="165"/>
      <point x="226" y="16"/>
      <point x="423" y="-40"/>
      <point x="523" y="-13" type="qcurve"/>
      <point x="559" y="-3"/>
      <point x="592" y="13" type="qcurve"/>
      <point x="552" y="161" type="line"/>
      <point x="556" y="168" type="line"/>
      <point x="553" y="169"/>
      <point x="550" y="170" type="qcurve"/>
      <point x="549" y="173" type="line"/>
      <point x="547" y="172"/>
      <point x="546" y="171" type="qcurve"/>
      <point x="538" y="174"/>
      <point x="532" y="178" type="qcurve"/>
      <point x="493" y="201"/>
      <point x="470" y="285"/>
      <point x="492" y="324" type="qcurve"/>
      <point x="515" y="363"/>
      <point x="599" y="385"/>
      <point x="638" y="363" type="qcurve"/>
      <point x="650" y="356"/>
      <point x="659" y="347" type="qcurve"/>
    </contour>
    <contour>
      <point x="355" y="384" type="line"/>
      <point x="361" y="398" type="line"/>
      <point x="362" y="400" type="line"/>
      <point x="327" y="337"/>
      <point x="327" y="203"/>
      <point x="360" y="144" type="qcurve"/>
      <point x="303" y="161"/>
      <point x="216" y="248"/>
      <point x="200" y="309" type="qcurve"/>
      <point x="185" y="366"/>
      <point x="206" y="471"/>
      <point x="238" y="513" type="qcurve"/>
    </contour>
  </outline>
</glyph>
<glyph name="uni09EC" format="2">
  <advance width="616"/>
  <unicode hex="09EC"/>
  <outline>
    <contour>
      <point x="308" y="751" type="line"/>
      <point x="440" y="751" type="line"/>
      <point x="440" y="366" type="line"/>
      <point x="308" y="366" type="line"/>
    </contour>
    <contour>
      <point x="310" y="367" type="qcurve"/>
      <point x="309" y="518"/>
      <point x="308" y="518" type="qcurve"/>
      <point x="418" y="518"/>
      <point x="572" y="368"/>
      <point x="569" y="260" type="qcurve"/>
      <point x="566" y="151"/>
      <point x="416" y="3"/>
      <point x="308" y="3" type="qcurve"/>
      <point x="246" y="3"/>
      <point x="148" y="47"/>
      <point x="87" y="121"/>
      <point x="55" y="212"/>
      <point x="55" y="261" type="qcurve"/>
      <point x="200" y="261" type="line"/>
      <point x="200" y="261"/>
      <point x="200" y="260" type="qcurve"/>
      <point x="200" y="215"/>
      <point x="262" y="155"/>
      <point x="309" y="154" type="qcurve"/>
      <point x="356" y="155"/>
      <point x="418" y="215"/>
      <point x="418" y="260" type="qcurve"/>
      <point x="418" y="306"/>
      <point x="357" y="366"/>
    </contour>
  </outline>
</glyph>
<glyph name="uni09EE" format="2">
  <advance width="692"/>
  <unicode hex="09EE"/>
  <outline>
    <contour>
      <point x="202" y="158" type="line"/>
      <point x="214" y="155"/>
      <point x="226" y="155" type="qcurve"/>
      <point x="271" y="155"/>
      <point x="333" y="216"/>
      <point x="333" y="261" type="qcurve"/>
      <point x="333" y="299"/>
      <point x="286" y="357"/>
      <point x="250" y="365" type="qcurve"/>
      <point x="204" y="365" type="line"/>
      <point x="203" y="365"/>
      <point x="202" y="365" type="qcurve"/>
    </contour>
    <contour>
      <point x="202" y="781" type="line"/>
      <point x="202" y="518" type="line"/>
      <point x="210" y="519"/>
      <point x="226" y="519" type="qcurve"/>
      <point x="240" y="519"/>
      <point x="255" y="517" type="qcurve"/>
      <point x="639" y="517" type="line"/>
      <point x="639" y="365" type="line"/>
      <point x="462" y="365" type="line"/>
      <point x="484" y="315"/>
      <point x="484" y="261" type="qcurve"/>
      <point x="484" y="154"/>
      <point x="333" y="4"/>
      <point x="226" y="4" type="qcurve"/>
      <point x="226" y="4"/>
      <point x="214" y="3"/>
      <point x="201" y="3"/>
      <point x="180" y="4"/>
      <point x="160" y="5"/>
      <point x="137" y="9"/>
      <point x="117" y="15"/>
      <point x="97" y="25"/>
      <point x="89" y="32" type="qcurve"/>
      <point x="72" y="46"/>
      <point x="53" y="106"/>
      <point x="51" y="129" type="qcurve"/>
      <point x="50" y="153" type="line"/>
      <point x="50" y="781" type="line"/>
    </contour>
  </outline>
</glyph>
<glyph name="u09FB" format="2">
  <advance width="512"/>
  <unicode hex="09FB"/>
  <outline>
    <contour>
      <point x="259" y="45" type="line"/>
      <point x="271" y="50"/>
      <point x="258.5" y="67" type="qcurve" smooth="yes"/>
      <point x="-16" y="581" type="line" smooth="yes"/>
      <point x="12" y="679"/>
      <point x="198" y="781"/>
      <point x="301" y="757" type="qcurve"/>
      <point x="305" y="755"/>
      <point x="322" y="750"/>
      <point x="326" y="748" type="qcurve"/>
      <point x="286" y="608" type="line"/>
      <point x="271" y="614"/>
      <point x="260" y="617" type="qcurve"/>
      <point x="218" y="627"/>
      <point x="142" y="585"/>
      <point x="130" y="543" type="qcurve"/>
      <point x="404" y="9" type="line"/>
    </contour>
  </outline>
</glyph>
<glyph name="u09FE" format="2">
  <advance width="0"/>
  <unicode hex="09FE"/>
  <outline>
    <contour>
      <point x="-68" y="634" type="qcurve"/>
      <point x="-68" y="627" type="line"/>
      <point x="-72" y="631" type="line"/>
      <point x="-73" y="630"/>
      <point x="-73" y="629" type="qcurve"/>
      <point x="-79" y="635"/>
      <point x="-86" y="642" type="qcurve"/>
      <point x="-168" y="709" type="line"/>
      <point x="-168" y="762" type="line"/>
      <point x="-85" y="694" type="line"/>
      <point x="-56" y="707"/>
      <point x="7" y="696"/>
      <point x="30" y="673" type="qcurve"/>
      <point x="61" y="642"/>
      <point x="60" y="557"/>
      <point x="29" y="526" type="qcurve"/>
      <point x="14" y="511"/>
      <point x="-3" y="503" type="qcurve"/>
      <point x="70" y="440" type="line"/>
      <point x="6" y="440" type="line"/>
      <point x="-77" y="502" type="line"/>
      <point x="-98" y="510"/>
      <point x="-115" y="527" type="qcurve"/>
      <point x="-74" y="568" type="line"/>
      <point x="-61" y="555"/>
      <point x="-27" y="556"/>
      <point x="-13" y="569" type="qcurve"/>
      <point x="0" y="583"/>
      <point x="1" y="617"/>
      <point x="-12" y="630" type="qcurve"/>
      <point x="-24" y="642"/>
      <point x="-55" y="644"/>
    </contour>
  </outline>
</glyph>
<glyph name="uni1E9E" format="2">
  <advance width="771"/>
  <unicode hex="1E9E"/>
  <outline>
    <contour>
      <point x="239" y="47" type="qcurve"/>
      <point x="306" y="159" type="line"/>
      <point x="313" y="152"/>
      <point x="328" y="147" type="qcurve"/>
      <point x="368" y="130"/>
      <point x="431" y="138"/>
      <point x="451" y="162" type="qcurve"/>
      <point x="474" y="189"/>
      <point x="429" y="201" type="qcurve"/>
      <point x="417" y="204"/>
      <point x="375" y="211" type="qcurve"/>
      <point x="328" y="230"/>
      <point x="254" y="310"/>
      <point x="218" y="401"/>
      <point x="223" y="497"/>
      <point x="251" y="529" type="qcurve"/>
      <point x="259" y="539"/>
      <point x="293" y="583"/>
      <point x="311" y="604"/>
      <point x="344" y="637"/>
      <point x="372" y="650"/>
      <point x="411" y="661"/>
      <point x="456" y="654"/>
      <point x="482" y="644" type="qcurve"/>
      <point x="483" y="644"/>
      <point x="484" y="644" type="qcurve"/>
      <point x="500" y="644"/>
      <point x="536" y="635"/>
      <point x="560" y="627"/>
      <point x="581" y="625"/>
      <point x="591" y="639"/>
      <point x="591" y="656" type="qcurve"/>
      <point x="591" y="686"/>
      <point x="400" y="718"/>
      <point x="194" y="707"/>
      <point x="173" y="683" type="qcurve"/>
      <point x="173" y="2" type="line"/>
      <point x="6" y="2" type="line"/>
      <point x="9" y="684" type="line"/>
      <point x="33" y="767"/>
      <point x="100" y="819" type="qcurve"/>
      <point x="141" y="851"/>
      <point x="299" y="876"/>
      <point x="475" y="856"/>
      <point x="636" y="807"/>
      <point x="742" y="713"/>
      <point x="742" y="656" type="qcurve"/>
      <point x="742" y="579"/>
      <point x="719" y="495"/>
      <point x="679" y="474"/>
      <point x="629" y="485"/>
      <point x="568" y="512"/>
      <point x="510" y="532"/>
      <point x="449" y="522"/>
      <point x="426" y="495" type="qcurve"/>
      <point x="410" y="477"/>
      <point x="401" y="423"/>
      <point x="427" y="375"/>
      <point x="457" y="370" type="qcurve"/>
      <point x="501" y="351"/>
      <point x="580" y="279"/>
      <point x="626" y="195"/>
      <point x="631" y="108"/>
      <point x="603" y="75" type="qcurve"/>
      <point x="556" y="18"/>
      <point x="356" y="-7"/>
      <point x="261" y="34" type="qcurve"/>
      <point x="253" y="36"/>
    </contour>
  </outline>
</glyph>
<glyph name="uni200D" format="2">
  <advance width="0"/>
  <unicode hex="200D"/>
  <outline>
    <contour>
      <point x="2" y="444" type="qcurve" smooth="yes"/>
      <point x="4" y="444" type="line" smooth="yes"/>
      <point x="19" y="444"/>
      <point x="19" y="429" type="qcurve" smooth="yes"/>
      <point x="19" y="15" type="line" smooth="yes"/>
      <point x="19" y="0"/>
      <point x="4" y="0" type="qcurve" smooth="yes"/>
      <point x="2" y="0" type="line" smooth="yes"/>
      <point x="-13" y="0"/>
      <point x="-13" y="15" type="qcurve" smooth="yes"/>
      <point x="-13" y="429" type="line" smooth="yes"/>
      <point x="-13" y="444"/>
    </contour>
  </outline>
</glyph>
<glyph name="Euro" format="2">
  <advance width="605"/>
  <unicode hex="20AC"/>
  <outline>
    <contour>
      <point x="65" y="358" type="qcurve"/>
      <point x="473" y="358" type="line"/>
      <point x="479" y="358"/>
      <point x="488" y="349"/>
      <point x="488" y="343" type="qcurve"/>
      <point x="488" y="287" type="line"/>
      <point x="488" y="281"/>
      <point x="479" y="272"/>
      <point x="473" y="272" type="qcurve"/>
      <point x="65" y="272" type="line"/>
      <point x="59" y="272"/>
      <point x="50" y="281"/>
      <point x="50" y="287" type="qcurve"/>
      <point x="50" y="343" type="line"/>
      <point x="50" y="349"/>
      <point x="59" y="358"/>
    </contour>
    <contour>
      <point x="65" y="533" type="qcurve"/>
      <point x="473" y="533" type="line"/>
      <point x="479" y="533"/>
      <point x="488" y="524"/>
      <point x="488" y="518" type="qcurve"/>
      <point x="488" y="462" type="line"/>
      <point x="488" y="456"/>
      <point x="479" y="447"/>
      <point x="473" y="447" type="qcurve"/>
      <point x="65" y="447" type="line"/>
      <point x="59" y="447"/>
      <point x="50" y="456"/>
      <point x="50" y="462" type="qcurve"/>
      <point x="50" y="518" type="line"/>
      <point x="50" y="524"/>
      <point x="59" y="533"/>
    </contour>
    <contour>
      <point x="482" y="612" type="qcurve"/>
      <point x="387" y="612"/>
      <point x="253" y="475"/>
      <point x="253" y="378" type="qcurve"/>
      <point x="253" y="280"/>
      <point x="387" y="143"/>
      <point x="482" y="143" type="qcurve"/>
      <point x="520" y="143"/>
      <point x="555" y="155" type="qcurve"/>
      <point x="555" y="-7" type="line"/>
      <point x="519" y="-14"/>
      <point x="482" y="-14" type="qcurve"/>
      <point x="324" y="-14"/>
      <point x="100" y="217"/>
      <point x="100" y="543"/>
      <point x="324" y="773"/>
      <point x="482" y="773" type="qcurve"/>
      <point x="519" y="773"/>
      <point x="555" y="766" type="qcurve"/>
      <point x="555" y="600" type="line"/>
      <point x="520" y="612"/>
    </contour>
  </outline>
</glyph>
<glyph name="Abreve.1" format="2">
  <advance width="752"/>
  <outline>
    <contour>
      <point x="200" y="954" type="line"/>
      <point x="271" y="954" type="line"/>
      <point x="270" y="948"/>
      <point x="270" y="943" type="qcurve"/>
      <point x="270" y="920"/>
      <point x="287" y="904" type="qcurve"/>
      <point x="303" y="887"/>
      <point x="327" y="887" type="qcurve"/>
      <point x="350" y="887"/>
      <point x="366" y="904" type="qcurve"/>
      <point x="382" y="920"/>
      <point x="382" y="943" type="qcurve"/>
      <point x="382" y="948"/>
      <point x="381" y="954" type="qcurve"/>
      <point x="452" y="954" type="line"/>
      <point x="452" y="943" type="line"/>
      <point x="452" y="891"/>
      <point x="416" y="854" type="qcurve"/>
      <point x="379" y="817"/>
      <point x="327" y="817" type="qcurve"/>
      <point x="274" y="817"/>
      <point x="237" y="854" type="qcurve"/>
      <point x="200" y="891"/>
      <point x="200" y="943" type="qcurve"/>
    </contour>
    <contour>
      <point x="457" y="957" type="line"/>
      <point x="457" y="959"/>
      <point x="454" y="959" type="qcurve"/>
      <point x="378" y="959" type="line"/>
      <point x="375" y="959"/>
      <point x="375" y="957" type="qcurve"/>
      <point x="375" y="956"/>
      <point x="375" y="956" type="qcurve"/>
      <point x="377" y="948"/>
      <point x="377" y="943" type="qcurve"/>
      <point x="377" y="922"/>
      <point x="363" y="907" type="qcurve"/>
      <point x="348" y="892"/>
      <point x="327" y="892" type="qcurve"/>
      <point x="305" y="892"/>
      <point x="290" y="907" type="qcurve"/>
      <point x="275" y="922"/>
      <point x="275" y="943" type="qcurve"/>
      <point x="275" y="948"/>
      <point x="277" y="956" type="qcurve"/>
      <point x="277" y="956"/>
      <point x="277" y="957" type="qcurve"/>
      <point x="277" y="959"/>
      <point x="274" y="959" type="qcurve"/>
      <point x="198" y="959" type="line"/>
      <point x="195" y="959"/>
      <point x="195" y="957" type="qcurve"/>
      <point x="195" y="943" type="line"/>
      <point x="195" y="888"/>
      <point x="233" y="850" type="qcurve"/>
      <point x="271" y="812"/>
      <point x="326" y="812" type="qcurve"/>
      <point x="381" y="812"/>
      <point x="419" y="851" type="qcurve"/>
      <point x="457" y="889"/>
      <point x="457" y="943" type="qcurve"/>
    </contour>
    <contour>
      <point x="461" y="231" type="qcurve"/>
      <point x="460" y="231"/>
      <point x="459" y="230" type="qcurve"/>
      <point x="261" y="230" type="line"/>
      <point x="259" y="230"/>
      <point x="259" y="228" type="qcurve"/>
      <point x="200" y="2" type="line"/>
      <point x="53" y="2" type="line"/>
      <point x="268" y="766" type="line"/>
      <point x="416" y="766" type="line"/>
      <point x="698" y="2" type="line"/>
      <point x="552" y="2" type="line"/>
      <point x="463" y="229" type="line"/>
      <point x="463" y="231"/>
    </contour>
    <contour>
      <point x="301" y="370" type="line"/>
      <point x="357" y="527" type="line"/>
      <point x="403" y="370" type="line"/>
    </contour>
    <contour>
      <point x="407" y="364" type="line"/>
      <point x="409" y="364"/>
      <point x="409" y="367" type="qcurve"/>
      <point x="409" y="367"/>
      <point x="409" y="368" type="qcurve"/>
      <point x="360" y="536" type="line"/>
      <point x="359" y="538"/>
      <point x="357" y="538" type="qcurve"/>
      <point x="355" y="538"/>
      <point x="355" y="536" type="qcurve"/>
      <point x="295" y="368" type="line"/>
      <point x="295" y="367"/>
      <point x="295" y="367" type="qcurve"/>
      <point x="295" y="364"/>
      <point x="297" y="364" type="qcurve"/>
    </contour>
    <contour>
      <point x="202" y="-2" type="line"/>
      <point x="204" y="-2"/>
      <point x="204" y="-1" type="qcurve"/>
      <point x="263" y="224" type="line"/>
      <point x="460" y="224" type="line"/>
      <point x="548" y="-1" type="line"/>
      <point x="548" y="-2"/>
      <point x="550" y="-2" type="qcurve"/>
      <point x="702" y="-2" type="line"/>
      <point x="704" y="-2"/>
      <point x="704" y="0" type="qcurve"/>
      <point x="704" y="0"/>
      <point x="704" y="1" type="qcurve"/>
      <point x="420" y="770" type="line"/>
      <point x="420" y="772"/>
      <point x="418" y="772" type="qcurve"/>
      <point x="266" y="772" type="line"/>
      <point x="264" y="772"/>
      <point x="264" y="770" type="qcurve"/>
      <point x="48" y="1" type="line"/>
      <point x="48" y="0"/>
      <point x="48" y="0" type="qcurve"/>
      <point x="48" y="-2"/>
      <point x="50" y="-2" type="qcurve"/>
    </contour>
  </outline>
</glyph>
<glyph name="Acircumflex.0" format="2">
  <advance width="752"/>
  <outline>
    <contour>
      <point x="226" y="842" type="line"/>
      <point x="302" y="842" type="line"/>
      <point x="330" y="950" type="line"/>
      <point x="350" y="842" type="line"/>
      <point x="426" y="842" type="line"/>
      <point x="374" y="1010" type="line"/>
      <point x="373" y="1010" type="line"/>
      <point x="298" y="1010" type="line"/>
      <point x="297" y="1010" type="line"/>
    </contour>
    <contour>
      <point x="550" y="10" type="line"/>
      <point x="702" y="10" type="line"/>
      <point x="418" y="779" type="line"/>
      <point x="266" y="779" type="line"/>
      <point x="50" y="10" type="line"/>
      <point x="202" y="10" type="line"/>
      <point x="261" y="237" type="line"/>
      <point x="461" y="237" type="line"/>
      <point x="461" y="238" type="line"/>
    </contour>
    <contour>
      <point x="407" y="377" type="line"/>
      <point x="297" y="377" type="line"/>
      <point x="357" y="545" type="line"/>
    </contour>
  </outline>
</glyph>
<glyph name="Adieresis.0" format="2">
  <advance width="752"/>
  <outline>
    <contour>
      <point x="350" y="843" type="line"/>
      <point x="502" y="843" type="line"/>
      <point x="502" y="985" type="line"/>
      <point x="350" y="985" type="line"/>
    </contour>
    <contour>
      <point x="150" y="843" type="line"/>
      <point x="302" y="843" type="line"/>
      <point x="302" y="985" type="line"/>
      <point x="150" y="985" type="line"/>
    </contour>
    <contour>
      <point x="550" y="10" type="line"/>
      <point x="702" y="10" type="line"/>
      <point x="418" y="779" type="line"/>
      <point x="266" y="779" type="line"/>
      <point x="50" y="10" type="line"/>
      <point x="202" y="10" type="line"/>
      <point x="261" y="237" type="line"/>
      <point x="461" y="237" type="line"/>
      <point x="461" y="238" type="line"/>
    </contour>
    <contour>
      <point x="407" y="377" type="line"/>
      <point x="297" y="377" type="line"/>
      <point x="357" y="545" type="line"/>
    </contour>
  </outline>
</glyph>
<glyph name="Agrave.1" format="2">
  <advance width="752"/>
  <outline>
    <contour>
      <point x="148" y="1015" type="line"/>
      <point x="252" y="1118" type="line"/>
      <point x="430" y="940" type="line"/>
      <point x="326" y="837" type="line"/>
    </contour>
    <contour>
      <point x="142" y="1017" type="line"/>
      <point x="141" y="1016"/>
      <point x="141" y="1015" type="qcurve"/>
      <point x="141" y="1014"/>
      <point x="142" y="1013" type="qcurve"/>
      <point x="324" y="831" type="line"/>
      <point x="325" y="831"/>
      <point x="326" y="831" type="qcurve"/>
      <point x="327" y="831"/>
      <point x="328" y="831" type="qcurve"/>
      <point x="436" y="938" type="line"/>
      <point x="437" y="939"/>
      <point x="437" y="940" type="qcurve"/>
      <point x="437" y="941"/>
      <point x="436" y="942" type="qcurve"/>
      <point x="254" y="1124" type="line"/>
      <point x="253" y="1125"/>
      <point x="252" y="1125" type="qcurve"/>
      <point x="251" y="1125"/>
      <point x="250" y="1124" type="qcurve"/>
    </contour>
    <contour>
      <point x="461" y="231" type="qcurve"/>
      <point x="460" y="231"/>
      <point x="459" y="230" type="qcurve"/>
      <point x="261" y="230" type="line"/>
      <point x="259" y="230"/>
      <point x="259" y="228" type="qcurve"/>
      <point x="200" y="2" type="line"/>
      <point x="53" y="2" type="line"/>
      <point x="268" y="766" type="line"/>
      <point x="416" y="766" type="line"/>
      <point x="698" y="2" type="line"/>
      <point x="552" y="2" type="line"/>
      <point x="463" y="229" type="line"/>
      <point x="463" y="231"/>
    </contour>
    <contour>
      <point x="301" y="370" type="line"/>
      <point x="357" y="527" type="line"/>
      <point x="403" y="370" type="line"/>
    </contour>
    <contour>
      <point x="407" y="364" type="line"/>
      <point x="409" y="364"/>
      <point x="409" y="367" type="qcurve"/>
      <point x="409" y="367"/>
      <point x="409" y="368" type="qcurve"/>
      <point x="360" y="536" type="line"/>
      <point x="359" y="538"/>
      <point x="357" y="538" type="qcurve"/>
      <point x="355" y="538"/>
      <point x="355" y="536" type="qcurve"/>
      <point x="295" y="368" type="line"/>
      <point x="295" y="367"/>
      <point x="295" y="367" type="qcurve"/>
      <point x="295" y="364"/>
      <point x="297" y="364" type="qcurve"/>
    </contour>
    <contour>
      <point x="202" y="-2" type="line"/>
      <point x="204" y="-2"/>
      <point x="204" y="-1" type="qcurve"/>
      <point x="263" y="224" type="line"/>
      <point x="460" y="224" type="line"/>
      <point x="548" y="-1" type="line"/>
      <point x="548" y="-2"/>
      <point x="550" y="-2" type="qcurve"/>
      <point x="702" y="-2" type="line"/>
      <point x="704" y="-2"/>
      <point x="704" y="0" type="qcurve"/>
      <point x="704" y="0"/>
      <point x="704" y="1" type="qcurve"/>
      <point x="420" y="770" type="line"/>
      <point x="420" y="772"/>
      <point x="418" y="772" type="qcurve"/>
      <point x="266" y="772" type="line"/>
      <point x="264" y="772"/>
      <point x="264" y="770" type="qcurve"/>
      <point x="48" y="1" type="line"/>
      <point x="48" y="0"/>
      <point x="48" y="0" type="qcurve"/>
      <point x="48" y="-2"/>
      <point x="50" y="-2" type="qcurve"/>
    </contour>
  </outline>
</glyph>
<glyph name="Aogonek.1" format="2">
  <advance width="752"/>
  <outline>
    <contour>
      <point x="682" y="2" type="line"/>
      <point x="682" y="-69" type="line"/>
      <point x="676" y="-68"/>
      <point x="672" y="-68" type="qcurve"/>
      <point x="648" y="-68"/>
      <point x="632" y="-84" type="qcurve"/>
      <point x="616" y="-100"/>
      <point x="616" y="-123" type="qcurve"/>
      <point x="616" y="-147"/>
      <point x="632" y="-163" type="qcurve"/>
      <point x="648" y="-180"/>
      <point x="672" y="-180" type="qcurve"/>
      <point x="676" y="-180"/>
      <point x="682" y="-178" type="qcurve"/>
      <point x="682" y="-250" type="line"/>
      <point x="672" y="-250" type="line"/>
      <point x="619" y="-250"/>
      <point x="583" y="-213" type="qcurve"/>
      <point x="546" y="-176"/>
      <point x="546" y="-124" type="qcurve"/>
      <point x="546" y="-71"/>
      <point x="583" y="-34" type="qcurve"/>
      <point x="619" y="2"/>
      <point x="672" y="2" type="qcurve"/>
    </contour>
    <contour>
      <point x="685" y="-254" type="line"/>
      <point x="688" y="-254"/>
      <point x="688" y="-252" type="qcurve"/>
      <point x="688" y="-175" type="line"/>
      <point x="688" y="-172"/>
      <point x="685" y="-172" type="qcurve"/>
      <point x="685" y="-172"/>
      <point x="684" y="-173" type="qcurve"/>
      <point x="677" y="-174"/>
      <point x="672" y="-174" type="qcurve"/>
      <point x="650" y="-174"/>
      <point x="635" y="-159" type="qcurve"/>
      <point x="620" y="-145"/>
      <point x="620" y="-124" type="qcurve"/>
      <point x="620" y="-103"/>
      <point x="636" y="-87" type="qcurve"/>
      <point x="651" y="-72"/>
      <point x="672" y="-72" type="qcurve"/>
      <point x="677" y="-72"/>
      <point x="684" y="-74" type="qcurve"/>
      <point x="685" y="-74"/>
      <point x="685" y="-74" type="qcurve"/>
      <point x="688" y="-74"/>
      <point x="688" y="-72" type="qcurve"/>
      <point x="688" y="5" type="line"/>
      <point x="688" y="8"/>
      <point x="685" y="8" type="qcurve"/>
      <point x="672" y="8" type="line"/>
      <point x="617" y="8"/>
      <point x="579" y="-30" type="qcurve"/>
      <point x="540" y="-69"/>
      <point x="540" y="-124" type="qcurve"/>
      <point x="540" y="-178"/>
      <point x="579" y="-216" type="qcurve"/>
      <point x="617" y="-254"/>
      <point x="672" y="-254" type="qcurve"/>
    </contour>
    <contour>
      <point x="461" y="231" type="qcurve"/>
      <point x="460" y="231"/>
      <point x="459" y="230" type="qcurve"/>
      <point x="261" y="230" type="line"/>
      <point x="259" y="230"/>
      <point x="259" y="228" type="qcurve"/>
      <point x="200" y="2" type="line"/>
      <point x="53" y="2" type="line"/>
      <point x="268" y="766" type="line"/>
      <point x="416" y="766" type="line"/>
      <point x="698" y="2" type="line"/>
      <point x="552" y="2" type="line"/>
      <point x="463" y="229" type="line"/>
      <point x="463" y="231"/>
    </contour>
    <contour>
      <point x="301" y="370" type="line"/>
      <point x="357" y="527" type="line"/>
      <point x="403" y="370" type="line"/>
    </contour>
    <contour>
      <point x="407" y="364" type="line"/>
      <point x="409" y="364"/>
      <point x="409" y="367" type="qcurve"/>
      <point x="409" y="367"/>
      <point x="409" y="368" type="qcurve"/>
      <point x="360" y="536" type="line"/>
      <point x="359" y="538"/>
      <point x="357" y="538" type="qcurve"/>
      <point x="355" y="538"/>
      <point x="355" y="536" type="qcurve"/>
      <point x="295" y="368" type="line"/>
      <point x="295" y="367"/>
      <point x="295" y="367" type="qcurve"/>
      <point x="295" y="364"/>
      <point x="297" y="364" type="qcurve"/>
    </contour>
    <contour>
      <point x="202" y="-2" type="line"/>
      <point x="204" y="-2"/>
      <point x="204" y="-1" type="qcurve"/>
      <point x="263" y="224" type="line"/>
      <point x="460" y="224" type="line"/>
      <point x="548" y="-1" type="line"/>
      <point x="548" y="-2"/>
      <point x="550" y="-2" type="qcurve"/>
      <point x="702" y="-2" type="line"/>
      <point x="704" y="-2"/>
      <point x="704" y="0" type="qcurve"/>
      <point x="704" y="0"/>
      <point x="704" y="1" type="qcurve"/>
      <point x="420" y="770" type="line"/>
      <point x="420" y="772"/>
      <point x="418" y="772" type="qcurve"/>
      <point x="266" y="772" type="line"/>
      <point x="264" y="772"/>
      <point x="264" y="770" type="qcurve"/>
      <point x="48" y="1" type="line"/>
      <point x="48" y="0"/>
      <point x="48" y="0" type="qcurve"/>
      <point x="48" y="-2"/>
      <point x="50" y="-2" type="qcurve"/>
    </contour>
  </outline>
</glyph>
<glyph name="Atilde.1" format="2">
  <advance width="752"/>
  <outline>
    <contour>
      <point x="338" y="907" type="qcurve"/>
      <point x="383" y="907"/>
      <point x="383" y="907" type="qcurve"/>
      <point x="414" y="907"/>
      <point x="448" y="943" type="qcurve"/>
      <point x="448" y="874" type="line"/>
      <point x="439" y="862"/>
      <point x="423" y="849" type="qcurve"/>
      <point x="406" y="836"/>
      <point x="387" y="836" type="qcurve"/>
      <point x="337" y="836" type="line"/>
      <point x="321" y="836"/>
      <point x="299" y="850" type="qcurve"/>
      <point x="277" y="864"/>
      <point x="260" y="864" type="qcurve"/>
      <point x="237" y="864"/>
      <point x="204" y="838" type="qcurve"/>
      <point x="204" y="908" type="line"/>
      <point x="236" y="935"/>
      <point x="258" y="935" type="qcurve"/>
      <point x="274" y="935"/>
      <point x="298" y="921" type="qcurve"/>
      <point x="321" y="907"/>
    </contour>
    <contour>
      <point x="258" y="940" type="qcurve"/>
      <point x="232" y="940"/>
      <point x="200" y="911" type="qcurve"/>
      <point x="199" y="910"/>
      <point x="199" y="909" type="qcurve"/>
      <point x="199" y="833" type="line"/>
      <point x="199" y="831"/>
      <point x="201" y="831" type="qcurve"/>
      <point x="202" y="831"/>
      <point x="203" y="831" type="qcurve"/>
      <point x="212" y="838" type="line"/>
      <point x="221" y="845"/>
      <point x="236" y="852" type="qcurve"/>
      <point x="250" y="859"/>
      <point x="260" y="859" type="qcurve"/>
      <point x="276" y="859"/>
      <point x="298" y="845" type="qcurve"/>
      <point x="320" y="831"/>
      <point x="337" y="831" type="qcurve"/>
      <point x="387" y="831" type="line"/>
      <point x="404" y="831"/>
      <point x="421" y="842" type="qcurve"/>
      <point x="437" y="852"/>
      <point x="445" y="862" type="qcurve"/>
      <point x="453" y="871"/>
      <point x="453" y="874" type="qcurve"/>
      <point x="453" y="950" type="line"/>
      <point x="453" y="952"/>
      <point x="451" y="952" type="qcurve"/>
      <point x="450" y="952"/>
      <point x="449" y="951" type="qcurve"/>
      <point x="445" y="947"/>
      <point x="439" y="941" type="qcurve"/>
      <point x="432" y="934"/>
      <point x="415" y="923" type="qcurve"/>
      <point x="397" y="912"/>
      <point x="383" y="912" type="qcurve"/>
      <point x="361" y="912"/>
      <point x="338" y="912" type="qcurve"/>
      <point x="322" y="912"/>
      <point x="299" y="926" type="qcurve"/>
      <point x="275" y="940"/>
    </contour>
    <contour>
      <point x="461" y="231" type="qcurve"/>
      <point x="460" y="231"/>
      <point x="459" y="230" type="qcurve"/>
      <point x="261" y="230" type="line"/>
      <point x="259" y="230"/>
      <point x="259" y="228" type="qcurve"/>
      <point x="200" y="2" type="line"/>
      <point x="53" y="2" type="line"/>
      <point x="268" y="766" type="line"/>
      <point x="416" y="766" type="line"/>
      <point x="698" y="2" type="line"/>
      <point x="552" y="2" type="line"/>
      <point x="463" y="229" type="line"/>
      <point x="463" y="231"/>
    </contour>
    <contour>
      <point x="301" y="370" type="line"/>
      <point x="357" y="527" type="line"/>
      <point x="403" y="370" type="line"/>
    </contour>
    <contour>
      <point x="407" y="364" type="line"/>
      <point x="409" y="364"/>
      <point x="409" y="367" type="qcurve"/>
      <point x="409" y="367"/>
      <point x="409" y="368" type="qcurve"/>
      <point x="360" y="536" type="line"/>
      <point x="359" y="538"/>
      <point x="357" y="538" type="qcurve"/>
      <point x="355" y="538"/>
      <point x="355" y="536" type="qcurve"/>
      <point x="295" y="368" type="line"/>
      <point x="295" y="367"/>
      <point x="295" y="367" type="qcurve"/>
      <point x="295" y="364"/>
      <point x="297" y="364" type="qcurve"/>
    </contour>
    <contour>
      <point x="202" y="-2" type="line"/>
      <point x="204" y="-2"/>
      <point x="204" y="-1" type="qcurve"/>
      <point x="263" y="224" type="line"/>
      <point x="460" y="224" type="line"/>
      <point x="548" y="-1" type="line"/>
      <point x="548" y="-2"/>
      <point x="550" y="-2" type="qcurve"/>
      <point x="702" y="-2" type="line"/>
      <point x="704" y="-2"/>
      <point x="704" y="0" type="qcurve"/>
      <point x="704" y="0"/>
      <point x="704" y="1" type="qcurve"/>
      <point x="420" y="770" type="line"/>
      <point x="420" y="772"/>
      <point x="418" y="772" type="qcurve"/>
      <point x="266" y="772" type="line"/>
      <point x="264" y="772"/>
      <point x="264" y="770" type="qcurve"/>
      <point x="48" y="1" type="line"/>
      <point x="48" y="0"/>
      <point x="48" y="0" type="qcurve"/>
      <point x="48" y="-2"/>
      <point x="50" y="-2" type="qcurve"/>
    </contour>
  </outline>
</glyph>
<glyph name="Ccedilla.1" format="2">
  <advance width="555"/>
  <outline>
    <contour>
      <point x="428" y="-260" type="line"/>
      <point x="428" y="-188" type="line"/>
      <point x="434" y="-190"/>
      <point x="438" y="-190" type="qcurve"/>
      <point x="462" y="-190"/>
      <point x="478" y="-173" type="qcurve"/>
      <point x="494" y="-157"/>
      <point x="494" y="-133" type="qcurve"/>
      <point x="494" y="-110"/>
      <point x="478" y="-94" type="qcurve"/>
      <point x="462" y="-78"/>
      <point x="438" y="-78" type="qcurve"/>
      <point x="434" y="-78"/>
      <point x="428" y="-79" type="qcurve"/>
      <point x="428" y="-8" type="line"/>
      <point x="438" y="-8" type="line"/>
      <point x="491" y="-8"/>
      <point x="528" y="-44" type="qcurve"/>
      <point x="564" y="-81"/>
      <point x="564" y="-134" type="qcurve"/>
      <point x="564" y="-186"/>
      <point x="528" y="-223" type="qcurve"/>
      <point x="491" y="-260"/>
      <point x="438" y="-260" type="qcurve"/>
    </contour>
    <contour>
      <point x="422" y="-262" type="line"/>
      <point x="422" y="-264"/>
      <point x="425" y="-264" type="qcurve"/>
      <point x="438" y="-264" type="line"/>
      <point x="493" y="-264"/>
      <point x="532" y="-226" type="qcurve"/>
      <point x="570" y="-188"/>
      <point x="570" y="-134" type="qcurve"/>
      <point x="570" y="-79"/>
      <point x="532" y="-40" type="qcurve"/>
      <point x="493" y="-2"/>
      <point x="438" y="-2" type="qcurve"/>
      <point x="425" y="-2" type="line"/>
      <point x="422" y="-2"/>
      <point x="422" y="-5" type="qcurve"/>
      <point x="422" y="-82" type="line"/>
      <point x="422" y="-84"/>
      <point x="425" y="-84" type="qcurve"/>
      <point x="425" y="-84"/>
      <point x="426" y="-84" type="qcurve"/>
      <point x="433" y="-82"/>
      <point x="438" y="-82" type="qcurve"/>
      <point x="459" y="-82"/>
      <point x="475" y="-97" type="qcurve"/>
      <point x="490" y="-113"/>
      <point x="490" y="-134" type="qcurve"/>
      <point x="490" y="-155"/>
      <point x="475" y="-169" type="qcurve"/>
      <point x="460" y="-184"/>
      <point x="438" y="-184" type="qcurve"/>
      <point x="433" y="-184"/>
      <point x="426" y="-183" type="qcurve"/>
      <point x="425" y="-182"/>
      <point x="425" y="-182" type="qcurve"/>
      <point x="422" y="-182"/>
      <point x="422" y="-185" type="qcurve"/>
    </contour>
    <contour>
      <point x="200" y="378" type="qcurve"/>
      <point x="200" y="279"/>
      <point x="268" y="210" type="qcurve"/>
      <point x="336" y="140"/>
      <point x="432" y="140" type="qcurve"/>
      <point x="468" y="140"/>
      <point x="502" y="152" type="qcurve"/>
      <point x="502" y="-5" type="line"/>
      <point x="468" y="-12"/>
      <point x="432" y="-12" type="qcurve"/>
      <point x="329" y="-12"/>
      <point x="242" y="41" type="qcurve"/>
      <point x="154" y="93"/>
      <point x="103" y="183" type="qcurve"/>
      <point x="52" y="273"/>
      <point x="52" y="380" type="qcurve"/>
      <point x="52" y="486"/>
      <point x="103" y="576" type="qcurve"/>
      <point x="154" y="666"/>
      <point x="242" y="718" type="qcurve"/>
      <point x="329" y="770"/>
      <point x="432" y="770" type="qcurve"/>
      <point x="468" y="770"/>
      <point x="502" y="764" type="qcurve"/>
      <point x="502" y="603" type="line"/>
      <point x="468" y="614"/>
      <point x="432" y="614" type="qcurve"/>
      <point x="336" y="614"/>
      <point x="268" y="545" type="qcurve"/>
      <point x="200" y="476"/>
    </contour>
    <contour>
      <point x="432" y="610" type="qcurve"/>
      <point x="469" y="610"/>
      <point x="504" y="598" type="qcurve"/>
      <point x="505" y="597"/>
      <point x="505" y="597" type="qcurve"/>
      <point x="508" y="597"/>
      <point x="508" y="600" type="qcurve"/>
      <point x="508" y="766" type="line"/>
      <point x="508" y="768"/>
      <point x="505" y="768" type="qcurve"/>
      <point x="469" y="776"/>
      <point x="432" y="776" type="qcurve"/>
      <point x="328" y="776"/>
      <point x="239" y="723" type="qcurve"/>
      <point x="150" y="670"/>
      <point x="99" y="579" type="qcurve"/>
      <point x="48" y="487"/>
      <point x="48" y="380" type="qcurve"/>
      <point x="48" y="272"/>
      <point x="99" y="181" type="qcurve"/>
      <point x="150" y="89"/>
      <point x="239" y="37" type="qcurve"/>
      <point x="327" y="-16"/>
      <point x="432" y="-16" type="qcurve"/>
      <point x="469" y="-16"/>
      <point x="505" y="-9" type="qcurve"/>
      <point x="508" y="-9"/>
      <point x="508" y="-7" type="qcurve"/>
      <point x="508" y="155" type="line"/>
      <point x="508" y="158"/>
      <point x="505" y="158" type="qcurve"/>
      <point x="505" y="158"/>
      <point x="504" y="157" type="qcurve"/>
      <point x="469" y="146"/>
      <point x="432" y="146" type="qcurve"/>
      <point x="338" y="146"/>
      <point x="272" y="214" type="qcurve"/>
      <point x="206" y="281"/>
      <point x="206" y="378" type="qcurve"/>
      <point x="206" y="474"/>
      <point x="272" y="542" type="qcurve"/>
      <point x="338" y="610"/>
    </contour>
  </outline>
</glyph>
<glyph name="E.1" format="2">
  <advance width="668"/>
  <outline>
    <contour>
      <point x="202" y="482" type="qcurve"/>
      <point x="507" y="482" type="line"/>
      <point x="507" y="336" type="line"/>
      <point x="202" y="336" type="line"/>
      <point x="200" y="336"/>
      <point x="200" y="333" type="qcurve"/>
      <point x="200" y="149" type="line"/>
      <point x="200" y="146"/>
      <point x="202" y="146" type="qcurve"/>
      <point x="615" y="146" type="line"/>
      <point x="615" y="0" type="line"/>
      <point x="53" y="0" type="line"/>
      <point x="53" y="0"/>
      <point x="52" y="0" type="qcurve"/>
      <point x="52" y="774" type="line"/>
      <point x="53" y="774"/>
      <point x="53" y="774" type="qcurve"/>
      <point x="53" y="774"/>
      <point x="53" y="775" type="qcurve"/>
      <point x="53" y="775"/>
      <point x="53" y="776" type="qcurve"/>
      <point x="615" y="776" type="line"/>
      <point x="615" y="628" type="line"/>
      <point x="202" y="628" type="line"/>
      <point x="200" y="628"/>
      <point x="200" y="626" type="qcurve"/>
      <point x="200" y="485" type="line"/>
      <point x="200" y="482"/>
    </contour>
    <contour>
      <point x="510" y="330" type="line"/>
      <point x="512" y="330"/>
      <point x="512" y="333" type="qcurve"/>
      <point x="511" y="485" type="line"/>
      <point x="511" y="488"/>
      <point x="509" y="488" type="qcurve"/>
      <point x="204" y="488" type="line"/>
      <point x="204" y="624" type="line"/>
      <point x="618" y="624" type="line"/>
      <point x="620" y="624"/>
      <point x="620" y="626" type="qcurve"/>
      <point x="619" y="778" type="line"/>
      <point x="619" y="780"/>
      <point x="617" y="780" type="qcurve"/>
      <point x="50" y="780" type="line"/>
      <point x="48" y="780"/>
      <point x="48" y="778" type="qcurve"/>
      <point x="48" y="774"/>
      <point x="48" y="774" type="qcurve"/>
      <point x="48" y="-2" type="line"/>
      <point x="48" y="-3"/>
      <point x="49" y="-4" type="qcurve"/>
      <point x="50" y="-6"/>
      <point x="51" y="-6" type="qcurve"/>
      <point x="618" y="-6" type="line"/>
      <point x="620" y="-6"/>
      <point x="620" y="-3" type="qcurve"/>
      <point x="619" y="149" type="line"/>
      <point x="619" y="152"/>
      <point x="617" y="152" type="qcurve"/>
      <point x="204" y="152" type="line"/>
      <point x="204" y="330" type="line"/>
    </contour>
  </outline>
</glyph>
<glyph name="Eacute.0" format="2">
  <advance width="668"/>
  <outline>
    <contour>
      <point x="333" y="848" type="line"/>
      <point x="515" y="1030" type="line"/>
      <point x="407" y="1137" type="line"/>
      <point x="225" y="955" type="line"/>
    </contour>
    <contour>
      <point x="509" y="495" type="line"/>
      <point x="202" y="495" type="line"/>
      <point x="202" y="636" type="line"/>
      <point x="618" y="636" type="line"/>
      <point x="617" y="788" type="line"/>
      <point x="50" y="788" type="line"/>
      <point x="50" y="784" type="line"/>
      <point x="50" y="8" type="line"/>
      <point x="51" y="8" type="line"/>
      <point x="51" y="7" type="line"/>
      <point x="618" y="7" type="line"/>
      <point x="617" y="159" type="line"/>
      <point x="202" y="159" type="line"/>
      <point x="202" y="343" type="line"/>
      <point x="510" y="343" type="line"/>
    </contour>
  </outline>
</glyph>
<glyph name="Ebreve.0" format="2">
  <advance width="668"/>
  <outline>
    <contour>
      <point x="462" y="972" type="qcurve"/>
      <point x="386" y="972" type="line"/>
      <point x="388" y="964"/>
      <point x="388" y="958" type="qcurve"/>
      <point x="388" y="936"/>
      <point x="373" y="920" type="qcurve"/>
      <point x="357" y="904"/>
      <point x="335" y="904" type="qcurve"/>
      <point x="312" y="904"/>
      <point x="296" y="920" type="qcurve"/>
      <point x="280" y="936"/>
      <point x="280" y="958" type="qcurve"/>
      <point x="280" y="964"/>
      <point x="282" y="972" type="qcurve"/>
      <point x="206" y="972" type="line"/>
      <point x="206" y="958" type="line"/>
      <point x="206" y="904"/>
      <point x="243" y="867" type="qcurve"/>
      <point x="280" y="830"/>
      <point x="334" y="830" type="qcurve"/>
      <point x="388" y="830"/>
      <point x="425" y="868" type="qcurve"/>
      <point x="462" y="905"/>
      <point x="462" y="958" type="qcurve"/>
      <point x="462" y="972"/>
    </contour>
    <contour>
      <point x="509" y="495" type="line"/>
      <point x="202" y="495" type="line"/>
      <point x="202" y="636" type="line"/>
      <point x="618" y="636" type="line"/>
      <point x="617" y="788" type="line"/>
      <point x="50" y="788" type="line"/>
      <point x="50" y="784" type="line"/>
      <point x="50" y="8" type="line"/>
      <point x="51" y="8" type="line"/>
      <point x="51" y="7" type="line"/>
      <point x="618" y="7" type="line"/>
      <point x="617" y="159" type="line"/>
      <point x="202" y="159" type="line"/>
      <point x="202" y="343" type="line"/>
      <point x="510" y="343" type="line"/>
    </contour>
  </outline>
</glyph>
